<svg width="247" height="247" viewBox="0 0 247 247" fill="none" xmlns="http://www.w3.org/2000/svg">
<circle cx="123.5" cy="123.5" r="105" fill="url(#paint0_linear_57_412)" stroke="url(#paint1_linear_57_412)" stroke-width="33"/>
<circle cx="123.5" cy="123.5" r="121.5" stroke="url(#paint2_linear_57_412)" stroke-width="4"/>
<circle cx="123" cy="124" r="87.5" stroke="url(#paint3_linear_57_412)" stroke-width="3"/>
<path d="M159.287 171.5H123.898C123.622 171.5 123.396 171.277 123.387 171.001C123.308 168.809 123.051 165.058 130.148 164.293C130.406 164.265 130.61 164.045 130.616 163.785C130.808 156.557 135.468 154.167 136.443 153.745C136.558 153.695 136.654 153.612 136.7 153.496C136.891 153.023 137.269 151.717 136.02 150.957C135.904 150.887 135.759 150.881 135.631 150.924C126.152 154.081 121.561 147.292 122.158 142.492C117.281 142.492 118.749 138.207 120.078 136.97C117.625 137.595 116.641 136.485 116.733 135.197C116.745 135.039 116.865 134.898 117.004 134.824C123.169 131.542 103.202 133.354 98.1553 134.336C88.8395 136.149 74.7155 137.055 63.5966 136.149C55.7834 135.242 57.0806 130.496 57.0806 130.496C57.0806 130.496 99.6578 128.595 108.673 125.876C113.472 124.428 116.186 123.157 113.181 116.811C110.617 111.398 111.32 106.597 112.988 103.552C113.098 103.351 113.065 103.1 112.91 102.932C108.681 98.3666 111.183 93.0962 113.472 91.6098C113.652 91.4928 113.76 91.2765 113.731 91.0637C111.549 74.7749 121.1 78.6634 127.084 81.6517C127.224 81.722 127.395 81.7176 127.536 81.6482C153.747 68.7596 161.071 89.1061 160.681 99.1964C160.672 99.4303 160.833 99.6381 161.057 99.7058C176.312 104.316 168.717 114.941 160.97 115.839C159.489 130.429 154.01 136.226 149.825 140.15C149.708 140.259 149.652 140.416 149.671 140.575L150.694 149.029C150.723 149.269 150.927 149.452 151.167 149.481C160.063 150.541 159.881 167.955 159.779 171.036C159.77 171.301 159.552 171.5 159.287 171.5Z" fill="#D27A00"/>
<path d="M159.287 169.5H123.898C123.622 169.5 123.396 169.276 123.424 169.001C123.74 165.952 126.857 162.592 130.111 162.273C130.386 162.246 130.609 162.02 130.617 161.744C130.825 154.565 135.448 152.177 136.436 151.748C136.555 151.696 136.653 151.609 136.697 151.486C136.862 151.022 137.143 149.8 135.904 149.056C135.789 148.987 135.643 148.98 135.515 149.023C126.333 152.102 121.88 147.132 122.155 142.453C122.17 142.198 122.004 141.962 121.758 141.891C119.076 141.115 118.517 139.402 119.338 137.993C119.583 137.574 119.323 136.827 118.846 136.734C116.853 136.343 116.362 135.177 117.055 134.194C117.076 134.164 117.106 134.133 117.133 134.109C121.162 130.529 103.245 131.346 98.1551 132.336C88.8393 134.149 74.7153 135.055 63.5965 134.149C55.7832 133.242 56.3867 129.712 58.1873 129.617C81.026 128.408 99.6577 126.595 108.673 123.876C113.472 122.428 116.186 121.157 113.181 114.811C110.617 109.398 111.32 104.597 112.988 101.552C113.098 101.351 113.065 101.1 112.909 100.932C108.681 96.3666 111.183 91.0962 113.472 89.6098C113.652 89.4928 113.759 89.2765 113.731 89.0637C111.549 72.7749 121.099 76.6634 127.083 79.6517C127.224 79.722 127.395 79.7176 127.536 79.6482C153.824 66.7218 161.114 87.2256 160.677 97.2848C160.669 97.4752 160.775 97.6534 160.94 97.7486C176.234 106.574 169.279 112.788 161.661 113.854C161.428 113.887 161.245 114.077 161.22 114.31C159.673 128.595 153.886 134.024 149.728 137.903C149.611 138.013 149.555 138.171 149.575 138.331L150.692 147.032C150.722 147.271 150.925 147.452 151.164 147.48C160.063 148.537 159.881 165.955 159.779 169.036C159.77 169.301 159.552 169.5 159.287 169.5Z" fill="url(#paint4_linear_57_412)"/>
<path d="M221.799 140.145L219.475 139.957L220.434 128.148L222.758 128.336L221.799 140.145ZM234.693 140.921L220.345 129.234L220.505 127.272L222.362 127.422L236.66 139.141L236.503 141.068L234.693 140.921ZM236.592 139.982L234.255 139.793L235.17 128.533L237.506 128.722L236.592 139.982Z" fill="url(#paint5_linear_57_412)"/>
<path d="M218.222 155.163L215.962 154.587L218.199 145.809L220.458 146.384L218.222 155.163ZM234.527 150.827L217.993 146.615L218.719 143.765L235.254 147.977L234.527 150.827ZM225.884 155.893L223.659 155.326L225.603 147.695L227.828 148.262L225.884 155.893ZM232.511 158.742L230.24 158.164L232.462 149.442L234.733 150.021L232.511 158.742Z" fill="url(#paint6_linear_57_412)"/>
<path d="M215.488 170.309L214.287 172.981C213.306 172.438 212.526 171.744 211.945 170.901C211.372 170.061 211.055 169.1 210.993 168.018C210.931 166.937 211.182 165.769 211.746 164.515C212.178 163.553 212.738 162.764 213.426 162.149C214.122 161.536 214.91 161.098 215.79 160.834C216.678 160.574 217.64 160.501 218.677 160.616C219.71 160.738 220.786 161.05 221.904 161.553L223.198 162.135C224.316 162.638 225.263 163.239 226.036 163.938C226.806 164.644 227.387 165.419 227.779 166.263C228.177 167.11 228.373 167.999 228.366 168.93C228.355 169.867 228.131 170.824 227.692 171.8C227.134 173.04 226.436 173.985 225.595 174.635C224.755 175.285 223.826 175.664 222.809 175.772C221.79 175.888 220.736 175.765 219.647 175.404L220.849 172.732C221.55 172.962 222.194 173.063 222.781 173.036C223.364 173.015 223.884 172.829 224.342 172.478C224.807 172.13 225.207 171.582 225.544 170.834C225.819 170.222 225.945 169.636 225.922 169.077C225.899 168.519 225.736 167.987 225.432 167.482C225.128 166.977 224.687 166.5 224.109 166.052C223.535 165.614 222.835 165.209 222.008 164.838L220.693 164.247C219.91 163.894 219.167 163.642 218.465 163.489C217.766 163.346 217.125 163.315 216.541 163.395C215.954 163.482 215.434 163.694 214.983 164.03C214.532 164.367 214.165 164.849 213.883 165.476C213.541 166.239 213.385 166.909 213.415 167.489C213.443 168.075 213.634 168.593 213.988 169.044C214.346 169.505 214.846 169.926 215.488 170.309Z" fill="url(#paint7_linear_57_412)"/>
<path d="M205.823 186.146L204.161 188.559C203.294 187.848 202.651 187.025 202.232 186.092C201.819 185.162 201.68 184.16 201.813 183.085C201.947 182.01 202.404 180.906 203.184 179.774C203.782 178.905 204.475 178.23 205.263 177.748C206.057 177.271 206.91 176.981 207.824 176.88C208.745 176.784 209.704 176.885 210.703 177.185C211.697 177.49 212.699 177.991 213.709 178.687L214.877 179.491C215.887 180.187 216.71 180.949 217.345 181.775C217.976 182.608 218.408 183.475 218.641 184.376C218.881 185.281 218.914 186.191 218.739 187.105C218.561 188.025 218.168 188.926 217.56 189.807C216.789 190.927 215.932 191.731 214.988 192.219C214.044 192.707 213.063 192.913 212.043 192.837C211.019 192.767 210.004 192.457 208.999 191.906L210.661 189.494C211.31 189.846 211.925 190.061 212.507 190.14C213.084 190.224 213.63 190.135 214.143 189.872C214.663 189.614 215.155 189.147 215.621 188.471C216.002 187.918 216.231 187.364 216.309 186.811C216.387 186.257 216.322 185.705 216.113 185.153C215.905 184.602 215.557 184.054 215.069 183.509C214.583 182.975 213.967 182.451 213.221 181.936L212.034 181.119C211.326 180.631 210.641 180.249 209.978 179.972C209.316 179.706 208.691 179.56 208.102 179.534C207.509 179.514 206.96 179.629 206.455 179.879C205.951 180.129 205.504 180.538 205.114 181.104C204.639 181.792 204.365 182.424 204.292 182.999C204.213 183.581 204.308 184.125 204.575 184.632C204.845 185.15 205.261 185.655 205.823 186.146Z" fill="url(#paint8_linear_57_412)"/>
<path d="M195.451 204.156L193.814 202.495L200.266 196.136L201.903 197.797L195.451 204.156ZM206.387 203.382L194.41 191.229L196.505 189.165L208.482 201.317L206.387 203.382ZM198.842 210.818L186.865 198.666L188.952 196.609L200.929 208.761L198.842 210.818Z" fill="url(#paint9_linear_57_412)"/>
<path d="M188.792 218.523L178.755 204.725L181.133 202.994L191.17 216.792L188.792 218.523Z" fill="url(#paint10_linear_57_412)"/>
<path d="M170.568 229.118L162.66 213.998L165.266 212.635L177.712 219.919L172.047 209.088L174.653 207.725L182.561 222.844L179.955 224.208L167.478 216.914L173.154 227.765L170.568 229.118Z" fill="url(#paint11_linear_57_412)"/>
<path d="M145.952 228.946L145.686 228.047C145.321 226.81 145.154 225.654 145.186 224.577C145.218 223.501 145.432 222.529 145.828 221.663C146.216 220.798 146.772 220.06 147.495 219.447C148.22 218.841 149.088 218.389 150.1 218.09C151.104 217.794 152.075 217.702 153.013 217.816C153.945 217.94 154.817 218.256 155.627 218.766C156.438 219.276 157.157 219.972 157.784 220.854C158.404 221.738 158.896 222.798 159.262 224.034L159.528 224.933C159.893 226.169 160.055 227.323 160.013 228.395C159.973 229.474 159.756 230.446 159.36 231.313C158.959 232.189 158.4 232.928 157.682 233.532C156.959 234.145 156.095 234.599 155.091 234.896C154.08 235.195 153.104 235.284 152.164 235.162C151.226 235.049 150.354 234.732 149.549 234.212C148.746 233.7 148.038 233.001 147.426 232.115C146.809 231.238 146.317 230.182 145.952 228.946ZM148.507 227.213L148.779 228.134C149.049 229.048 149.377 229.827 149.763 230.471C150.144 231.124 150.576 231.636 151.06 232.006C151.539 232.386 152.061 232.623 152.626 232.716C153.194 232.817 153.788 232.776 154.41 232.592C155.032 232.408 155.55 232.121 155.964 231.73C156.38 231.346 156.69 230.864 156.893 230.282C157.09 229.711 157.175 229.046 157.147 228.289C157.12 227.539 156.972 226.707 156.702 225.793L156.43 224.871C156.16 223.957 155.831 223.175 155.443 222.523C155.055 221.872 154.616 221.354 154.128 220.969C153.634 220.594 153.107 220.354 152.547 220.251C151.989 220.155 151.399 220.199 150.777 220.383C150.148 220.569 149.625 220.854 149.209 221.237C148.795 221.629 148.491 222.114 148.295 222.693C148.102 223.28 148.023 223.95 148.059 224.706C148.087 225.463 148.237 226.299 148.507 227.213Z" fill="url(#paint12_linear_57_412)"/>
<path d="M56.8913 199.205L58.3243 197.366L67.6713 204.646L66.2383 206.486L56.8913 199.205ZM49.1685 209.559L66.8115 203.976L68.3647 205.186L67.2197 206.656L49.5778 212.181L48.0523 210.992L49.1685 209.559ZM48.9121 211.662L50.3523 209.813L59.2648 216.755L57.8246 218.604L48.9121 211.662Z" fill="url(#paint13_linear_57_412)"/>
<path d="M46.4239 188.164L48.1375 186.582L54.2818 193.238L52.5682 194.82L46.4239 188.164ZM41.18 204.2L53.7174 192.627L55.7126 194.788L43.1751 206.362L41.18 204.2ZM41.6382 194.192L43.326 192.634L48.6675 198.421L46.9797 199.979L41.6382 194.192ZM35.6397 198.198L37.3619 196.609L43.4665 203.222L41.7443 204.812L35.6397 198.198Z" fill="url(#paint14_linear_57_412)"/>
<path d="M35.2364 177.674L33.6456 175.213C34.6346 174.686 35.6408 174.407 36.664 174.378C37.6807 174.353 38.6598 174.609 39.6015 175.144C40.5432 175.68 41.3873 176.525 42.1339 177.679C42.7066 178.565 43.0646 179.464 43.2078 180.376C43.3445 181.292 43.2842 182.192 43.027 183.075C42.7632 183.962 42.3017 184.809 41.6424 185.617C40.9789 186.418 40.1322 187.151 39.1022 187.817L37.9115 188.587C36.8815 189.253 35.863 189.721 34.8558 189.991C33.8445 190.254 32.8782 190.321 31.9568 190.191C31.029 190.065 30.1764 189.747 29.3991 189.235C28.6175 188.717 27.9362 188.009 27.355 187.11C26.6169 185.969 26.2032 184.868 26.114 183.81C26.0248 182.751 26.2109 181.765 26.6723 180.853C27.1294 179.934 27.805 179.116 28.6992 178.398L30.29 180.858C29.7158 181.323 29.281 181.808 28.9856 182.316C28.6861 182.816 28.5594 183.354 28.6055 183.929C28.6451 184.508 28.8875 185.142 29.333 185.831C29.6978 186.395 30.1209 186.819 30.6024 187.103C31.0838 187.388 31.6191 187.539 32.2082 187.558C32.7974 187.577 33.4371 187.466 34.1275 187.224C34.807 186.98 35.5273 186.612 36.2883 186.12L37.4987 185.338C38.2203 184.871 38.8361 184.384 39.3459 183.878C39.8449 183.369 40.2196 182.848 40.4697 182.314C40.7157 181.773 40.8198 181.222 40.7822 180.661C40.7446 180.099 40.5391 179.529 40.1658 178.952C39.7119 178.25 39.2334 177.755 38.7304 177.466C38.2231 177.17 37.6841 177.049 37.1134 177.102C36.532 177.152 35.9063 177.343 35.2364 177.674Z" fill="url(#paint15_linear_57_412)"/>
<path d="M27.2099 161L26.0888 158.294C27.1568 157.953 28.1967 157.86 29.2084 158.016C30.2128 158.175 31.1299 158.603 31.9596 159.299C32.7892 159.996 33.4671 160.979 33.9933 162.25C34.3969 163.224 34.5869 164.173 34.5633 165.096C34.5325 166.022 34.311 166.896 33.8988 167.718C33.4794 168.543 32.8726 169.293 32.0785 169.968C31.2814 170.637 30.3163 171.206 29.183 171.675L27.873 172.218C26.7398 172.687 25.6536 172.963 24.6143 173.047C23.5721 173.124 22.6096 173.015 21.7268 172.721C20.8368 172.43 20.0556 171.963 19.3833 171.32C18.708 170.669 18.1656 169.85 17.756 168.861C17.2358 167.605 17.0273 166.448 17.1305 165.391C17.2337 164.333 17.5945 163.397 18.2128 162.583C18.8281 161.762 19.6403 161.079 20.6492 160.534L21.7703 163.241C21.1217 163.594 20.6065 163.993 20.2245 164.439C19.8396 164.877 19.6179 165.384 19.5596 165.957C19.4941 166.534 19.6183 167.202 19.9322 167.959C20.1893 168.58 20.529 169.074 20.9513 169.44C21.3736 169.806 21.8728 170.052 22.4488 170.177C23.0249 170.302 23.6742 170.308 24.3968 170.195C25.1092 170.077 25.884 169.845 26.7213 169.498L28.053 168.947C28.847 168.618 29.5404 168.25 30.1332 167.844C30.7158 167.434 31.1783 166.988 31.5206 166.508C31.86 166.021 32.0618 165.498 32.1261 164.938C32.1904 164.379 32.091 163.782 31.8279 163.147C31.508 162.374 31.1267 161.801 30.684 161.426C30.2383 161.044 29.7301 160.828 29.1593 160.776C28.5782 160.721 27.9284 160.796 27.2099 161Z" fill="url(#paint16_linear_57_412)"/>
<path d="M17.7567 142.484L20.0422 142.02L21.8413 150.899L19.5557 151.362L17.7567 142.484ZM12.4284 152.065L29.151 148.676L29.7352 151.559L13.0125 154.948L12.4284 152.065ZM10.3244 141.682L27.047 138.293L27.6289 141.165L10.9062 144.553L10.3244 141.682Z" fill="url(#paint17_linear_57_412)"/>
<path d="M9.3569 129.325L26.3945 128.404L26.5533 131.341L9.51572 132.262L9.3569 129.325Z" fill="url(#paint18_linear_57_412)"/>
<path d="M10.4305 107.754L27.4138 109.396L27.1307 112.324L14.2282 118.765L26.3941 119.941L26.111 122.869L9.12775 121.226L9.41086 118.299L22.3389 111.837L10.1497 110.659L10.4305 107.754Z" fill="url(#paint19_linear_57_412)"/>
<path d="M23.9526 87.4213L24.8506 87.6904C26.0854 88.0604 27.1448 88.5532 28.0287 89.1688C28.9127 89.7844 29.6092 90.4947 30.1183 91.2997C30.6296 92.0973 30.9441 92.9663 31.0619 93.9069C31.1722 94.8452 31.076 95.8196 30.7732 96.8299C30.4727 97.8327 30.0184 98.6956 29.4102 99.4186C28.7968 100.132 28.0551 100.689 27.1849 101.088C26.3147 101.488 25.339 101.71 24.2577 101.753C23.1787 101.788 22.0218 101.621 20.787 101.251L19.8889 100.982C18.6541 100.612 17.5996 100.116 16.7254 99.4955C15.8437 98.8724 15.1483 98.1584 14.6392 97.3533C14.1249 96.5386 13.8115 95.6658 13.6989 94.7349C13.5812 93.7944 13.6725 92.8227 13.9731 91.8198C14.2758 90.8096 14.735 89.944 15.3506 89.2232C15.9588 88.5002 16.7006 87.9436 17.5759 87.5534C18.4439 87.1611 19.4162 86.9509 20.493 86.9228C21.5646 86.8851 22.7178 87.0513 23.9526 87.4213ZM24.0063 90.508L23.0858 90.2322C22.1728 89.9586 21.3413 89.8073 20.5915 89.7783C19.8365 89.7397 19.1716 89.8218 18.597 90.0248C18.0171 90.218 17.5335 90.5257 17.146 90.9479C16.751 91.3678 16.4604 91.8883 16.2743 92.5095C16.0882 93.1306 16.0457 93.7214 16.1469 94.2818C16.2406 94.8401 16.4753 95.363 16.8511 95.8508C17.2217 96.3289 17.7318 96.7631 18.3814 97.1535C19.0236 97.5417 19.8012 97.8726 20.7142 98.1462L21.6347 98.422C22.5477 98.6956 23.3828 98.848 24.1401 98.8792C24.8974 98.9104 25.5709 98.8268 26.1605 98.6283C26.7448 98.4201 27.2334 98.1098 27.6261 97.6973C28.0114 97.2827 28.2971 96.7648 28.4832 96.1436C28.6716 95.515 28.7189 94.9216 28.6252 94.3634C28.524 93.8029 28.2844 93.2825 27.9064 92.8022C27.5208 92.3197 27.0021 91.887 26.3502 91.504C25.7006 91.1136 24.9193 90.7816 24.0063 90.508Z" fill="url(#paint20_linear_57_412)"/>
<path d="M96.8313 29.0773L97.6012 31.2786L86.4176 35.1897L85.6478 32.9884L96.8313 29.0773ZM92.3138 16.9762L87.4464 34.8299L85.588 35.4798L84.9729 33.721L89.889 15.8999L91.7142 15.2616L92.3138 16.9762ZM90.6855 15.6214L91.4592 17.8337L80.7956 21.5629L80.0219 19.3506L90.6855 15.6214Z" fill="url(#paint21_linear_57_412)"/>
<path d="M111.672 26.2692L112.065 28.5678L103.136 30.0945L102.743 27.7959L111.672 26.2692ZM101.081 13.1359L103.956 29.9543L101.057 30.45L98.1812 13.6316L101.081 13.1359ZM109.224 18.972L109.611 21.236L101.848 22.5632L101.461 20.2992L109.224 18.972ZM109.132 11.7593L109.527 14.0695L100.655 15.5863L100.26 13.2761L109.132 11.7593Z" fill="url(#paint22_linear_57_412)"/>
<path d="M127.595 22.5373L130.525 22.5599C130.423 23.6763 130.102 24.67 129.564 25.5408C129.026 26.4039 128.275 27.0817 127.31 27.5743C126.346 28.0668 125.176 28.3078 123.801 28.2972C122.746 28.2891 121.798 28.0942 120.958 27.7127C120.117 27.3234 119.398 26.7788 118.802 26.0788C118.206 25.3711 117.752 24.5199 117.439 23.5253C117.134 22.5307 116.986 21.4202 116.996 20.1936L117.007 18.7757C117.016 17.5492 117.185 16.4411 117.513 15.4514C117.849 14.4618 118.324 13.6178 118.939 12.9194C119.554 12.2131 120.288 11.6758 121.143 11.3074C122.005 10.9391 122.971 10.759 124.042 10.7673C125.401 10.7778 126.547 11.0366 127.481 11.5439C128.415 12.0511 129.136 12.7481 129.645 13.6348C130.161 14.5217 130.474 15.5358 130.582 16.6773L127.652 16.6547C127.58 15.9198 127.413 15.2895 127.151 14.7641C126.898 14.2387 126.518 13.8373 126.012 13.5599C125.507 13.2748 124.844 13.129 124.023 13.1227C123.352 13.1175 122.765 13.238 122.263 13.4841C121.761 13.7302 121.34 14.0942 121 14.5759C120.661 15.0577 120.402 15.6534 120.225 16.363C120.055 17.0648 119.967 17.8688 119.96 18.7751L119.949 20.2164C119.942 21.0758 120.011 21.8576 120.154 22.5618C120.304 23.2583 120.534 23.8578 120.843 24.3602C121.159 24.8626 121.562 25.2525 122.053 25.5297C122.543 25.8069 123.131 25.9482 123.819 25.9535C124.655 25.96 125.332 25.8324 125.849 25.5707C126.375 25.3092 126.772 24.9255 127.042 24.4198C127.319 23.9063 127.504 23.2788 127.595 22.5373Z" fill="url(#paint23_linear_57_412)"/>
<path d="M145.371 24.8256L148.251 25.3635C147.953 26.4445 147.463 27.3663 146.78 28.1289C146.099 28.8838 145.24 29.4188 144.204 29.7338C143.167 30.0489 141.973 30.0802 140.622 29.8278C139.585 29.6341 138.686 29.2755 137.926 28.752C137.167 28.2208 136.555 27.5582 136.092 26.7643C135.629 25.9626 135.332 25.0448 135.199 24.0106C135.074 22.9779 135.124 21.8587 135.349 20.653L135.61 19.2592C135.835 18.0534 136.196 16.9923 136.693 16.0758C137.198 15.1607 137.814 14.4136 138.542 13.8343C139.272 13.2473 140.09 12.8477 140.996 12.6354C141.909 12.4246 142.892 12.4174 143.944 12.6139C145.28 12.8635 146.363 13.3201 147.193 13.9837C148.023 14.6474 148.61 15.4604 148.955 16.4229C149.307 17.3868 149.437 18.4401 149.342 19.5829L146.462 19.045C146.52 18.3087 146.467 17.659 146.302 17.0957C146.145 16.5338 145.842 16.0718 145.393 15.7098C144.945 15.3401 144.318 15.0799 143.512 14.9293C142.851 14.806 142.252 14.8213 141.715 14.9752C141.177 15.1292 140.699 15.4134 140.28 15.8278C139.861 16.2423 139.502 16.7832 139.202 17.4505C138.912 18.1115 138.683 18.8875 138.517 19.7783L138.252 21.1952C138.095 22.04 138.024 22.8216 138.041 23.54C138.067 24.2522 138.187 24.8827 138.403 25.4316C138.626 25.9819 138.954 26.4366 139.388 26.7958C139.821 27.1549 140.376 27.3976 141.052 27.5239C141.874 27.6773 142.562 27.6709 143.118 27.5044C143.681 27.3394 144.14 27.0317 144.495 26.5813C144.858 26.1246 145.15 25.5394 145.371 24.8256Z" fill="url(#paint24_linear_57_412)"/>
<path d="M166.28 27.0147L165.42 29.1824L157 25.8416L157.86 23.674L166.28 27.0147ZM161.163 17.3192L154.871 33.179L152.137 32.0942L158.429 16.2344L161.163 17.3192ZM171.01 21.2261L164.718 37.0859L161.995 36.0054L168.287 20.1456L171.01 21.2261Z" fill="url(#paint25_linear_57_412)"/>
<path d="M182.126 27.2693L173.556 42.0235L171.013 40.5461L179.583 25.792L182.126 27.2693Z" fill="url(#paint26_linear_57_412)"/>
<path d="M199.083 39.5496L188.451 52.8953L186.151 51.0626L187.781 36.7345L180.165 46.2946L177.865 44.4619L188.496 31.1162L190.796 32.9489L189.17 47.3099L196.8 37.7315L199.083 39.5496Z" fill="url(#paint27_linear_57_412)"/>
<path d="M209.204 62.4162L208.488 63.0215C207.503 63.8537 206.512 64.4719 205.513 64.876C204.515 65.2802 203.539 65.4756 202.587 65.4623C201.64 65.455 200.74 65.2438 199.888 64.8287C199.041 64.4085 198.278 63.7957 197.597 62.9902C196.921 62.1908 196.446 61.3388 196.173 60.4345C195.911 59.5311 195.85 58.6057 195.99 57.6584C196.13 56.7111 196.478 55.7729 197.032 54.8437C197.592 53.9204 198.364 53.0427 199.349 52.2105L200.064 51.6053C201.049 50.7731 202.04 50.1604 203.037 49.7673C204.041 49.3691 205.019 49.1766 205.971 49.1899C206.935 49.2041 207.837 49.4183 208.678 49.8325C209.53 50.2476 210.294 50.8549 210.97 51.6544C211.651 52.4599 212.125 53.3173 212.393 54.2267C212.666 55.131 212.727 56.0564 212.576 57.0028C212.431 57.9441 212.075 58.8734 211.511 59.7906C210.957 60.7088 210.188 61.584 209.204 62.4162ZM206.589 60.7752L207.323 60.1548C208.05 59.5395 208.631 58.9257 209.065 58.3134C209.51 57.7021 209.804 57.1003 209.948 56.5081C210.103 55.9169 210.109 55.3436 209.968 54.7885C209.832 54.2282 209.554 53.7005 209.136 53.2053C208.717 52.7101 208.245 52.3518 207.721 52.1305C207.202 51.9041 206.636 51.815 206.022 51.8634C205.419 51.9126 204.776 52.1027 204.095 52.4336C203.419 52.7595 202.717 53.2301 201.989 53.8454L201.255 54.4658C200.527 55.0811 199.943 55.6974 199.504 56.3147C199.064 56.932 198.766 57.5418 198.61 58.1441C198.465 58.7473 198.458 59.326 198.589 59.8803C198.726 60.4295 199.004 60.9517 199.423 61.4469C199.846 61.9481 200.318 62.3119 200.836 62.5383C201.361 62.7596 201.928 62.8432 202.537 62.7889C203.151 62.7295 203.797 62.5314 204.474 62.1945C205.156 61.8636 205.861 61.3905 206.589 60.7752Z" fill="url(#paint28_linear_57_412)"/>
<path d="M232.495 87.1262L225.794 92.7247L229.083 100.814L221.687 96.1704L215.01 101.798L217.141 93.3297L209.726 88.7184L218.438 88.1283L220.532 79.6507L223.786 87.7544L232.495 87.1262Z" fill="url(#paint29_linear_57_412)"/>
<path d="M90.9541 227.046L98.9998 223.651L98.2197 214.954L103.934 221.557L111.965 218.127L107.451 225.602L113.195 232.18L104.69 230.197L100.209 237.692L99.467 228.991L90.9541 227.046Z" fill="url(#paint30_linear_57_412)"/>
<path d="M36.0534 49.2918L44.3525 52.0084L49.4698 44.9325L49.4507 53.6649L57.7616 56.3452L49.4507 59.0255L49.4698 67.7579L44.3525 60.682L36.0534 63.3986L41.2016 56.3452L36.0534 49.2918Z" fill="url(#paint31_linear_57_412)"/>
<defs>
<linearGradient id="paint0_linear_57_412" x1="191.508" y1="20.0008" x2="59.0025" y2="219.509" gradientUnits="userSpaceOnUse">
<stop offset="0.103134" stop-color="#F08C00"/>
<stop offset="0.498783" stop-color="#FFE854"/>
<stop offset="0.900983" stop-color="#FF9400"/>
</linearGradient>
<linearGradient id="paint1_linear_57_412" x1="210.622" y1="33.7677" x2="49.8778" y2="219.136" gradientUnits="userSpaceOnUse">
<stop stop-color="#FFCF24"/>
<stop offset="0.123016" stop-color="#FFDB1D"/>
<stop offset="0.289529" stop-color="#FFCF27" stop-opacity="0.4"/>
<stop offset="0.518114" stop-color="#FFF971"/>
<stop offset="0.743348" stop-color="#FFD028" stop-opacity="0.8"/>
<stop offset="0.82597" stop-color="#FFB800"/>
<stop offset="0.969041" stop-color="#FF9900"/>
</linearGradient>
<linearGradient id="paint2_linear_57_412" x1="99.5919" y1="2" x2="129.138" y2="245" gradientUnits="userSpaceOnUse">
<stop stop-color="#FFFA88"/>
<stop offset="0.483894" stop-color="#FF8B22"/>
<stop offset="0.961122" stop-color="#CC6200"/>
</linearGradient>
<linearGradient id="paint3_linear_57_412" x1="100.787" y1="35" x2="181.143" y2="193.594" gradientUnits="userSpaceOnUse">
<stop stop-color="#FD9800"/>
<stop offset="0.524" stop-color="#FFC121"/>
<stop offset="0.979601" stop-color="#FFFA80"/>
</linearGradient>
<linearGradient id="paint4_linear_57_412" x1="157" y1="72.5" x2="89.0449" y2="169.5" gradientUnits="userSpaceOnUse">
<stop offset="0.0404484" stop-color="#D88200"/>
<stop offset="0.494792" stop-color="#FFC93E"/>
<stop offset="0.877853" stop-color="#F79400"/>
</linearGradient>
<linearGradient id="paint5_linear_57_412" x1="241.922" y1="135.336" x2="214.014" y2="133.07" gradientUnits="userSpaceOnUse">
<stop offset="0.143047" stop-color="#CD6F00"/>
<stop offset="0.494792" stop-color="#FFC738"/>
<stop offset="0.854556" stop-color="#CD5600"/>
</linearGradient>
<linearGradient id="paint6_linear_57_412" x1="238.791" y1="154.09" x2="211.658" y2="147.178" gradientUnits="userSpaceOnUse">
<stop offset="0.143047" stop-color="#CD6F00"/>
<stop offset="0.494792" stop-color="#FFC738"/>
<stop offset="0.854556" stop-color="#CD5600"/>
</linearGradient>
<linearGradient id="paint7_linear_57_412" x1="232.116" y1="173.43" x2="206.578" y2="161.948" gradientUnits="userSpaceOnUse">
<stop offset="0.143047" stop-color="#CD6F00"/>
<stop offset="0.494792" stop-color="#FFC738"/>
<stop offset="0.854556" stop-color="#CD5600"/>
</linearGradient>
<linearGradient id="paint8_linear_57_412" x1="221.619" y1="192.206" x2="198.562" y2="176.319" gradientUnits="userSpaceOnUse">
<stop offset="0.143047" stop-color="#CD6F00"/>
<stop offset="0.494792" stop-color="#FFC738"/>
<stop offset="0.854556" stop-color="#CD5600"/>
</linearGradient>
<linearGradient id="paint9_linear_57_412" x1="207.115" y1="209.596" x2="187.461" y2="189.654" gradientUnits="userSpaceOnUse">
<stop offset="0.143047" stop-color="#CD6F00"/>
<stop offset="0.494792" stop-color="#FFC738"/>
<stop offset="0.854556" stop-color="#CD5600"/>
</linearGradient>
<linearGradient id="paint10_linear_57_412" x1="192.89" y1="221.647" x2="176.419" y2="199.004" gradientUnits="userSpaceOnUse">
<stop offset="0.143047" stop-color="#CD6F00"/>
<stop offset="0.494792" stop-color="#FFC738"/>
<stop offset="0.854556" stop-color="#CD5600"/>
</linearGradient>
<linearGradient id="paint11_linear_57_412" x1="178.838" y1="230.364" x2="165.86" y2="205.553" gradientUnits="userSpaceOnUse">
<stop offset="0.143047" stop-color="#CD6F00"/>
<stop offset="0.494792" stop-color="#FFC738"/>
<stop offset="0.854556" stop-color="#CD5600"/>
</linearGradient>
<linearGradient id="paint12_linear_57_412" x1="156.413" y1="239.41" x2="148.477" y2="212.558" gradientUnits="userSpaceOnUse">
<stop offset="0.143047" stop-color="#CD6F00"/>
<stop offset="0.494792" stop-color="#FFC738"/>
<stop offset="0.854556" stop-color="#CD5600"/>
</linearGradient>
<linearGradient id="paint13_linear_57_412" x1="49.8721" y1="218.668" x2="67.0776" y2="196.578" gradientUnits="userSpaceOnUse">
<stop offset="0.143047" stop-color="#CD5600"/>
<stop offset="0.494792" stop-color="#FF8A00"/>
<stop offset="0.854556" stop-color="#CD5600"/>
</linearGradient>
<linearGradient id="paint14_linear_57_412" x1="36.1211" y1="205.999" x2="56.6955" y2="187.007" gradientUnits="userSpaceOnUse">
<stop offset="0.143047" stop-color="#CD5600"/>
<stop offset="0.494792" stop-color="#FF8A00"/>
<stop offset="0.854556" stop-color="#CD5600"/>
</linearGradient>
<linearGradient id="paint15_linear_57_412" x1="23.5838" y1="189.939" x2="47.0964" y2="174.736" gradientUnits="userSpaceOnUse">
<stop offset="0.143047" stop-color="#CD5600"/>
<stop offset="0.494792" stop-color="#FF8A00"/>
<stop offset="0.854556" stop-color="#CD5600"/>
</linearGradient>
<linearGradient id="paint16_linear_57_412" x1="13.5364" y1="170.964" x2="39.4053" y2="160.249" gradientUnits="userSpaceOnUse">
<stop offset="0.143047" stop-color="#CD5600"/>
<stop offset="0.494792" stop-color="#FF8A00"/>
<stop offset="0.854556" stop-color="#CD5600"/>
</linearGradient>
<linearGradient id="paint17_linear_57_412" x1="6.82584" y1="149.278" x2="34.2681" y2="143.717" gradientUnits="userSpaceOnUse">
<stop offset="0.143047" stop-color="#CD5600"/>
<stop offset="0.494792" stop-color="#FF8A00"/>
<stop offset="0.854556" stop-color="#CD5600"/>
</linearGradient>
<linearGradient id="paint18_linear_57_412" x1="4.50633" y1="131.066" x2="32.4655" y2="129.554" gradientUnits="userSpaceOnUse">
<stop offset="0.143047" stop-color="#CD5600"/>
<stop offset="0.494792" stop-color="#FF8A00"/>
<stop offset="0.854556" stop-color="#CD5600"/>
</linearGradient>
<linearGradient id="paint19_linear_57_412" x1="4.86624" y1="113.998" x2="32.7362" y2="116.693" gradientUnits="userSpaceOnUse">
<stop offset="0.143047" stop-color="#CD5600"/>
<stop offset="0.494792" stop-color="#FF8A00"/>
<stop offset="0.854556" stop-color="#CD5600"/>
</linearGradient>
<linearGradient id="paint20_linear_57_412" x1="9.47123" y1="90.4586" x2="36.2928" y2="98.4961" gradientUnits="userSpaceOnUse">
<stop offset="0.143047" stop-color="#CD5600"/>
<stop offset="0.494792" stop-color="#FF8A00"/>
<stop offset="0.854556" stop-color="#CD5600"/>
</linearGradient>
<linearGradient id="paint21_linear_57_412" x1="84.2768" y1="12.6318" x2="93.5199" y2="39.0622" gradientUnits="userSpaceOnUse">
<stop offset="0.143047" stop-color="#CD5600"/>
<stop offset="0.494792" stop-color="#FFA800"/>
<stop offset="0.854556" stop-color="#CD5600"/>
</linearGradient>
<linearGradient id="paint22_linear_57_412" x1="102.328" y1="7.9135" x2="107.047" y2="35.513" gradientUnits="userSpaceOnUse">
<stop offset="0.143047" stop-color="#CD5600"/>
<stop offset="0.494792" stop-color="#FFA800"/>
<stop offset="0.854556" stop-color="#CD5600"/>
</linearGradient>
<linearGradient id="paint23_linear_57_412" x1="123.75" y1="6.06176" x2="123.534" y2="34.0609" gradientUnits="userSpaceOnUse">
<stop offset="0.143047" stop-color="#CD5600"/>
<stop offset="0.494792" stop-color="#FFA800"/>
<stop offset="0.854556" stop-color="#CD5600"/>
</linearGradient>
<linearGradient id="paint24_linear_57_412" x1="144.485" y1="7.93049" x2="139.344" y2="35.4545" gradientUnits="userSpaceOnUse">
<stop offset="0.143047" stop-color="#CD5600"/>
<stop offset="0.494792" stop-color="#FFA800"/>
<stop offset="0.854556" stop-color="#CD5600"/>
</linearGradient>
<linearGradient id="paint25_linear_57_412" x1="166.557" y1="14.1473" x2="156.231" y2="40.1736" gradientUnits="userSpaceOnUse">
<stop offset="0.143047" stop-color="#CD5600"/>
<stop offset="0.494792" stop-color="#FFA800"/>
<stop offset="0.854556" stop-color="#CD5600"/>
</linearGradient>
<linearGradient id="paint26_linear_57_412" x1="183.329" y1="22.2582" x2="169.266" y2="46.4701" gradientUnits="userSpaceOnUse">
<stop offset="0.143047" stop-color="#CD5600"/>
<stop offset="0.494792" stop-color="#FFA800"/>
<stop offset="0.854556" stop-color="#CD5600"/>
</linearGradient>
<linearGradient id="paint27_linear_57_412" x1="196.879" y1="31.4819" x2="179.433" y2="53.3825" gradientUnits="userSpaceOnUse">
<stop offset="0.143047" stop-color="#CD5600"/>
<stop offset="0.494792" stop-color="#FFA800"/>
<stop offset="0.854556" stop-color="#CD5600"/>
</linearGradient>
<linearGradient id="paint28_linear_57_412" x1="214.57" y1="48.6271" x2="193.186" y2="66.7035" gradientUnits="userSpaceOnUse">
<stop offset="0.143047" stop-color="#CD5600"/>
<stop offset="0.494792" stop-color="#FFA800"/>
<stop offset="0.854556" stop-color="#CD5600"/>
</linearGradient>
<linearGradient id="paint29_linear_57_412" x1="232.495" y1="87.1262" x2="210.243" y2="96.1168" gradientUnits="userSpaceOnUse">
<stop offset="0.143047" stop-color="#CD5600"/>
<stop offset="0.494792" stop-color="#FFA800"/>
<stop offset="0.854556" stop-color="#CD5600"/>
</linearGradient>
<linearGradient id="paint30_linear_57_412" x1="90.9541" y1="227.046" x2="114.863" y2="224.954" gradientUnits="userSpaceOnUse">
<stop offset="0.143047" stop-color="#CD5600"/>
<stop offset="0.494792" stop-color="#FF8A00"/>
<stop offset="0.854556" stop-color="#CD5600"/>
</linearGradient>
<linearGradient id="paint31_linear_57_412" x1="36.0534" y1="49.2918" x2="55.4698" y2="63.3986" gradientUnits="userSpaceOnUse">
<stop offset="0.143047" stop-color="#CD5600"/>
<stop offset="0.494792" stop-color="#FFA800"/>
<stop offset="0.854556" stop-color="#CD5600"/>
</linearGradient>
</defs>
</svg>
