<svg width="46" height="45" viewBox="0 0 46 45" fill="none" xmlns="http://www.w3.org/2000/svg">
<g filter="url(#filter0_d_93_194)">
<path d="M25.5 36C34.3365 36 41.5 28.8365 41.5 20C41.5 11.1634 34.3365 4 25.5 4C16.6634 4 9.5 11.1634 9.5 20C9.5 28.8365 16.6634 36 25.5 36Z" fill="url(#paint0_linear_93_194)"/>
<path d="M25.5 36C34.3365 36 41.5 28.8365 41.5 20C41.5 11.1634 34.3365 4 25.5 4C16.6634 4 9.5 11.1634 9.5 20C9.5 28.8365 16.6634 36 25.5 36Z" stroke="url(#paint1_linear_93_194)" stroke-width="1.5" stroke-linecap="round"/>
</g>
<g filter="url(#filter1_d_93_194)">
<path d="M33.1559 18.7746L26.5384 11.456C25.9887 10.848 25.0113 10.848 24.4616 11.456L17.8441 18.7746C17.0635 19.6379 17.697 20.989 18.8824 20.989H19.981C20.743 20.989 21.3608 21.5867 21.3608 22.3241V27.6648C21.3608 28.4022 21.9785 29 22.7405 29H28.2595C29.0215 29 29.6392 28.4022 29.6392 27.6648V22.3241C29.6392 21.5867 30.2569 20.989 31.019 20.989H32.1175C33.303 20.989 33.9366 19.6379 33.1559 18.7746Z" fill="url(#paint2_linear_93_194)"/>
</g>
<defs>
<filter id="filter0_d_93_194" x="0.75" y="3.25" width="41.5" height="41.5" filterUnits="userSpaceOnUse" color-interpolation-filters="sRGB">
<feFlood flood-opacity="0" result="BackgroundImageFix"/>
<feColorMatrix in="SourceAlpha" type="matrix" values="0 0 0 0 0 0 0 0 0 0 0 0 0 0 0 0 0 0 127 0" result="hardAlpha"/>
<feOffset dx="-4" dy="4"/>
<feGaussianBlur stdDeviation="2"/>
<feComposite in2="hardAlpha" operator="out"/>
<feColorMatrix type="matrix" values="0 0 0 0 0 0 0 0 0 0 0 0 0 0 0 0 0 0 0.25 0"/>
<feBlend mode="normal" in2="BackgroundImageFix" result="effect1_dropShadow_93_194"/>
<feBlend mode="normal" in="SourceGraphic" in2="effect1_dropShadow_93_194" result="shape"/>
</filter>
<filter id="filter1_d_93_194" x="14" y="11" width="19.5" height="21.5" filterUnits="userSpaceOnUse" color-interpolation-filters="sRGB">
<feFlood flood-opacity="0" result="BackgroundImageFix"/>
<feColorMatrix in="SourceAlpha" type="matrix" values="0 0 0 0 0 0 0 0 0 0 0 0 0 0 0 0 0 0 127 0" result="hardAlpha"/>
<feOffset dx="-2" dy="2"/>
<feGaussianBlur stdDeviation="0.75"/>
<feComposite in2="hardAlpha" operator="out"/>
<feColorMatrix type="matrix" values="0 0 0 0 0.454902 0 0 0 0 0.105882 0 0 0 0 0.0666667 0 0 0 1 0"/>
<feBlend mode="normal" in2="BackgroundImageFix" result="effect1_dropShadow_93_194"/>
<feBlend mode="normal" in="SourceGraphic" in2="effect1_dropShadow_93_194" result="shape"/>
</filter>
<linearGradient id="paint0_linear_93_194" x1="36.9728" y1="8.1834" x2="15.8049" y2="32.5941" gradientUnits="userSpaceOnUse">
<stop stop-color="#CC5E00"/>
<stop offset="0.245724" stop-color="#EF8426"/>
<stop offset="0.502278" stop-color="#D56320"/>
<stop offset="0.803579" stop-color="#A22814"/>
<stop offset="1" stop-color="#570D0A"/>
</linearGradient>
<linearGradient id="paint1_linear_93_194" x1="25.5" y1="4" x2="25.5" y2="36" gradientUnits="userSpaceOnUse">
<stop stop-color="#DE6D22"/>
<stop offset="0.494792" stop-color="#C04B1B"/>
<stop offset="1" stop-color="#861E11"/>
</linearGradient>
<linearGradient id="paint2_linear_93_194" x1="33.5" y1="19.7738" x2="17.5" y2="19.7738" gradientUnits="userSpaceOnUse">
<stop stop-color="#BA3A10"/>
<stop offset="0.497722" stop-color="#D76D2C"/>
<stop offset="1" stop-color="#F5A049"/>
</linearGradient>
</defs>
</svg>
