<svg width="45" height="46" viewBox="0 0 45 46" fill="none" xmlns="http://www.w3.org/2000/svg">
<g filter="url(#filter0_d_153_2)">
<mask id="path-1-inside-1_153_2" fill="white">
<path d="M25.2528 1.60899C24.8705 1.17255 24.3538 0.957763 23.8132 1.02118C23.5766 1.06383 23.3445 1.13086 23.1362 1.27092C23.0975 1.29699 22.9071 1.47715 22.8883 1.47615C22.8803 1.47572 22.8749 1.46613 22.8681 1.46121C22.4601 1.16471 21.9961 1.06661 21.5236 1.19156C21.0637 1.31316 20.682 1.6279 20.4348 2.08782C20.3986 2.1582 20.3168 2.19107 20.2396 2.17351C19.8524 2.08543 19.4449 2.14923 19.0964 2.37212C18.7626 2.58553 18.499 2.94805 18.396 3.37116C18.383 3.42416 18.3722 3.4763 18.3633 3.52821C18.3226 3.76503 18.1564 3.96604 17.9305 4.0481C17.5744 4.1775 17.273 4.39601 17.0313 4.77937C16.9712 4.89097 16.8424 4.94458 16.7175 4.92279C16.2589 4.8428 15.8338 4.91938 15.4174 5.215C15.2421 5.33945 15.0928 5.50949 14.9717 5.69968C14.9513 5.73165 14.9114 5.74285 14.8737 5.73871C14.3698 5.68336 13.9114 5.77464 13.5026 6.14882C13.2693 6.3623 13.0878 6.63203 12.996 6.95886C12.9856 6.99578 12.9319 7.26621 12.923 7.27429C12.9208 7.27632 12.8517 7.2816 12.8428 7.28254C12.7542 7.2923 12.666 7.30453 12.5785 7.32414C11.972 7.46015 11.3954 7.95859 11.3258 8.70335C11.3055 8.92034 11.3274 9.11707 11.3719 9.31046C11.4318 9.57098 11.3071 9.83848 11.0878 9.99137C10.8649 10.1467 10.6718 10.3553 10.5549 10.626C10.4305 10.914 10.3984 11.1806 10.4223 11.4563C10.4471 11.7435 10.2757 12.022 10.0217 12.1584C9.75497 12.3016 9.51624 12.5145 9.34701 12.7872C9.16138 13.0863 9.05966 13.4868 9.11774 13.8522C9.12082 13.8716 9.1243 13.8908 9.12813 13.91C9.17412 14.1401 9.09526 14.3791 8.93311 14.5486C8.7392 14.7514 8.59157 15.0077 8.51585 15.3021C8.40904 15.7173 8.46461 16.1584 8.64937 16.5342C8.72093 16.6617 8.72254 16.815 8.67075 16.9517C8.54468 17.2844 8.50474 17.6242 8.59832 17.9971C8.71338 18.4558 8.99499 18.8689 9.36231 19.0967L9.36585 19.0985C9.56921 19.2013 9.67392 19.4283 9.64756 19.6546C9.59066 20.1432 9.62359 20.6775 9.83949 21.0919C10.0456 21.4875 10.3825 21.7647 10.7725 21.8769C10.8957 21.9124 11.0191 21.9199 11.1456 21.9253C11.1821 21.9268 11.2697 21.9161 11.3001 21.9281C11.3611 21.952 11.4645 22.0839 11.5252 22.1319C11.7881 22.3396 12.1034 22.4434 12.4187 22.4305C12.6073 22.4227 12.8003 22.4713 12.9406 22.5975C13.3374 22.9546 13.7811 23.163 14.3138 23.1422C14.603 23.1308 14.8848 23.0368 15.1351 22.8713C15.2392 22.8025 15.3307 22.7165 15.422 22.6279C15.4396 22.6109 15.5544 22.488 15.5717 22.489C15.6114 22.4913 15.6844 22.5324 15.7255 22.5463C15.812 22.5757 15.9011 22.592 15.9903 22.6067C16.3856 22.6719 16.8374 22.7226 17.1901 22.6128C17.4995 22.5166 17.9202 22.4241 18.2041 22.5802C18.6894 22.8471 19.4998 23.1732 20.598 23.204C20.7075 23.207 20.8142 23.2423 20.9013 23.3087L24.2499 25.8616C24.4572 26.0197 24.7512 25.9919 24.9253 25.7978L27.1514 23.315C27.2462 23.2092 27.3822 23.1491 27.5243 23.1477C28.9717 23.1331 29.5011 22.9734 29.7793 22.6992C29.9467 22.5341 30.1698 22.4141 30.3965 22.4765L30.5464 22.5178C30.8727 22.5957 31.2154 22.6306 31.5471 22.5854C31.6604 22.57 31.7699 22.5319 31.8774 22.489C31.9102 22.4759 31.9985 22.4236 32.0287 22.424C32.0488 22.4242 32.2631 22.6272 32.316 22.6602C33.0903 23.1428 34.0913 23.0975 34.8288 22.5412L34.8692 22.5048C35.0071 22.3809 35.2011 22.3488 35.3825 22.3872C35.7382 22.4627 36.1098 22.4376 36.4393 22.2482C36.591 22.1611 36.7229 22.03 36.8367 21.8874C36.8646 21.8525 36.9589 21.6819 36.9825 21.67C36.9964 21.663 37.0116 21.6802 37.0262 21.6851C37.1522 21.7271 37.284 21.7448 37.415 21.7523C38.3159 21.8038 39.1543 21.1721 39.4337 20.1891C39.5444 19.7998 39.5605 19.401 39.5163 19.0049C39.4874 18.746 39.64 18.5012 39.8589 18.36C40.0664 18.2262 40.2396 18.0394 40.3694 17.7832C40.5225 17.4808 40.5674 17.0944 40.4867 16.7559C40.4583 16.6367 40.4182 16.5189 40.37 16.4085C40.3555 16.3754 40.286 16.2622 40.2849 16.2384C40.2842 16.2239 40.3344 16.1299 40.3442 16.1081C40.5508 15.65 40.6364 15.1868 40.4614 14.6932C40.3254 14.3096 40.0761 14.0458 39.8059 13.7838C39.7671 13.7462 39.7037 13.7132 39.7274 13.6524C39.8544 13.3269 39.8663 12.9032 39.7512 12.5707C39.5791 12.0738 39.2261 11.7973 38.8105 11.5955C38.6798 11.5321 38.5449 11.4841 38.4079 11.444C38.2123 11.3868 38.0662 11.2264 38.0002 11.0336C37.9369 10.8485 37.8479 10.6794 37.741 10.5216C37.6163 10.3377 37.5995 10.0999 37.6921 9.89788C37.8194 9.62021 37.8841 9.32377 37.8389 8.98499C37.7744 8.50218 37.5379 8.13285 37.1954 7.85101C36.9031 7.61054 36.5415 7.48308 36.1855 7.44781C36.1369 7.443 35.9585 7.44371 35.942 7.40183C35.7391 6.8848 35.2083 6.53425 34.7633 6.34336C34.5801 6.26475 34.3944 6.22587 34.204 6.18324C34.182 6.17831 34.1675 6.15737 34.1705 6.13504C34.1962 5.93812 34.1906 5.75117 34.1616 5.55543C34.0958 5.11203 33.9139 4.7341 33.5894 4.46988C33.3785 4.2982 33.1427 4.18277 32.8871 4.133C32.7625 4.10879 32.6362 4.10062 32.5101 4.09367C32.4876 4.09242 32.3861 4.09738 32.3707 4.08675C32.3655 4.0832 32.3341 3.98175 32.3296 3.96933C32.2963 3.87761 32.2578 3.79222 32.2121 3.70785C31.7872 2.92277 30.9519 2.64266 30.1852 2.79945C30.1493 2.8068 30.1139 2.81575 30.079 2.82608C29.86 2.89096 29.6202 2.84996 29.4313 2.72148C29.1632 2.53919 28.861 2.46416 28.5251 2.46617C28.4232 2.46677 28.33 2.479 28.239 2.4969C28.0131 2.54133 27.7901 2.43921 27.6554 2.25254C27.4204 1.92695 27.1163 1.69246 26.7413 1.5792C26.443 1.4891 26.1144 1.50111 25.8154 1.5835C25.5565 1.65489 25.3931 1.78597 25.3901 1.7849C25.3727 1.77876 25.2744 1.63357 25.2528 1.60899Z"/>
</mask>
<path d="M25.2528 1.60899C24.8705 1.17255 24.3538 0.957763 23.8132 1.02118C23.5766 1.06383 23.3445 1.13086 23.1362 1.27092C23.0975 1.29699 22.9071 1.47715 22.8883 1.47615C22.8803 1.47572 22.8749 1.46613 22.8681 1.46121C22.4601 1.16471 21.9961 1.06661 21.5236 1.19156C21.0637 1.31316 20.682 1.6279 20.4348 2.08782C20.3986 2.1582 20.3168 2.19107 20.2396 2.17351C19.8524 2.08543 19.4449 2.14923 19.0964 2.37212C18.7626 2.58553 18.499 2.94805 18.396 3.37116C18.383 3.42416 18.3722 3.4763 18.3633 3.52821C18.3226 3.76503 18.1564 3.96604 17.9305 4.0481C17.5744 4.1775 17.273 4.39601 17.0313 4.77937C16.9712 4.89097 16.8424 4.94458 16.7175 4.92279C16.2589 4.8428 15.8338 4.91938 15.4174 5.215C15.2421 5.33945 15.0928 5.50949 14.9717 5.69968C14.9513 5.73165 14.9114 5.74285 14.8737 5.73871C14.3698 5.68336 13.9114 5.77464 13.5026 6.14882C13.2693 6.3623 13.0878 6.63203 12.996 6.95886C12.9856 6.99578 12.9319 7.26621 12.923 7.27429C12.9208 7.27632 12.8517 7.2816 12.8428 7.28254C12.7542 7.2923 12.666 7.30453 12.5785 7.32414C11.972 7.46015 11.3954 7.95859 11.3258 8.70335C11.3055 8.92034 11.3274 9.11707 11.3719 9.31046C11.4318 9.57098 11.3071 9.83848 11.0878 9.99137C10.8649 10.1467 10.6718 10.3553 10.5549 10.626C10.4305 10.914 10.3984 11.1806 10.4223 11.4563C10.4471 11.7435 10.2757 12.022 10.0217 12.1584C9.75497 12.3016 9.51624 12.5145 9.34701 12.7872C9.16138 13.0863 9.05966 13.4868 9.11774 13.8522C9.12082 13.8716 9.1243 13.8908 9.12813 13.91C9.17412 14.1401 9.09526 14.3791 8.93311 14.5486C8.7392 14.7514 8.59157 15.0077 8.51585 15.3021C8.40904 15.7173 8.46461 16.1584 8.64937 16.5342C8.72093 16.6617 8.72254 16.815 8.67075 16.9517C8.54468 17.2844 8.50474 17.6242 8.59832 17.9971C8.71338 18.4558 8.99499 18.8689 9.36231 19.0967L9.36585 19.0985C9.56921 19.2013 9.67392 19.4283 9.64756 19.6546C9.59066 20.1432 9.62359 20.6775 9.83949 21.0919C10.0456 21.4875 10.3825 21.7647 10.7725 21.8769C10.8957 21.9124 11.0191 21.9199 11.1456 21.9253C11.1821 21.9268 11.2697 21.9161 11.3001 21.9281C11.3611 21.952 11.4645 22.0839 11.5252 22.1319C11.7881 22.3396 12.1034 22.4434 12.4187 22.4305C12.6073 22.4227 12.8003 22.4713 12.9406 22.5975C13.3374 22.9546 13.7811 23.163 14.3138 23.1422C14.603 23.1308 14.8848 23.0368 15.1351 22.8713C15.2392 22.8025 15.3307 22.7165 15.422 22.6279C15.4396 22.6109 15.5544 22.488 15.5717 22.489C15.6114 22.4913 15.6844 22.5324 15.7255 22.5463C15.812 22.5757 15.9011 22.592 15.9903 22.6067C16.3856 22.6719 16.8374 22.7226 17.1901 22.6128C17.4995 22.5166 17.9202 22.4241 18.2041 22.5802C18.6894 22.8471 19.4998 23.1732 20.598 23.204C20.7075 23.207 20.8142 23.2423 20.9013 23.3087L24.2499 25.8616C24.4572 26.0197 24.7512 25.9919 24.9253 25.7978L27.1514 23.315C27.2462 23.2092 27.3822 23.1491 27.5243 23.1477C28.9717 23.1331 29.5011 22.9734 29.7793 22.6992C29.9467 22.5341 30.1698 22.4141 30.3965 22.4765L30.5464 22.5178C30.8727 22.5957 31.2154 22.6306 31.5471 22.5854C31.6604 22.57 31.7699 22.5319 31.8774 22.489C31.9102 22.4759 31.9985 22.4236 32.0287 22.424C32.0488 22.4242 32.2631 22.6272 32.316 22.6602C33.0903 23.1428 34.0913 23.0975 34.8288 22.5412L34.8692 22.5048C35.0071 22.3809 35.2011 22.3488 35.3825 22.3872C35.7382 22.4627 36.1098 22.4376 36.4393 22.2482C36.591 22.1611 36.7229 22.03 36.8367 21.8874C36.8646 21.8525 36.9589 21.6819 36.9825 21.67C36.9964 21.663 37.0116 21.6802 37.0262 21.6851C37.1522 21.7271 37.284 21.7448 37.415 21.7523C38.3159 21.8038 39.1543 21.1721 39.4337 20.1891C39.5444 19.7998 39.5605 19.401 39.5163 19.0049C39.4874 18.746 39.64 18.5012 39.8589 18.36C40.0664 18.2262 40.2396 18.0394 40.3694 17.7832C40.5225 17.4808 40.5674 17.0944 40.4867 16.7559C40.4583 16.6367 40.4182 16.5189 40.37 16.4085C40.3555 16.3754 40.286 16.2622 40.2849 16.2384C40.2842 16.2239 40.3344 16.1299 40.3442 16.1081C40.5508 15.65 40.6364 15.1868 40.4614 14.6932C40.3254 14.3096 40.0761 14.0458 39.8059 13.7838C39.7671 13.7462 39.7037 13.7132 39.7274 13.6524C39.8544 13.3269 39.8663 12.9032 39.7512 12.5707C39.5791 12.0738 39.2261 11.7973 38.8105 11.5955C38.6798 11.5321 38.5449 11.4841 38.4079 11.444C38.2123 11.3868 38.0662 11.2264 38.0002 11.0336C37.9369 10.8485 37.8479 10.6794 37.741 10.5216C37.6163 10.3377 37.5995 10.0999 37.6921 9.89788C37.8194 9.62021 37.8841 9.32377 37.8389 8.98499C37.7744 8.50218 37.5379 8.13285 37.1954 7.85101C36.9031 7.61054 36.5415 7.48308 36.1855 7.44781C36.1369 7.443 35.9585 7.44371 35.942 7.40183C35.7391 6.8848 35.2083 6.53425 34.7633 6.34336C34.5801 6.26475 34.3944 6.22587 34.204 6.18324C34.182 6.17831 34.1675 6.15737 34.1705 6.13504C34.1962 5.93812 34.1906 5.75117 34.1616 5.55543C34.0958 5.11203 33.9139 4.7341 33.5894 4.46988C33.3785 4.2982 33.1427 4.18277 32.8871 4.133C32.7625 4.10879 32.6362 4.10062 32.5101 4.09367C32.4876 4.09242 32.3861 4.09738 32.3707 4.08675C32.3655 4.0832 32.3341 3.98175 32.3296 3.96933C32.2963 3.87761 32.2578 3.79222 32.2121 3.70785C31.7872 2.92277 30.9519 2.64266 30.1852 2.79945C30.1493 2.8068 30.1139 2.81575 30.079 2.82608C29.86 2.89096 29.6202 2.84996 29.4313 2.72148C29.1632 2.53919 28.861 2.46416 28.5251 2.46617C28.4232 2.46677 28.33 2.479 28.239 2.4969C28.0131 2.54133 27.7901 2.43921 27.6554 2.25254C27.4204 1.92695 27.1163 1.69246 26.7413 1.5792C26.443 1.4891 26.1144 1.50111 25.8154 1.5835C25.5565 1.65489 25.3931 1.78597 25.3901 1.7849C25.3727 1.77876 25.2744 1.63357 25.2528 1.60899Z" fill="#7AE800"/>
<path d="M23.8132 1.02118L23.6967 0.0279898C23.6763 0.0303825 23.6559 0.0334032 23.6357 0.0370475L23.8132 1.02118ZM25.2528 1.60899L24.5006 2.2679L24.5007 2.26804L25.2528 1.60899ZM25.3901 1.7849L25.057 2.7278L25.0582 2.72822L25.3901 1.7849ZM25.8154 1.5835L25.5497 0.619447L25.5497 0.619455L25.8154 1.5835ZM26.7413 1.5792L26.4521 2.53648L26.4521 2.53648L26.7413 1.5792ZM27.6554 2.25254L28.4663 1.66734L28.4663 1.66733L27.6554 2.25254ZM28.239 2.4969L28.432 3.4781L28.432 3.4781L28.239 2.4969ZM28.5251 2.46617L28.531 3.46615L28.531 3.46615L28.5251 2.46617ZM29.4313 2.72148L29.9936 1.89455V1.89455L29.4313 2.72148ZM30.079 2.82608L29.7951 1.86723L29.7951 1.86724L30.079 2.82608ZM30.1852 2.79945L30.3856 3.77917L30.3856 3.77917L30.1852 2.79945ZM32.2121 3.70785L31.3326 4.18379L31.3327 4.18409L32.2121 3.70785ZM32.3296 3.96933L33.2695 3.62787L33.2695 3.62783L32.3296 3.96933ZM32.3707 4.08675L32.9391 3.26398L32.9379 3.26319L32.3707 4.08675ZM32.5101 4.09367L32.4547 5.09213L32.455 5.09215L32.5101 4.09367ZM32.8871 4.133L33.0782 3.15144L33.0779 3.15138L32.8871 4.133ZM33.5894 4.46988L32.9579 5.2453L32.958 5.24537L33.5894 4.46988ZM34.1616 5.55543L35.1508 5.40878L35.1508 5.40864L34.1616 5.55543ZM34.1705 6.13504L35.1616 6.26815L35.1621 6.2643L34.1705 6.13504ZM34.204 6.18324L33.9855 7.15907L33.9855 7.15907L34.204 6.18324ZM34.7633 6.34336L35.1576 5.42435L35.1575 5.42433L34.7633 6.34336ZM35.942 7.40183L35.0111 7.76713L35.0112 7.76726L35.942 7.40183ZM36.1855 7.44781L36.2841 6.45268L36.2839 6.45266L36.1855 7.44781ZM37.1954 7.85101L36.56 8.6232L36.56 8.62323L37.1954 7.85101ZM37.8389 8.98499L38.8301 8.85261L38.8301 8.85258L37.8389 8.98499ZM37.6921 9.89788L38.6011 10.3146L38.6011 10.3146L37.6921 9.89788ZM37.741 10.5216L38.5688 9.96067L38.5688 9.96066L37.741 10.5216ZM38.0002 11.0336L38.9463 10.7097L38.9463 10.7097L38.0002 11.0336ZM38.4079 11.444L38.1273 12.4038L38.4079 11.444ZM38.8105 11.5955L39.2473 10.6959L39.2471 10.6959L38.8105 11.5955ZM39.7512 12.5707L38.8062 12.8979L38.8062 12.8979L39.7512 12.5707ZM39.7274 13.6524L38.7958 13.2889L38.7957 13.2891L39.7274 13.6524ZM39.8059 13.7838L39.1097 14.5017L39.1098 14.5017L39.8059 13.7838ZM40.4614 14.6932L41.4039 14.359L41.4039 14.359L40.4614 14.6932ZM40.3442 16.1081L39.4326 15.697L39.4326 15.6971L40.3442 16.1081ZM40.2849 16.2384L41.2838 16.1912L41.2838 16.191L40.2849 16.2384ZM40.37 16.4085L41.2865 16.0085L41.2863 16.0081L40.37 16.4085ZM40.4867 16.7559L39.5139 16.9875L39.514 16.9877L40.4867 16.7559ZM40.3694 17.7832L39.4772 17.3314L39.4772 17.3315L40.3694 17.7832ZM39.8589 18.36L39.317 17.5197H39.317L39.8589 18.36ZM39.5163 19.0049L40.5101 18.8939V18.8939L39.5163 19.0049ZM39.4337 20.1891L38.4719 19.9156L38.4719 19.9156L39.4337 20.1891ZM37.415 21.7523L37.3578 22.7506H37.3578L37.415 21.7523ZM37.0262 21.6851L36.7096 22.6337L36.7101 22.6338L37.0262 21.6851ZM36.9825 21.67L37.4336 22.5625L37.4336 22.5625L36.9825 21.67ZM36.8367 21.8874L36.0553 21.2634L36.0553 21.2634L36.8367 21.8874ZM36.4393 22.2482L36.9375 23.1153L36.9376 23.1153L36.4393 22.2482ZM35.3825 22.3872L35.5899 21.409L35.5899 21.409L35.3825 22.3872ZM34.8692 22.5048L35.5379 23.2484L35.5379 23.2484L34.8692 22.5048ZM34.8288 22.5412L35.431 23.3395C35.4539 23.3222 35.4761 23.304 35.4974 23.2848L34.8288 22.5412ZM32.316 22.6602L31.7869 23.5088L31.7871 23.5089L32.316 22.6602ZM32.0287 22.424L32.0157 23.4239L32.017 23.4239L32.0287 22.424ZM31.8774 22.489L32.2479 23.4178L32.2484 23.4176L31.8774 22.489ZM31.5471 22.5854L31.4122 21.5945L31.412 21.5945L31.5471 22.5854ZM30.5464 22.5178L30.2811 23.4819C30.2921 23.485 30.3032 23.4878 30.3143 23.4905L30.5464 22.5178ZM30.3965 22.4765L30.6619 21.5124H30.6619L30.3965 22.4765ZM29.7793 22.6992L30.4813 23.4113L30.4813 23.4113L29.7793 22.6992ZM27.5243 23.1477L27.5343 24.1476L27.5243 23.1477ZM20.598 23.204L20.57 24.2036H20.57L20.598 23.204ZM18.2041 22.5802L17.7222 23.4564L17.7222 23.4565L18.2041 22.5802ZM17.1901 22.6128L16.8929 21.658L16.8929 21.658L17.1901 22.6128ZM15.9903 22.6067L16.1531 21.62L16.1529 21.62L15.9903 22.6067ZM15.7255 22.5463L15.4038 23.4932H15.4038L15.7255 22.5463ZM15.5717 22.489L15.5131 23.4873L15.5147 23.4874L15.5717 22.489ZM15.422 22.6279L14.726 21.9099L14.7259 21.91L15.422 22.6279ZM15.1351 22.8713L14.5837 22.0371L14.5837 22.0371L15.1351 22.8713ZM14.3138 23.1422L14.3529 24.1414L14.353 24.1414L14.3138 23.1422ZM12.9406 22.5975L13.6095 21.8541L13.6095 21.8541L12.9406 22.5975ZM12.4187 22.4305L12.4596 23.4296H12.4596L12.4187 22.4305ZM11.5252 22.1319L12.1453 21.3473L12.1449 21.347L11.5252 22.1319ZM11.3001 21.9281L10.9341 22.8587L10.935 22.859L11.3001 21.9281ZM11.1456 21.9253L11.1883 20.9262L11.1878 20.9262L11.1456 21.9253ZM10.7725 21.8769L11.0492 20.9159L11.0491 20.9159L10.7725 21.8769ZM9.83949 21.0919L8.95263 21.5539L8.95264 21.554L9.83949 21.0919ZM9.64756 19.6546L10.6409 19.7703L9.64756 19.6546ZM9.36585 19.0985L8.91468 19.9909L8.91476 19.991L9.36585 19.0985ZM9.36231 19.0967L8.83524 19.9465C8.85991 19.9618 8.88523 19.9761 8.91114 19.9892L9.36231 19.0967ZM8.59832 17.9971L7.62837 18.2405L7.62838 18.2405L8.59832 17.9971ZM8.67075 16.9517L9.60587 17.3061L9.60587 17.3061L8.67075 16.9517ZM8.64937 16.5342L7.75196 16.9754C7.75999 16.9917 7.76846 17.0078 7.77736 17.0237L8.64937 16.5342ZM8.51585 15.3021L9.48433 15.5512L9.48433 15.5512L8.51585 15.3021ZM8.93311 14.5486L8.21041 13.8575L8.21041 13.8575L8.93311 14.5486ZM9.12813 13.91L8.14753 14.106L8.14753 14.106L9.12813 13.91ZM9.11774 13.8522L8.13014 14.0092L8.13014 14.0092L9.11774 13.8522ZM9.34701 12.7872L10.1967 13.3145L10.1967 13.3145L9.34701 12.7872ZM10.0217 12.1584L10.4948 13.0394L10.4948 13.0394L10.0217 12.1584ZM10.4223 11.4563L11.4186 11.3701H11.4186L10.4223 11.4563ZM10.5549 10.626L9.63686 10.2295L9.63684 10.2295L10.5549 10.626ZM11.0878 9.99137L10.5159 9.17106L10.5159 9.17106L11.0878 9.99137ZM11.3719 9.31046L12.3464 9.08637L12.3464 9.08637L11.3719 9.31046ZM11.3258 8.70335L10.3301 8.61032L10.3301 8.6104L11.3258 8.70335ZM12.5785 7.32414L12.7973 8.2999L12.7974 8.2999L12.5785 7.32414ZM12.8428 7.28254L12.7375 6.28809L12.7334 6.28855L12.8428 7.28254ZM12.923 7.27429L12.25 6.5346L12.2425 6.54155L12.923 7.27429ZM12.996 6.95886L12.0332 6.68843L12.0331 6.68874L12.996 6.95886ZM13.5026 6.14882L14.1777 6.8865L14.1777 6.88649L13.5026 6.14882ZM14.8737 5.73871L14.7645 6.73273L14.7645 6.73273L14.8737 5.73871ZM14.9717 5.69968L15.815 6.23719L15.8152 6.23676L14.9717 5.69968ZM15.4174 5.215L15.9963 6.03041L15.9963 6.0304L15.4174 5.215ZM16.7175 4.92279L16.5457 5.90792H16.5457L16.7175 4.92279ZM17.0313 4.77937L16.1854 4.24605C16.1733 4.26523 16.1619 4.28482 16.1511 4.30477L17.0313 4.77937ZM17.9305 4.0481L18.272 4.98799L18.272 4.98799L17.9305 4.0481ZM18.3633 3.52821L17.3777 3.3588L18.3633 3.52821ZM18.396 3.37116L17.4244 3.13452L17.4243 3.13458L18.396 3.37116ZM19.0964 2.37212L19.6351 3.21463L19.6351 3.21461L19.0964 2.37212ZM20.2396 2.17351L20.0178 3.1486H20.0178L20.2396 2.17351ZM20.4348 2.08782L19.554 1.61441C19.5513 1.61943 19.5486 1.62448 19.546 1.62956L20.4348 2.08782ZM21.5236 1.19156L21.2679 0.224784L21.2679 0.224784L21.5236 1.19156ZM22.8681 1.46121L23.456 0.652267L23.456 0.652236L22.8681 1.46121ZM22.8883 1.47615L22.8347 2.47471L22.8348 2.47472L22.8883 1.47615ZM23.1362 1.27092L22.5782 0.441082L22.5779 0.441306L23.1362 1.27092ZM20.9013 23.3087L21.5076 22.5135L21.5076 22.5135L20.9013 23.3087ZM24.2499 25.8616L23.6436 26.6569L23.6436 26.6569L24.2499 25.8616ZM24.9253 25.7978L24.1807 25.1302L24.1807 25.1302L24.9253 25.7978ZM27.1514 23.315L27.8959 23.9826L27.8959 23.9826L27.1514 23.315ZM23.9296 2.01437C24.1112 1.99308 24.3129 2.05366 24.5006 2.2679L26.0051 0.950085C25.4281 0.291444 24.5965 -0.0775509 23.6967 0.0279898L23.9296 2.01437ZM24.5007 2.26804C24.4861 2.25136 24.4759 2.2385 24.473 2.23483C24.469 2.22973 24.4665 2.22644 24.4663 2.2261C24.4659 2.22565 24.4677 2.22797 24.4731 2.23536C24.4783 2.2425 24.503 2.27667 24.5168 2.2955C24.5327 2.31716 24.5589 2.35252 24.5864 2.3866C24.5989 2.4021 24.6242 2.43296 24.6566 2.46688C24.6721 2.48319 24.7026 2.51429 24.7439 2.54889C24.765 2.56654 24.798 2.59274 24.8408 2.62074C24.8793 2.64592 24.954 2.69142 25.057 2.7278L25.7232 0.841989C25.8251 0.877989 25.8986 0.922832 25.9357 0.947098C25.9771 0.974188 26.0085 0.999227 26.0279 1.01547C26.0659 1.04725 26.0925 1.07458 26.1036 1.08629C26.1272 1.111 26.1418 1.12932 26.1423 1.12996C26.1458 1.13433 26.1428 1.1307 26.1292 1.11222C26.1136 1.09091 26.1086 1.08379 26.0888 1.05661C26.0817 1.04683 26.0721 1.03373 26.0621 1.02061C26.0569 1.01371 26.0339 0.982962 26.0049 0.949943L24.5007 2.26804ZM25.0582 2.72822C25.3013 2.81374 25.506 2.77996 25.5648 2.76954C25.6479 2.75479 25.7111 2.73257 25.7414 2.7212C25.804 2.69772 25.8503 2.67301 25.8652 2.66498C25.9012 2.64555 25.9285 2.62786 25.934 2.62432C25.9505 2.61372 25.9651 2.60353 25.9655 2.60328C25.9743 2.59724 25.9748 2.59689 25.978 2.59473C25.9821 2.59196 25.9889 2.58755 25.9986 2.58208C26.0199 2.57003 26.0492 2.55637 26.0812 2.54755L25.5497 0.619455C25.3227 0.682016 25.1408 0.769591 25.015 0.840657C24.9511 0.876753 24.9003 0.909367 24.8649 0.933106C24.8483 0.944204 24.8335 0.954471 24.8318 0.955672C24.8269 0.959041 24.8375 0.951629 24.8511 0.942866C24.8551 0.940252 24.8813 0.923246 24.9166 0.904255C24.9311 0.896443 24.9769 0.871883 25.0393 0.848501C25.0695 0.837174 25.1326 0.814985 25.2156 0.800259C25.2586 0.79264 25.3222 0.784212 25.3996 0.784947C25.475 0.785664 25.5902 0.795221 25.722 0.841569L25.0582 2.72822ZM26.0811 2.54756C26.2334 2.5056 26.3665 2.51062 26.4521 2.53648L27.0305 0.621918C26.5196 0.46759 25.9954 0.496626 25.5497 0.619447L26.0811 2.54756ZM26.4521 2.53648C26.5898 2.57805 26.7201 2.66544 26.8445 2.83774L28.4663 1.66733C28.1207 1.18847 27.6427 0.806865 27.0305 0.621915L26.4521 2.53648ZM28.432 3.4781C28.4792 3.46882 28.5078 3.46629 28.531 3.46615L28.5191 1.46618C28.3386 1.46726 28.1808 1.48917 28.046 1.5157L28.432 3.4781ZM28.531 3.46615C28.7064 3.4651 28.8001 3.50156 28.8689 3.54841L29.9936 1.89455C29.5263 1.57682 29.0156 1.46322 28.5191 1.46618L28.531 3.46615ZM30.363 3.78493C30.3722 3.78218 30.3797 3.78038 30.3856 3.77917L29.9849 1.81972C29.9189 1.83321 29.8556 1.84931 29.7951 1.86723L30.363 3.78493ZM30.3856 3.77917C30.7925 3.69596 31.1503 3.84702 31.3326 4.18379L33.0915 3.23191C32.4241 1.99852 31.1114 1.58936 29.9849 1.81972L30.3856 3.77917ZM31.3327 4.18409C31.3552 4.22552 31.3734 4.2659 31.3897 4.31083L33.2695 3.62783C33.2192 3.48933 33.1603 3.35893 33.0914 3.2316L31.3327 4.18409ZM31.3897 4.31079C31.3829 4.29211 31.3777 4.27544 31.3858 4.30025C31.3892 4.31083 31.3948 4.32822 31.4006 4.34581C31.4058 4.36146 31.4144 4.38719 31.4238 4.41287C31.4278 4.42372 31.4373 4.44939 31.4503 4.47923C31.4559 4.49225 31.4704 4.52511 31.492 4.56473C31.5025 4.58394 31.5238 4.62152 31.5552 4.66574C31.5713 4.6884 31.5964 4.72166 31.6303 4.75904C31.6617 4.79352 31.7193 4.85235 31.8035 4.91032L32.9379 3.26319C33.0219 3.32105 33.0794 3.37972 33.1105 3.414C33.1443 3.45117 33.1691 3.48418 33.185 3.50654C33.2161 3.55016 33.2368 3.58698 33.2468 3.60524C33.2675 3.64298 33.2807 3.67329 33.285 3.68316C33.2952 3.70673 33.3014 3.72379 33.3016 3.72444C33.3035 3.72971 33.3031 3.72864 33.2992 3.71693C33.2959 3.70716 33.2925 3.69663 33.2886 3.68459C33.287 3.67938 33.2847 3.67249 33.2827 3.66638C33.2825 3.66584 33.2765 3.64714 33.2695 3.62787L31.3897 4.31079ZM31.8023 4.90953C31.907 4.98184 32.0021 5.018 32.0496 5.03431C32.1035 5.05284 32.1492 5.06348 32.1785 5.06951C32.2361 5.08137 32.2841 5.0862 32.309 5.08837C32.361 5.0929 32.4072 5.09351 32.4296 5.09369C32.4554 5.0939 32.4806 5.0936 32.4905 5.09351C32.5211 5.09322 32.4901 5.0941 32.4547 5.09213L32.5655 3.0952C32.5332 3.09341 32.5055 3.09345 32.4992 3.09345C32.4883 3.09344 32.4774 3.09354 32.4714 3.0936C32.4555 3.09375 32.4501 3.09379 32.4458 3.09376C32.4381 3.0937 32.4547 3.09348 32.4826 3.09592C32.4954 3.09704 32.5328 3.1005 32.5818 3.1106C32.6068 3.11574 32.6487 3.1254 32.6995 3.14283C32.7437 3.15804 32.8363 3.193 32.9391 3.26398L31.8023 4.90953ZM32.455 5.09215C32.5832 5.09922 32.6468 5.10502 32.6962 5.11463L33.0779 3.15138C32.8782 3.11255 32.6891 3.10202 32.5652 3.09519L32.455 5.09215ZM32.696 5.11457C32.775 5.12997 32.8623 5.16741 32.9579 5.2453L34.2208 3.69446C33.8948 3.42899 33.5103 3.23557 33.0782 3.15144L32.696 5.11457ZM32.958 5.24537C33.0454 5.31649 33.1341 5.44372 33.1724 5.70221L35.1508 5.40864C35.0575 4.78033 34.7824 4.15171 34.2207 3.69439L32.958 5.24537ZM33.1724 5.70207C33.1899 5.82025 33.1909 5.91341 33.1789 6.00577L35.1621 6.2643C35.2014 5.96283 35.1913 5.68209 35.1508 5.40878L33.1724 5.70207ZM33.9855 7.15907C34.2021 7.20757 34.2884 7.22776 34.3691 7.26238L35.1575 5.42433C34.8717 5.30173 34.5867 5.24417 34.4225 5.2074L33.9855 7.15907ZM34.3691 7.26236C34.5261 7.32974 34.6832 7.41956 34.8074 7.52196C34.9332 7.62565 34.9895 7.7121 35.0111 7.76713L36.8729 7.03654C36.5214 6.14073 35.6804 5.64865 35.1576 5.42435L34.3691 7.26236ZM35.0112 7.76726C35.1254 8.05814 35.3349 8.20859 35.4341 8.26913C35.5428 8.33547 35.6416 8.36857 35.6947 8.3844C35.8029 8.41661 35.9002 8.4282 35.945 8.43301C35.9994 8.43885 36.0489 8.44163 36.0763 8.44308C36.1263 8.44574 36.1051 8.44474 36.0871 8.44296L36.2839 6.45266C36.2537 6.44967 36.2259 6.44818 36.2163 6.44766C36.2097 6.4473 36.1834 6.44595 36.1823 6.44589C36.162 6.44482 36.1568 6.44425 36.1584 6.44443C36.1599 6.44459 36.169 6.44557 36.1833 6.44805C36.1961 6.45024 36.2259 6.45578 36.2656 6.46762C36.2989 6.47754 36.3807 6.50379 36.4763 6.56214C36.5624 6.61468 36.7628 6.75599 36.8729 7.0364L35.0112 7.76726ZM36.0869 8.44294C36.2811 8.46218 36.4459 8.52933 36.56 8.6232L37.8308 7.07883C37.3604 6.69175 36.8019 6.50398 36.2841 6.45268L36.0869 8.44294ZM36.56 8.62323C36.7324 8.76504 36.8207 8.91555 36.8477 9.1174L38.8301 8.85258C38.7281 8.08881 38.3435 7.50066 37.8307 7.07879L36.56 8.62323ZM36.8477 9.11738C36.8636 9.23654 36.8465 9.34265 36.783 9.48119L38.6011 10.3146C38.7922 9.89777 38.9047 9.411 38.8301 8.85261L36.8477 9.11738ZM36.9131 11.0825C36.9781 11.1785 37.0237 11.2685 37.0541 11.3574L38.9463 10.7097C38.85 10.4284 38.7177 10.1804 38.5688 9.96067L36.9131 11.0825ZM38.1273 12.4038C38.2283 12.4334 38.3076 12.463 38.3739 12.4952L39.2471 10.6959C39.052 10.6012 38.8615 10.5348 38.6886 10.4842L38.1273 12.4038ZM38.3738 12.4951C38.5233 12.5677 38.616 12.6322 38.6768 12.6911C38.7307 12.7432 38.7737 12.804 38.8062 12.8979L40.6962 12.2436C40.4049 11.4021 39.7941 10.9614 39.2473 10.6959L38.3738 12.4951ZM38.8062 12.8979C38.8416 13.0001 38.8387 13.179 38.7958 13.2889L40.659 14.0159C40.8702 13.4747 40.8909 12.8062 40.6961 12.2436L38.8062 12.8979ZM38.7957 13.2891C38.7183 13.4877 38.6966 13.7173 38.7571 13.9475C38.8125 14.1582 38.9193 14.3027 38.986 14.3799C39.0503 14.4545 39.1138 14.5073 39.1276 14.5191C39.1624 14.5485 39.1318 14.5231 39.1097 14.5017L40.5021 13.066C40.4759 13.0406 40.4531 13.0208 40.4408 13.0103C40.4343 13.0047 40.4286 12.9999 40.4255 12.9973C40.4214 12.9938 40.421 12.9935 40.4202 12.9928C40.412 12.9859 40.4539 13.0196 40.5005 13.0736C40.5493 13.1303 40.6424 13.2528 40.6914 13.4391C40.7455 13.6448 40.7247 13.8475 40.6591 14.0157L38.7957 13.2891ZM39.1098 14.5017C39.3697 14.7538 39.4665 14.8796 39.5189 15.0273L41.4039 14.359C41.1843 13.7395 40.7825 13.3378 40.502 13.0659L39.1098 14.5017ZM39.5189 15.0273C39.5786 15.1957 39.5754 15.3803 39.4326 15.697L41.2558 16.5191C41.5262 15.9196 41.6942 15.1779 41.4039 14.359L39.5189 15.0273ZM39.4326 15.6971C39.4408 15.6788 39.4478 15.6655 39.4368 15.6873C39.4317 15.6975 39.4217 15.7174 39.4119 15.7375C39.4032 15.7553 39.3875 15.7878 39.3724 15.8234C39.3653 15.84 39.3515 15.8733 39.3377 15.9146C39.331 15.9351 39.3196 15.9711 39.3095 16.0166C39.3024 16.0482 39.2797 16.1518 39.286 16.2857L41.2838 16.191C41.2873 16.2648 41.2818 16.3244 41.2773 16.3608C41.2725 16.3994 41.2662 16.4311 41.2613 16.4529C41.2518 16.4954 41.2414 16.528 41.236 16.5444C41.2249 16.5778 41.2149 16.6012 41.2127 16.6065C41.207 16.6198 41.2043 16.6248 41.2093 16.6145C41.2132 16.6065 41.2176 16.5979 41.2246 16.584C41.2275 16.5781 41.2317 16.5697 41.2357 16.5616C41.2385 16.556 41.247 16.5388 41.2559 16.5191L39.4326 15.6971ZM39.286 16.2855C39.2908 16.3871 39.3101 16.4657 39.3198 16.5021C39.3313 16.5448 39.3434 16.5794 39.3517 16.6015C39.368 16.6451 39.3844 16.6807 39.3938 16.7003C39.4132 16.741 39.4335 16.7786 39.4446 16.7988C39.451 16.8107 39.4573 16.822 39.4621 16.8307C39.4674 16.8403 39.4707 16.8463 39.4737 16.8517C39.4768 16.8573 39.4768 16.8575 39.4753 16.8546C39.4745 16.853 39.4723 16.8487 39.4692 16.8424C39.4664 16.8368 39.4606 16.8249 39.4537 16.8089L41.2863 16.0081C41.2706 15.9721 41.2553 15.9426 41.2491 15.9307C41.2411 15.9153 41.2333 15.901 41.2278 15.8909C41.2222 15.8807 41.2162 15.8699 41.212 15.8622C41.2072 15.8535 41.2036 15.847 41.2003 15.8411C41.1921 15.826 41.1939 15.8287 41.1995 15.8404C41.202 15.8456 41.2127 15.8681 41.2249 15.9008C41.2312 15.9175 41.2417 15.9471 41.252 15.9855C41.2573 16.0053 41.2636 16.0318 41.2694 16.0634C41.2749 16.0942 41.2813 16.1381 41.2838 16.1912L39.286 16.2855ZM39.4535 16.8085C39.4794 16.8679 39.5001 16.9295 39.5139 16.9875L41.4595 16.5242C41.4166 16.344 41.357 16.1699 41.2865 16.0085L39.4535 16.8085ZM39.514 16.9877C39.5408 17.1003 39.5214 17.2441 39.4772 17.3314L41.2615 18.2349C41.5235 17.7175 41.594 17.0886 41.4595 16.524L39.514 16.9877ZM39.4772 17.3315C39.4256 17.4333 39.3716 17.4844 39.317 17.5197L40.4009 19.2004C40.7613 18.968 41.0537 18.6455 41.2616 18.2348L39.4772 17.3315ZM38.5225 19.1159C38.5556 19.4123 38.5398 19.6767 38.4719 19.9156L40.3956 20.4626C40.5491 19.9228 40.5655 19.3896 40.5101 18.8939L38.5225 19.1159ZM38.4719 19.9156C38.3029 20.51 37.8443 20.7752 37.4721 20.7539L37.3578 22.7506C38.7875 22.8324 40.0057 21.8342 40.3956 20.4625L38.4719 19.9156ZM37.4721 20.7539C37.3878 20.7491 37.3527 20.7398 37.3423 20.7364L36.7101 22.6338C36.9517 22.7144 37.1801 22.7404 37.3578 22.7506L37.4721 20.7539ZM37.3428 20.7365C37.4456 20.7708 37.5178 20.8151 37.526 20.8201C37.5308 20.8229 37.5415 20.8294 37.5305 20.8227C37.5257 20.8198 37.5084 20.8092 37.4863 20.797C37.451 20.7776 37.3404 20.7177 37.1854 20.6873C37.0065 20.6523 36.7694 20.6572 36.5314 20.7775L37.4336 22.5625C37.2026 22.6792 36.9726 22.6837 36.8009 22.6501C36.6532 22.6211 36.5498 22.5645 36.5218 22.5491C36.5034 22.539 36.4898 22.5306 36.4887 22.53C36.4814 22.5255 36.4958 22.5343 36.5043 22.5393C36.5199 22.5486 36.5995 22.5969 36.7096 22.6337L37.3428 20.7365ZM36.5315 20.7775C36.3985 20.8447 36.3125 20.926 36.2852 20.9522C36.2469 20.989 36.2185 21.0218 36.2023 21.0413C36.1696 21.0804 36.1445 21.116 36.1312 21.1353C36.1029 21.1763 36.0764 21.2187 36.0608 21.244C36.0347 21.2862 36.0355 21.2854 36.019 21.312C36.0142 21.3197 36.0134 21.3208 36.0151 21.3183C36.016 21.3168 36.0194 21.3117 36.0245 21.3044C36.0288 21.2983 36.0397 21.283 36.0553 21.2634L37.6182 22.5114C37.6373 22.4875 37.6521 22.4668 37.6609 22.4543C37.6705 22.4406 37.6787 22.4284 37.685 22.4188C37.6973 22.4002 37.7086 22.3822 37.7169 22.3689C37.7255 22.355 37.7343 22.3407 37.7415 22.329C37.7492 22.3164 37.7555 22.3062 37.7616 22.2962C37.776 22.273 37.7793 22.2684 37.7762 22.2729C37.7754 22.2739 37.7618 22.294 37.7389 22.3214C37.7276 22.335 37.7037 22.3629 37.6694 22.3958C37.6517 22.4127 37.6255 22.4366 37.5915 22.4629C37.5593 22.4878 37.5058 22.526 37.4336 22.5625L36.5315 20.7775ZM36.0553 21.2634C36.0218 21.3053 35.9937 21.3354 35.9714 21.3561C35.9491 21.3769 35.9386 21.3826 35.9411 21.3812L36.9376 23.1153C37.2397 22.9417 37.4629 22.7058 37.6182 22.5114L36.0553 21.2634ZM35.9412 21.3812C35.8741 21.4197 35.7665 21.4464 35.5899 21.409L35.175 23.3655C35.7099 23.4789 36.3455 23.4555 36.9375 23.1153L35.9412 21.3812ZM34.2006 21.7612L34.1602 21.7976L35.4974 23.2848L35.5379 23.2484L34.2006 21.7612ZM34.2266 21.7428C33.8164 22.0522 33.2649 22.0733 32.8449 21.8116L31.7871 23.5089C32.9157 24.2123 34.3661 24.1427 35.431 23.3395L34.2266 21.7428ZM32.8451 21.8116C32.8718 21.8283 32.8906 21.842 32.8971 21.8468C32.9053 21.8528 32.9104 21.8569 32.9112 21.8576C32.9127 21.8587 32.9093 21.8561 32.8993 21.8475C32.8785 21.8299 32.8535 21.8079 32.8187 21.7774C32.7896 21.7519 32.7479 21.7155 32.7107 21.6848C32.6938 21.6708 32.6624 21.6453 32.626 21.6192C32.6095 21.6075 32.5724 21.5814 32.5237 21.5541C32.4997 21.5407 32.4552 21.5168 32.3968 21.4939C32.3549 21.4774 32.2209 21.4262 32.0403 21.4241L32.017 23.4239C31.9182 23.4228 31.8389 23.4071 31.7889 23.3947C31.7367 23.3818 31.6945 23.3668 31.6654 23.3554C31.609 23.3332 31.5668 23.3105 31.5455 23.2986C31.5022 23.2743 31.4718 23.2526 31.4632 23.2465C31.4426 23.2318 31.4316 23.2223 31.4385 23.228C31.4488 23.2365 31.4678 23.2529 31.5013 23.2822C31.5292 23.3067 31.569 23.3416 31.6039 23.3713C31.6217 23.3865 31.644 23.4051 31.6673 23.4237C31.6792 23.4331 31.6943 23.4448 31.7114 23.4575C31.7269 23.4689 31.7536 23.488 31.7869 23.5088L32.8451 21.8116ZM32.0416 21.4241C31.9075 21.4224 31.8029 21.4478 31.7594 21.4593C31.7059 21.4735 31.6626 21.4893 31.6355 21.4997C31.5821 21.5204 31.5368 21.5423 31.5144 21.5533C31.4925 21.564 31.4634 21.5789 31.4604 21.5803C31.4395 21.5909 31.4671 21.5761 31.5063 21.5604L32.2484 23.4176C32.2825 23.404 32.3102 23.3909 32.3233 23.3847C32.3386 23.3774 32.3523 23.3705 32.3608 23.3662C32.3846 23.3542 32.3856 23.3536 32.3937 23.3496C32.4012 23.3459 32.3857 23.354 32.3583 23.3646C32.3443 23.37 32.313 23.3817 32.2703 23.393C32.2482 23.3988 32.2167 23.4062 32.1782 23.4123C32.1409 23.4182 32.0847 23.4248 32.0157 23.4239L32.0416 21.4241ZM31.5069 21.5602C31.4656 21.5767 31.4398 21.5858 31.4221 21.5912C31.405 21.5964 31.4031 21.5958 31.4122 21.5945L31.682 23.5762C31.92 23.5438 32.1216 23.4682 32.2479 23.4178L31.5069 21.5602ZM31.412 21.5945C31.2362 21.6185 31.0225 21.6033 30.7786 21.5451L30.3143 23.4905C30.7229 23.588 31.1946 23.6427 31.6822 23.5762L31.412 21.5945ZM30.8118 21.5537L30.6619 21.5124L30.1311 23.4407L30.2811 23.4819L30.8118 21.5537ZM29.0772 21.987C29.1153 21.9495 29.109 21.9931 28.8768 22.0438C28.6292 22.0979 28.2156 22.1407 27.5142 22.1477L27.5343 24.1476C28.2803 24.1401 28.8552 24.0957 29.3036 23.9978C29.7676 23.8964 30.1651 23.7231 30.4813 23.4113L29.0772 21.987ZM20.6261 22.2044C19.7165 22.1788 19.0606 21.91 18.6861 21.704L17.7222 23.4565C18.3183 23.7843 19.2831 24.1675 20.57 24.2036L20.6261 22.2044ZM16.8929 21.658C16.7946 21.6886 16.5649 21.688 16.1531 21.62L15.8275 23.5934C16.2063 23.6559 16.8802 23.7566 17.4872 23.5677L16.8929 21.658ZM16.1529 21.62C16.1125 21.6134 16.0878 21.6089 16.0687 21.6047C16.0507 21.6008 16.0452 21.5988 16.0471 21.5995L15.4038 23.4932C15.5748 23.5512 15.7349 23.5781 15.8277 23.5934L16.1529 21.62ZM16.0471 21.5995C16.0826 21.6115 16.1057 21.6223 16.0938 21.6171C16.0904 21.6156 16.0875 21.6143 16.0782 21.6101C16.0706 21.6067 16.059 21.6015 16.0461 21.5959C16.0231 21.5859 15.9785 21.5669 15.9251 21.549C15.8973 21.5397 15.8596 21.528 15.8148 21.5176C15.7717 21.5076 15.7072 21.4951 15.6287 21.4906L15.5147 23.4874C15.4462 23.4835 15.3926 23.4728 15.3613 23.4655C15.3283 23.4578 15.303 23.4499 15.2884 23.4449C15.2731 23.4398 15.2621 23.4355 15.257 23.4335C15.2517 23.4314 15.2489 23.4302 15.2501 23.4307C15.2514 23.4312 15.254 23.4324 15.2603 23.4352C15.265 23.4373 15.2758 23.4422 15.2857 23.4465C15.296 23.4511 15.3115 23.4579 15.3292 23.4651C15.3463 23.4721 15.3724 23.4825 15.4038 23.4932L16.0471 21.5995ZM15.6303 21.4907C15.4824 21.4821 15.3652 21.5081 15.2999 21.5264C15.2299 21.546 15.175 21.5696 15.1401 21.5861C15.072 21.6183 15.0216 21.6514 14.9973 21.668C14.9462 21.7029 14.907 21.7363 14.8896 21.7513C14.85 21.7856 14.8142 21.8205 14.7936 21.8409C14.7699 21.8644 14.7478 21.887 14.7332 21.902C14.7074 21.9286 14.7161 21.9195 14.726 21.9099L16.118 23.3459C16.1367 23.3278 16.1664 23.297 16.1675 23.2958C16.18 23.283 16.191 23.2718 16.2004 23.2625C16.2128 23.2502 16.2101 23.2535 16.1974 23.2645C16.1935 23.2679 16.1662 23.2917 16.1248 23.3199C16.1053 23.3332 16.0591 23.3639 15.9946 23.3943C15.9616 23.41 15.9083 23.4329 15.8398 23.4521C15.7759 23.4701 15.6599 23.4959 15.5131 23.4873L15.6303 21.4907ZM14.7259 21.91C14.6334 21.9997 14.6014 22.0254 14.5837 22.0371L15.6866 23.7055C15.8769 23.5797 16.0279 23.4333 16.1182 23.3458L14.7259 21.91ZM14.5837 22.0371C14.4766 22.1079 14.3704 22.1392 14.2747 22.1429L14.353 24.1414C14.8355 24.1225 15.293 23.9657 15.6866 23.7055L14.5837 22.0371ZM14.2747 22.1429C14.0649 22.1512 13.8648 22.0839 13.6095 21.8541L12.2717 23.3409C12.81 23.8253 13.4974 24.1749 14.3529 24.1414L14.2747 22.1429ZM12.3778 21.4313C12.3118 21.434 12.2288 21.4133 12.1453 21.3473L10.9052 22.9164C11.3473 23.2658 11.8951 23.4527 12.4596 23.4296L12.3778 21.4313ZM12.1449 21.347C12.1829 21.377 12.2028 21.3991 12.1855 21.3815C12.1805 21.3764 12.1744 21.3701 12.1639 21.3592C12.1547 21.3497 12.1413 21.3357 12.1275 21.3215C12.1024 21.2959 12.0571 21.2502 12.0035 21.2042C11.9758 21.1805 11.9366 21.1486 11.8883 21.1157C11.8434 21.085 11.7669 21.037 11.6653 20.9972L10.935 22.859C10.8894 22.8412 10.8528 22.8226 10.8261 22.8078C10.799 22.7927 10.7772 22.7787 10.7613 22.7679C10.7306 22.747 10.71 22.7297 10.7015 22.7224C10.6921 22.7144 10.6872 22.7096 10.6881 22.7104C10.6887 22.711 10.6916 22.7138 10.6981 22.7204C10.7048 22.7273 10.7119 22.7346 10.7229 22.7461C10.7326 22.7561 10.7463 22.7704 10.7605 22.7849C10.7747 22.7992 10.7937 22.8183 10.8153 22.8386C10.8263 22.8489 10.8393 22.8608 10.8537 22.8735C10.868 22.8861 10.8855 22.9009 10.9055 22.9167L12.1449 21.347ZM11.6662 20.9975C11.5708 20.96 11.489 20.9443 11.4437 20.9371C11.3938 20.9291 11.3513 20.9259 11.3223 20.9243C11.266 20.9212 11.2171 20.9225 11.1927 20.9233C11.1786 20.9238 11.1658 20.9243 11.1569 20.9247C11.1452 20.9253 11.1434 20.9254 11.1378 20.9256C11.1199 20.9264 11.1485 20.9245 11.1883 20.9262L11.1028 22.9243C11.137 22.9258 11.1657 22.9255 11.1815 22.9251C11.1988 22.9248 11.2143 22.9242 11.2239 22.9238C11.2321 22.9234 11.2449 22.9228 11.2481 22.9227C11.2541 22.9224 11.2566 22.9223 11.2575 22.9223C11.2634 22.9221 11.2445 22.923 11.2142 22.9214C11.1983 22.9205 11.1679 22.9184 11.1288 22.9121C11.1087 22.9089 11.0822 22.904 11.0514 22.8963C11.0212 22.8888 10.9807 22.877 10.9341 22.8587L11.6662 20.9975ZM11.1878 20.9262C11.1274 20.9236 11.0946 20.9215 11.0697 20.9187C11.0475 20.9162 11.0434 20.9143 11.0492 20.9159L10.4958 22.8379C10.7457 22.9098 10.977 22.919 11.1033 22.9244L11.1878 20.9262ZM11.0491 20.9159C10.9377 20.8839 10.8135 20.7971 10.7263 20.6299L8.95264 21.554C9.27764 22.1778 9.82739 22.6455 10.4959 22.8379L11.0491 20.9159ZM10.7263 20.6299C10.6422 20.4684 10.5948 20.1656 10.6409 19.7703L8.65428 19.539C8.58651 20.1208 8.60496 20.8866 8.95263 21.5539L10.7263 20.6299ZM9.81701 18.2061L9.81347 18.2043L8.91114 19.9892L8.91468 19.9909L9.81701 18.2061ZM9.88937 18.2469C9.77355 18.1751 9.62946 17.9977 9.56825 17.7538L7.62838 18.2405C7.79731 18.9138 8.21643 19.5627 8.83524 19.9465L9.88937 18.2469ZM9.56826 17.7538C9.53184 17.6086 9.5405 17.4786 9.60587 17.3061L7.73562 16.5974C7.54887 17.0903 7.47764 17.6397 7.62837 18.2405L9.56826 17.7538ZM9.54678 16.093C9.46102 15.9185 9.44047 15.7217 9.48433 15.5512L7.54738 15.053C7.37762 15.713 7.4682 16.3982 7.75196 16.9754L9.54678 16.093ZM9.48433 15.5512C9.51646 15.4263 9.57784 15.3213 9.65582 15.2398L8.21041 13.8575C7.90056 14.1815 7.66668 14.5892 7.54738 15.053L9.48433 15.5512ZM10.1087 13.714C10.1073 13.707 10.1062 13.7008 10.1053 13.6952L8.13014 14.0092C8.13541 14.0423 8.14125 14.0746 8.14753 14.106L10.1087 13.714ZM10.1053 13.6953C10.09 13.5987 10.1198 13.4385 10.1967 13.3145L8.49735 12.2599C8.203 12.7342 8.02933 13.3748 8.13014 14.0092L10.1053 13.6953ZM10.1967 13.3145C10.2668 13.2016 10.3707 13.106 10.4948 13.0394L9.54855 11.2774C9.13926 11.4972 8.76572 11.8274 8.49733 12.2599L10.1967 13.3145ZM11.4186 11.3701C11.4076 11.2428 11.4204 11.1441 11.4729 11.0226L9.63684 10.2295C9.44056 10.6839 9.38933 11.1184 9.42601 11.5424L11.4186 11.3701ZM11.4729 11.0226C11.5025 10.954 11.5585 10.8823 11.6597 10.8117L10.5159 9.17106C10.1714 9.41123 9.8412 9.75648 9.63686 10.2295L11.4729 11.0226ZM12.3464 9.08637C12.3201 8.97202 12.3132 8.88446 12.3215 8.79631L10.3301 8.6104C10.2978 8.95623 10.3347 9.26212 10.3973 9.53455L12.3464 9.08637ZM12.3214 8.79639C12.3432 8.56337 12.5293 8.36 12.7973 8.2999L12.3597 6.34837C11.4146 6.5603 10.4475 7.35381 10.3301 8.61032L12.3214 8.79639ZM12.7974 8.2999C12.8331 8.29188 12.8801 8.28448 12.9523 8.27652L12.7334 6.28855C12.6283 6.30012 12.4988 6.31718 12.3597 6.34838L12.7974 8.2999ZM12.9482 8.27697C12.9367 8.27818 12.9266 8.27898 12.9433 8.27756C12.9508 8.27692 12.963 8.27589 12.9756 8.27475C12.9865 8.27377 13.0054 8.27201 13.0248 8.26979C13.0326 8.26889 13.0533 8.26649 13.0781 8.26251C13.0882 8.26088 13.1178 8.25607 13.1546 8.24726C13.1715 8.2432 13.2104 8.23353 13.2583 8.21647C13.2825 8.20787 13.3231 8.19241 13.3712 8.16827C13.4107 8.14846 13.5049 8.09867 13.6035 8.00704L12.2425 6.54155C12.3411 6.44998 12.4352 6.40025 12.4746 6.38051C12.5226 6.35644 12.563 6.34105 12.5869 6.33252C12.6345 6.31559 12.6728 6.30607 12.6892 6.30216C12.7247 6.29365 12.7526 6.28916 12.7606 6.28787C12.7811 6.28457 12.796 6.28292 12.7969 6.28282C12.8024 6.28219 12.8031 6.28219 12.7953 6.2829C12.7892 6.28345 12.7823 6.28404 12.7743 6.28471C12.7709 6.285 12.7663 6.28539 12.7623 6.28574C12.7618 6.28579 12.7498 6.28679 12.7375 6.2881L12.9482 8.27697ZM13.596 8.01395C13.6898 7.92865 13.7452 7.84511 13.7676 7.80986C13.7949 7.76687 13.8136 7.73015 13.8243 7.70802C13.8455 7.66411 13.8591 7.6278 13.8651 7.6112C13.8781 7.57548 13.8867 7.54554 13.8903 7.53298C13.8986 7.5038 13.9054 7.47584 13.9095 7.45844C13.9186 7.42028 13.9284 7.37561 13.9364 7.33866C13.9406 7.31924 13.9447 7.29978 13.9485 7.28207C13.9524 7.26394 13.9558 7.248 13.9589 7.23385C13.969 7.18693 13.9666 7.20127 13.9588 7.22899L12.0331 6.68874C12.0274 6.70927 12.0231 6.72688 12.0213 6.7346C12.0189 6.74453 12.0167 6.75404 12.0149 6.76194C12.0113 6.77772 12.0075 6.79515 12.004 6.81132C12.0005 6.82784 11.9966 6.84599 11.9928 6.86344C11.989 6.88131 11.9852 6.89892 11.9815 6.91612C11.9737 6.9524 11.9677 6.97916 11.9639 6.99513C11.9616 7.0048 11.9627 6.99959 11.9663 6.98688C11.9675 6.98256 11.9741 6.95929 11.9853 6.92844C11.9904 6.91429 12.0032 6.87996 12.0237 6.83754C12.034 6.81616 12.0524 6.78007 12.0794 6.73759C12.0932 6.71572 12.1126 6.68705 12.1379 6.65498C12.1625 6.62384 12.1995 6.58063 12.2501 6.53464L13.596 8.01395ZM13.9587 7.22929C13.9944 7.10234 14.0656 6.98918 14.1777 6.8865L12.8274 5.41115C12.4731 5.73542 12.1812 6.16171 12.0332 6.68843L13.9587 7.22929ZM14.1777 6.88649C14.3248 6.75194 14.4727 6.70067 14.7645 6.73273L14.9829 4.74469C14.267 4.66605 13.4981 4.79734 12.8274 5.41115L14.1777 6.88649ZM15.8152 6.23676C15.8843 6.1283 15.9499 6.06337 15.9963 6.03041L14.8386 4.39958C14.5344 4.61552 14.3013 4.89068 14.1282 5.1626L15.8152 6.23676ZM15.9963 6.0304C16.1815 5.89894 16.333 5.87083 16.5457 5.90792L16.8893 3.93767C16.1849 3.81478 15.4861 3.93983 14.8385 4.39959L15.9963 6.0304ZM17.8772 5.31269C17.9938 5.12777 18.1123 5.04603 18.272 4.98799L17.589 3.10822C17.0365 3.30897 16.5522 3.66425 16.1854 4.24605L17.8772 5.31269ZM19.3488 3.69762C19.3537 3.66899 19.3599 3.63925 19.3676 3.60773L17.4243 3.13458C17.4062 3.20907 17.3907 3.28362 17.3777 3.3588L19.3488 3.69762ZM19.3675 3.6078C19.4112 3.42877 19.5234 3.28601 19.6351 3.21463L18.5577 1.52962C18.0018 1.88505 17.5869 2.46732 17.4244 3.13452L19.3675 3.6078ZM19.6351 3.21461C19.7521 3.1398 19.8846 3.11829 20.0178 3.1486L20.4614 1.19841C19.8203 1.05258 19.1378 1.15866 18.5576 1.52963L19.6351 3.21461ZM21.3157 2.56123C21.4465 2.31784 21.6157 2.20156 21.7792 2.15833L21.2679 0.224784C20.5117 0.424759 19.9176 0.937957 19.554 1.61441L21.3157 2.56123ZM21.7792 2.15833C21.9392 2.11603 22.0964 2.13656 22.2803 2.27019L23.456 0.652236C22.8238 0.192868 22.053 0.0171811 21.2679 0.224784L21.7792 2.15833ZM22.2802 2.27016C22.2149 2.22268 22.1708 2.17764 22.1634 2.17018C22.16 2.16677 22.1527 2.15928 22.1594 2.16615C22.1622 2.16897 22.1727 2.17981 22.1864 2.19292C22.2101 2.21556 22.2748 2.27616 22.3711 2.3335C22.4743 2.39499 22.6323 2.46384 22.8347 2.47471L22.942 0.477589C23.1404 0.488249 23.2947 0.555738 23.3944 0.615157C23.4872 0.670419 23.5486 0.72823 23.5691 0.747811C23.5812 0.759383 23.5901 0.768618 23.5913 0.769826C23.5964 0.775074 23.5876 0.76595 23.5826 0.760946C23.572 0.750283 23.5247 0.702203 23.456 0.652267L22.2802 2.27016ZM22.8348 2.47472C23.0225 2.48478 23.1649 2.43881 23.2149 2.42168C23.2799 2.39937 23.3296 2.37486 23.3567 2.36067C23.4114 2.3321 23.4527 2.3042 23.4707 2.29179C23.5105 2.26428 23.5438 2.23754 23.5606 2.22391C23.5982 2.1933 23.638 2.15852 23.6651 2.13465C23.6999 2.10405 23.7184 2.08746 23.7404 2.0683C23.75 2.05997 23.7536 2.05692 23.7534 2.05714C23.7532 2.05732 23.7491 2.06071 23.7423 2.066C23.7376 2.06964 23.7199 2.08346 23.6945 2.10054L22.5779 0.441306C22.5476 0.461641 22.5239 0.479928 22.5122 0.489068C22.4983 0.499857 22.4862 0.509792 22.477 0.517393C22.4588 0.532445 22.4411 0.547747 22.4271 0.55995C22.4019 0.581869 22.3644 0.615147 22.3444 0.63272C22.332 0.643656 22.3215 0.652769 22.3128 0.660305C22.3085 0.663999 22.3051 0.666905 22.3024 0.66912C22.3011 0.670207 22.3002 0.671031 22.2994 0.671618C22.2987 0.672209 22.2984 0.672467 22.2985 0.672432C22.2985 0.672405 22.2991 0.671942 22.3001 0.671109C22.3011 0.670291 22.3029 0.668878 22.3054 0.666985C22.3094 0.663938 22.3198 0.655972 22.3349 0.645589C22.3458 0.638054 22.381 0.613954 22.4308 0.587925C22.4555 0.575009 22.503 0.551454 22.5663 0.529772C22.5989 0.518579 22.6453 0.504575 22.7022 0.493737C22.7573 0.48324 22.8405 0.47215 22.9418 0.477583L22.8348 2.47472ZM23.6942 2.10076C23.738 2.0713 23.8154 2.0369 23.9906 2.00532L23.6357 0.0370475C23.3378 0.0907631 22.951 0.190428 22.5782 0.441082L23.6942 2.10076ZM20.295 24.1039L23.6436 26.6569L24.8562 25.0664L21.5076 22.5135L20.295 24.1039ZM25.6698 26.4654L27.8959 23.9826L26.4068 22.6474L24.1807 25.1302L25.6698 26.4654ZM14.7645 6.73273C15.0164 6.7604 15.514 6.70932 15.815 6.23719L14.1284 5.16218C14.3886 4.75399 14.8064 4.7253 14.9829 4.74469L14.7645 6.73273ZM9.65582 15.2398C10.0229 14.856 10.2244 14.2925 10.1087 13.714L8.14753 14.106C8.12388 13.9877 8.16767 13.9022 8.21041 13.8575L9.65582 15.2398ZM20.0178 3.1486C20.4877 3.25548 21.0548 3.06744 21.3237 2.54609L19.546 1.62956C19.7423 1.24895 20.1459 1.12666 20.4614 1.19841L20.0178 3.1486ZM9.60587 17.3061C9.74393 16.9417 9.76168 16.4728 9.52139 16.0447L7.77736 17.0237C7.68018 16.8505 7.70116 16.6884 7.73562 16.5974L9.60587 17.3061ZM13.6095 21.8541C13.222 21.5055 12.746 21.4162 12.3778 21.4313L12.4596 23.4296C12.4569 23.4297 12.4395 23.4303 12.4091 23.4212C12.3771 23.4115 12.3253 23.3891 12.2717 23.3409L13.6095 21.8541ZM18.6861 21.704C18.2961 21.4895 17.8901 21.4821 17.6198 21.5056C17.3364 21.5304 17.0753 21.6013 16.8929 21.658L17.4872 23.5677C17.6143 23.5281 17.7182 23.5047 17.7935 23.4981C17.8285 23.495 17.8392 23.4974 17.8308 23.4963C17.8217 23.495 17.7794 23.4879 17.7222 23.4564L18.6861 21.704ZM18.272 4.98799C18.8396 4.78175 19.2481 4.28367 19.3488 3.69762L17.3777 3.3588C17.3971 3.24639 17.4731 3.15034 17.589 3.10822L18.272 4.98799ZM10.6409 19.7703C10.709 19.1855 10.4441 18.523 9.81693 18.206L8.91476 19.991C8.69431 19.8796 8.63889 19.6711 8.65428 19.539L10.6409 19.7703ZM35.5899 21.409C35.1776 21.3215 34.6322 21.3731 34.2006 21.7612L35.5379 23.2484C35.382 23.3886 35.2246 23.376 35.175 23.3655L35.5899 21.409ZM39.317 17.5197C38.8687 17.8088 38.4408 18.3845 38.5225 19.1159L40.5101 18.8939C40.5218 18.9983 40.4936 19.0795 40.4684 19.1248C40.445 19.1668 40.4197 19.1883 40.4009 19.2004L39.317 17.5197ZM37.0541 11.3574C37.2063 11.802 37.5671 12.24 38.1273 12.4038L38.6886 10.4842C38.8576 10.5336 38.9262 10.6508 38.9463 10.7097L37.0541 11.3574ZM36.783 9.48119C36.5491 9.99144 36.5867 10.6008 36.9131 11.0825L38.5688 9.96066C38.646 10.0745 38.6499 10.2083 38.6011 10.3146L36.783 9.48119ZM27.5142 22.1477C27.0984 22.1519 26.6936 22.3276 26.4068 22.6474L27.8959 23.9826C27.7988 24.0908 27.666 24.1463 27.5343 24.1476L27.5142 22.1477ZM16.5457 5.90792C17.04 5.99414 17.622 5.79099 17.9115 5.25397L16.1511 4.30477C16.3203 3.99095 16.6448 3.89501 16.8893 3.93766L16.5457 5.90792ZM33.1794 6.00192C33.1075 6.53676 33.4558 7.04045 33.9855 7.15907L34.4225 5.2074C34.9082 5.31617 35.2274 5.77799 35.1616 6.26815L33.1794 6.00192ZM23.6436 26.6569C24.2656 27.1311 25.1477 27.0478 25.6698 26.4654L24.1807 25.1302C24.3548 24.9361 24.6488 24.9083 24.8562 25.0664L23.6436 26.6569ZM10.4948 13.0394C11.0542 12.739 11.4822 12.1054 11.4186 11.3701L9.42601 11.5424C9.4188 11.4591 9.44162 11.3963 9.46281 11.3599C9.48315 11.3251 9.51118 11.2974 9.54855 11.2774L10.4948 13.0394ZM26.8445 2.83774C27.1793 3.30171 27.7773 3.60688 28.432 3.4781L28.046 1.5157C28.2489 1.47579 28.4009 1.57672 28.4663 1.66734L26.8445 2.83774ZM20.57 24.2036C20.4853 24.2012 20.3863 24.1735 20.2951 24.1039L21.5076 22.5135C21.2422 22.3111 20.9297 22.2129 20.6261 22.2044L20.57 24.2036ZM11.6597 10.8117C12.1608 10.4623 12.5114 9.80395 12.3464 9.08637L10.3973 9.53455C10.3521 9.33801 10.4534 9.21463 10.5159 9.17106L11.6597 10.8117ZM28.8689 3.54841C29.2961 3.83889 29.8451 3.93827 30.363 3.78492L29.7951 1.86724C29.8748 1.84364 29.9443 1.86103 29.9936 1.89455L28.8689 3.54841ZM30.6619 21.5124C29.9174 21.3075 29.3377 21.7302 29.0772 21.987L30.4813 23.4113C30.4992 23.3937 30.4904 23.4093 30.4432 23.4285C30.3871 23.4514 30.2713 23.4793 30.1311 23.4407L30.6619 21.5124Z" fill="url(#paint0_linear_153_2)" mask="url(#path-1-inside-1_153_2)"/>
<path d="M28.9512 14.4178C29.1182 14.2401 29.3825 14.1851 29.5953 14.3042L29.8255 14.4331C29.9467 14.4929 30.1091 14.5368 30.2175 14.6196C30.2582 14.6507 30.2899 14.7394 30.3132 14.7905C30.3865 14.9516 30.4738 15.155 30.498 15.3342C30.5186 15.4862 30.4957 15.6632 30.4571 15.8396C30.3955 16.1215 30.0691 16.2549 29.8137 16.1207C29.678 16.0311 29.5003 15.907 29.4624 15.7215C29.4587 15.7022 29.4401 15.6908 29.4236 15.7016C29.3674 15.7383 29.2817 15.8306 29.2258 15.8836C29.2074 15.9011 29.1858 15.9148 29.1622 15.9245C29.079 15.9587 29.0179 15.9649 28.9232 15.9344C28.8716 15.9177 28.831 15.8836 28.7972 15.8404C28.7344 15.7601 28.6309 15.7782 28.5654 15.8563C28.4992 15.9352 28.418 15.958 28.3254 15.9684C28.1721 15.9858 28.0001 15.9282 27.8844 15.81C27.7728 15.6961 27.6785 15.5041 27.6715 15.3309C27.6703 15.3007 27.6667 15.1672 27.6772 15.1461C27.6804 15.1397 27.6898 15.1429 27.6961 15.1413C27.8571 15.0997 28.0092 15.06 28.1647 14.9938C28.4757 14.8612 28.7226 14.6611 28.9512 14.4178Z" fill="#9CFF2E"/>
<path d="M26.4024 12.1734C26.4393 12.1577 26.4783 12.1476 26.5182 12.1445C26.59 12.1389 26.695 12.1373 26.7132 12.1711C26.7305 12.203 26.738 12.32 26.7476 12.3646C26.8129 12.6684 26.9811 12.9231 27.2038 13.1022C27.4631 13.3107 27.733 13.3727 28.0192 13.3596C28.2394 13.3495 28.4546 13.4454 28.5921 13.6177C28.614 13.6451 28.6365 13.6718 28.6594 13.6981C28.8202 13.8821 28.8675 14.1542 28.6934 14.3256C28.4863 14.5293 28.2431 14.6729 27.9767 14.787C27.5919 14.9236 27.1848 14.9873 26.7878 14.8791C26.4413 14.7846 25.993 14.5225 25.8066 14.1632C25.7122 13.9814 25.6785 13.7665 25.7304 13.5614C25.7871 13.3375 25.8987 13.1853 26.0441 13.0606C26.1483 12.9711 26.1744 12.8236 26.1297 12.6937C26.0984 12.603 26.1029 12.4987 26.1391 12.4109C26.1933 12.2797 26.2925 12.2203 26.4024 12.1734Z" fill="#9CFF2E"/>
<path d="M11.8372 16.8837C11.8916 16.8221 11.9899 16.8528 12.0095 16.9326C12.1958 17.5076 12.8879 17.5749 13.3468 17.5585C13.4112 17.5562 13.5561 17.5138 13.606 17.5305C13.6462 17.5439 13.7279 17.6341 13.7656 17.6651C13.858 17.7414 13.957 17.8112 14.0617 17.8633C14.2805 17.9721 14.4944 17.9882 14.71 17.9403C14.8823 17.9019 15.069 17.9106 15.2068 18.0209C15.4717 18.2329 15.7006 18.4686 15.8986 18.785C16.0939 19.0971 16.218 19.4517 16.3791 19.7858C16.3923 19.8132 16.4297 19.883 16.4705 19.9622C16.5618 20.1394 16.4538 20.3065 16.2596 20.2616C16.0661 20.2168 15.9254 20.1013 15.809 19.947C15.7359 19.8502 15.585 19.8345 15.4935 19.9142C15.487 19.9198 15.48 19.9251 15.4727 19.9295C15.3946 19.9765 15.3018 20.009 15.2137 19.9862C15.0863 19.9534 14.9751 19.861 14.8801 19.7489C14.7817 19.6329 14.5856 19.6639 14.4459 19.7239C14.1825 19.8372 13.8269 19.7271 13.5845 19.5917C13.5742 19.5858 13.561 19.59 13.5562 19.6009C13.5124 19.7004 13.4686 19.804 13.3838 19.8659C13.2159 19.9885 12.9544 19.908 12.804 19.7838C12.7767 19.7613 12.6836 19.6396 12.664 19.6339C12.6462 19.6287 12.4104 19.7316 12.3721 19.7392C12.2035 19.773 12.019 19.7417 11.8551 19.6919C11.5878 19.6107 11.3478 19.4352 11.2125 19.1542C11.1227 18.9676 11.1104 18.7417 11.1675 18.54C11.2191 18.3578 11.3098 18.2245 11.422 18.1167C11.6316 17.9153 11.6666 17.6123 11.6641 17.3216C11.6639 17.2998 11.6649 17.2775 11.6673 17.2546C11.6838 17.0978 11.7494 16.9833 11.8372 16.8837Z" fill="#9CFF2E"/>
<path d="M13.967 14.6266C14.0055 14.6172 14.0454 14.6153 14.0848 14.6194C14.1533 14.6265 14.2196 14.6399 14.2841 14.6736C14.4829 14.7776 14.6166 15.0133 14.7921 15.1596C15.0507 15.3752 15.3573 15.4312 15.6655 15.4134C15.8236 15.4043 15.9826 15.4511 16.0942 15.5635C16.3456 15.7896 16.5993 15.8736 16.8884 15.8716C17.0361 15.8706 17.1866 15.9089 17.2811 16.0225C17.4439 16.218 17.5755 16.4519 17.707 16.6776C17.7721 16.7892 17.7996 16.923 17.7536 17.0437C17.7359 17.0902 17.715 17.1353 17.6899 17.1787C17.5935 17.346 17.4377 17.4658 17.2645 17.5001L17.2369 17.5051C17.2239 17.5076 17.2109 17.5096 17.1978 17.5114C17.0473 17.5318 16.9879 17.3653 17.013 17.2155C17.0251 17.1428 16.9405 17.1306 16.8869 17.181C16.799 17.2637 16.7003 17.323 16.579 17.3395C16.382 17.3664 16.2489 17.2896 16.1113 17.1741C16.0531 17.1252 15.9637 17.1466 15.9376 17.218C15.9348 17.2257 15.9312 17.2331 15.9266 17.2399C15.8755 17.3166 15.812 17.394 15.7292 17.4219C15.5988 17.4657 15.4886 17.4511 15.3805 17.4083C15.251 17.3571 15.1239 17.4074 15.0255 17.506C14.86 17.6718 14.639 17.7364 14.4228 17.7112C14.169 17.6817 13.889 17.5213 13.7252 17.2946C13.7177 17.2839 13.705 17.2781 13.692 17.2793L13.3448 17.3134C13.0442 17.3345 12.5602 17.2854 12.3253 17.0344C12.2492 16.953 12.1844 16.8114 12.1955 16.6881C12.2054 16.5774 12.3184 16.4986 12.3947 16.4362C12.4014 16.4306 12.4017 16.4204 12.3952 16.4144L12.3756 16.3952C12.2777 16.3008 12.2126 16.1861 12.1928 16.0385C12.1732 15.8927 12.2219 15.7288 12.3013 15.6139C12.4602 15.3843 12.7533 15.2048 13.0111 15.2213C13.0489 15.2237 13.1847 15.2636 13.2136 15.2541C13.2241 15.2507 13.2742 15.1795 13.2872 15.1636C13.4937 14.9113 13.6704 14.6989 13.967 14.6266Z" fill="#9CFF2E"/>
<path d="M34.3907 14.1633C34.5211 14.0486 34.6889 13.981 34.862 13.994C34.9005 13.9969 34.9389 13.9992 34.9774 14.0008C35.1252 14.0071 35.2722 14.0639 35.3544 14.187C35.4029 14.2597 35.4395 14.3312 35.4664 14.4083C35.5506 14.6498 35.7301 14.8511 35.9673 14.9468C35.9915 14.9566 36.0154 14.9673 36.0387 14.9792C36.2249 15.0737 36.4747 15.2597 36.5421 15.4901C36.5926 15.6626 36.6746 15.8455 36.8523 15.8721C36.922 15.8826 36.9916 15.8991 37.062 15.9253C37.3127 16.0186 37.5091 16.1902 37.6277 16.4648C37.7177 16.673 37.7606 16.9547 37.6884 17.1782C37.6153 17.4043 37.4524 17.5908 37.2604 17.6881C37.134 17.7521 37.0106 17.7778 36.8874 17.7744C36.6676 17.7684 36.4478 17.8611 36.3298 18.0467C36.2248 18.2119 36.0139 18.4046 35.8313 18.4347L35.8048 18.4385C35.7522 18.4463 35.701 18.4529 35.648 18.4511C35.3878 18.4426 35.0848 18.4497 34.8464 18.5542C34.8365 18.5585 34.8263 18.5627 34.816 18.5666C34.6472 18.6304 34.4575 18.6049 34.3018 18.5122C34.2272 18.4678 34.165 18.4107 34.1124 18.3446C33.9244 18.1088 33.6332 17.9526 33.3342 17.9917C33.3191 17.9937 33.3038 17.9955 33.2884 17.997C33.1264 18.0056 32.9542 17.9781 32.8123 17.8835C32.7544 17.845 32.7084 17.7992 32.6713 17.7477C32.5756 17.6149 32.4128 17.5895 32.3607 17.7447C32.3273 17.8445 32.2116 17.879 32.1278 17.8153C32.0186 17.7324 31.9162 17.6334 31.8283 17.529C31.8202 17.5193 31.8045 17.5241 31.8032 17.5366C31.7902 17.6669 31.7774 17.8375 31.6942 17.9276C31.6523 17.9729 31.5709 18.0067 31.5137 18.0022C31.4595 17.998 31.4108 17.9706 31.367 17.9319C31.2621 17.839 31.0951 17.8336 30.9754 17.9064C30.8253 17.9976 30.6946 17.805 30.7607 17.6422C30.9141 17.2639 31.0185 16.8746 31.1393 16.4674C31.37 15.6893 31.8393 15.0767 32.404 14.5807C32.5815 14.4248 32.7786 14.2956 32.9471 14.127C32.9881 14.086 33.0026 14.12 33.0405 14.15C33.26 14.3233 33.4873 14.423 33.7573 14.4179C34.0135 14.4131 34.2103 14.3221 34.3907 14.1633Z" fill="#9CFF2E"/>
<path d="M31.1623 8.52222C31.293 8.52683 31.4211 8.53737 31.5472 8.57964C31.8144 8.66916 32.0146 8.81696 32.1788 9.02169C32.3492 9.2341 32.6414 9.30321 32.9112 9.26655C33.1673 9.23175 33.4617 9.33143 33.6631 9.51464C33.7625 9.60519 33.8317 9.703 33.8808 9.81083C33.9909 10.0529 34.2224 10.2137 34.4833 10.2649C34.7132 10.3101 34.9305 10.449 35.0626 10.6725C35.1969 10.8996 35.2107 11.143 35.1627 11.4032C35.16 11.4175 35.1705 11.431 35.1851 11.4317C35.3621 11.4411 35.534 11.4524 35.7032 11.5221C35.8846 11.5967 36.0653 11.7502 36.1441 11.9554C36.1941 12.0858 36.2012 12.2401 36.1497 12.3717C36.1226 12.441 36.0789 12.5004 36.0264 12.552C35.8485 12.7263 35.7811 12.9459 35.7968 13.1945C35.7996 13.2374 35.7955 13.281 35.7815 13.3257C35.7282 13.4959 35.5662 13.6242 35.4272 13.694C35.2245 13.7958 35.0132 13.7969 34.8069 13.7476C34.6262 13.7044 34.4393 13.7759 34.3068 13.9064C34.1099 14.1004 33.8753 14.1707 33.6177 14.1381C33.355 14.1048 33.0229 13.8261 32.8621 13.5937C32.8551 13.5833 32.8402 13.582 32.8314 13.591C32.6308 13.7963 32.404 13.9756 32.1282 14.0066C31.9921 14.0219 31.8464 13.9829 31.7394 13.8822L31.6666 13.8075C31.649 13.7895 31.6325 13.7704 31.6195 13.7489C31.5673 13.6625 31.5295 13.5492 31.4747 13.4689C31.4498 13.4324 31.4015 13.4022 31.3619 13.4215C31.3184 13.4427 31.2597 13.6191 31.23 13.6717C31.1984 13.7278 31.1592 13.7774 31.1154 13.8213C31.0157 13.9211 30.8458 13.9574 30.7151 13.939C30.5047 13.9094 30.3221 13.7572 30.1727 13.5783C30.0966 13.4872 29.9408 13.5156 29.9148 13.6315C29.8813 13.7401 29.8238 13.8408 29.73 13.8907C29.592 13.9643 29.4066 13.9208 29.2684 13.8636C28.9506 13.7321 28.7013 13.4313 28.5366 13.097C28.4975 13.0178 28.3974 12.9914 28.3175 13.0292C28.0757 13.1435 27.8086 13.1504 27.5669 13.0351C27.3227 12.9187 27.0981 12.7037 26.9984 12.4174C26.9424 12.2566 26.9199 12.0423 26.985 11.8807C27.0418 11.7399 27.1207 11.6415 27.2177 11.5662C27.329 11.4797 27.3644 11.3201 27.2908 11.1998C27.2178 11.0804 27.1892 10.9573 27.2157 10.8145C27.2494 10.633 27.4001 10.483 27.5324 10.3887C27.7695 10.2196 28.0295 10.1847 28.2915 10.2113C28.5191 10.2344 28.7411 10.1375 28.8868 9.96108C28.9458 9.88962 29.0114 9.82524 29.0866 9.77155C29.3498 9.58374 29.6211 9.52237 29.9234 9.60483C29.9405 9.60958 29.958 9.59869 29.9615 9.58131C30.0052 9.3671 30.078 9.16995 30.2055 9.00155C30.4542 8.67292 30.7951 8.55206 31.1623 8.52222Z" fill="#9CFF2E"/>
<path d="M25.0634 6.16016C25.4306 6.17117 25.7668 6.25473 26.0726 6.50012C26.2493 6.6419 26.3792 6.80363 26.4735 6.99041C26.6197 7.2802 26.9434 7.45288 27.2667 7.42338C27.2978 7.42054 27.3292 7.41885 27.3611 7.41844C27.6558 7.41465 27.9746 7.50531 28.1896 7.75172C28.3451 7.92998 28.4154 8.13559 28.4448 8.35945C28.4699 8.5507 28.6493 8.68192 28.8375 8.72394C28.9464 8.74828 29.054 8.82609 29.1134 8.93441C29.1724 9.04203 29.1776 9.14789 29.1504 9.26902C29.1391 9.31883 29.1125 9.41773 29.0854 9.45847C29.046 9.51793 28.9167 9.5891 28.8602 9.64027C28.7736 9.71879 28.696 9.80976 28.6178 9.89886C28.5987 9.92066 28.5508 9.98941 28.5291 10.0005C28.5059 10.0123 28.3361 9.97324 28.2997 9.96957C27.9839 9.93769 27.6292 9.99801 27.3593 10.1976C27.1852 10.3264 27.0202 10.5369 26.9805 10.7757C26.9471 10.9769 26.9892 11.1638 27.0887 11.3308C27.0947 11.3407 27.0924 11.3534 27.0836 11.3609C26.9058 11.5098 26.8502 11.629 26.7438 11.8442C26.7161 11.9 26.514 11.868 26.4467 11.886L26.4222 11.8931L26.3903 11.9018C26.2195 11.9487 26.0556 12.0539 25.9648 12.2314C25.8729 12.4112 25.873 12.5986 25.918 12.7953C25.9196 12.8027 25.9254 12.8102 25.9232 12.8174C25.9045 12.8774 25.7509 13.0055 25.7074 13.0632C25.6504 13.139 25.6014 13.2317 25.5645 13.3225C25.4576 13.5855 25.451 13.8382 25.5385 14.1091C25.7165 14.6598 26.1595 14.8566 26.5885 15.0814C26.6076 15.0914 26.6213 15.1094 26.6258 15.1305C26.6279 15.1403 26.628 15.1504 26.6258 15.1602C26.5774 15.3762 26.4221 15.5764 26.2573 15.6907C26.0322 15.8469 25.7296 15.902 25.4748 15.8201C25.3433 15.7778 25.2802 15.7075 25.2145 15.5732C25.2098 15.5632 25.1957 15.5629 25.1906 15.5727C25.1084 15.7307 25.0577 15.8702 24.9084 15.9735C24.7292 16.0976 24.4907 16.127 24.2891 16.0647L24.2604 16.0553C24.0032 15.9729 23.8218 15.8087 23.6499 15.5841C23.6422 15.574 23.6284 15.5709 23.6171 15.5767C23.6102 15.5803 23.6052 15.5869 23.6039 15.5946C23.5932 15.6572 23.5985 15.7188 23.6126 15.779C23.6517 15.9463 23.6432 16.1427 23.4888 16.2182C23.4239 16.2499 23.3553 16.2668 23.2703 16.2743C23.2167 16.279 23.1629 16.2709 23.1116 16.2546C22.9497 16.2031 22.8222 16.1485 22.6986 15.9862C22.689 15.9734 22.6702 15.9724 22.6592 15.9841L22.6454 15.9987C22.4902 16.1595 22.356 16.2205 22.1942 16.2389C22.0321 16.2574 21.8803 16.1612 21.8015 16.0184C21.6102 15.6715 21.4587 15.2686 21.4937 14.8615C21.5174 14.5859 21.6605 14.3375 21.8312 14.1299C21.9676 13.964 22.2041 13.9556 22.4177 13.9785C22.5178 13.9892 22.6195 13.9803 22.7208 13.9472C22.9423 13.8748 23.1259 13.7384 23.2365 13.5027C23.2576 13.4578 23.3121 13.4806 23.3521 13.4859C23.6773 13.529 23.9564 13.47 24.2234 13.2448C24.44 13.062 24.6141 12.7505 24.6507 12.4429C24.675 12.2388 24.646 12.0584 24.5345 11.8934C24.4109 11.7105 24.254 11.6432 24.061 11.6171C24.0501 11.6157 24.0378 11.6192 24.0283 11.6128C24.0234 11.6096 24.018 11.2805 23.8876 11.1076C23.7786 10.9629 23.6518 10.8884 23.5126 10.8469C23.2993 10.7832 23.1192 10.6373 23.044 10.4277C23.0199 10.3607 22.9921 10.2955 22.9592 10.2332C22.7323 9.80285 22.3244 9.61429 21.8988 9.59347C21.8544 9.59129 21.7007 9.60308 21.6694 9.58523C21.6193 9.55664 21.5324 9.42441 21.4886 9.37551C21.3531 9.22421 21.2138 9.11646 21.0616 9.03432C20.8331 8.911 20.6333 8.64668 20.7919 8.44109C20.8159 8.40997 20.8438 8.38095 20.8765 8.35437C20.9658 8.28195 21.1165 8.21941 21.2264 8.24824C21.2655 8.25855 21.3004 8.22997 21.309 8.1904C21.366 7.9285 21.4719 7.68125 21.6236 7.47414C21.818 7.20875 22.1102 7.00234 22.4171 6.97465C22.5691 6.96092 22.709 6.97775 22.8402 7.0194C23.1811 7.12751 23.5731 7.0368 23.7946 6.75607C23.7962 6.75398 23.7979 6.75189 23.7995 6.7498C24.124 6.34402 24.5971 6.18402 25.0634 6.16016Z" fill="#9CFF2E"/>
<path d="M18.7661 8.61906L18.9212 8.61328C19.3379 8.63909 19.6637 8.92075 19.9325 9.26051C19.9436 9.27447 19.9637 9.27737 19.9781 9.26695C20.2218 9.09203 20.4142 9.07109 20.6888 9.14676C21.0257 9.23953 21.3262 9.49254 21.5058 9.83113C21.5194 9.85676 21.5782 9.84144 21.6064 9.84008C21.9873 9.82133 22.3271 9.86156 22.626 10.1601C22.7364 10.2704 22.8087 10.4088 22.8556 10.5595C22.9373 10.8214 23.1713 10.9905 23.4305 11.0804L23.4573 11.0905C23.5174 11.1124 23.5698 11.1353 23.6227 11.1758C23.7192 11.2498 23.7778 11.3527 23.8003 11.4827L23.8051 11.5123C23.8072 11.5252 23.8089 11.538 23.8103 11.5507C23.8275 11.7063 23.9233 11.8465 24.0774 11.8739C24.2029 11.906 24.324 11.9716 24.391 12.1042C24.4443 12.2097 24.4467 12.3528 24.4203 12.4686C24.3613 12.7271 24.2123 12.9688 24.0098 13.1043C23.8371 13.2199 23.6704 13.2526 23.4979 13.2406C23.2943 13.2265 23.1062 13.3245 22.9786 13.4837C22.7634 13.7525 22.3922 13.81 22.1181 13.6328C22.0629 13.5971 21.9658 13.4868 21.915 13.4706C21.9106 13.4692 21.8537 13.5327 21.8329 13.5529C21.6735 13.7078 21.4787 13.8071 21.2673 13.811C21.0898 13.8143 20.9358 13.7205 20.7998 13.5989C20.7155 13.5236 20.6082 13.5807 20.5482 13.6764C20.5079 13.7408 20.4314 13.7793 20.364 13.7887C20.1387 13.8205 19.9408 13.7046 19.7607 13.5571C19.6627 13.4767 19.5449 13.554 19.6079 13.664C19.6656 13.7647 19.5895 13.8882 19.4789 13.853C19.1737 13.7557 18.9108 13.5539 18.7236 13.2376C18.6904 13.1814 18.6483 13.0832 18.6013 13.0244C18.5819 13.0002 18.5474 13.0068 18.5302 13.0327C18.5246 13.0411 18.5213 13.0508 18.521 13.0609C18.5206 13.0739 18.5207 13.0867 18.5212 13.0996C18.5264 13.229 18.4395 13.3483 18.311 13.3318C18.0892 13.3033 17.8818 13.2312 17.6988 13.0548L17.6893 13.0456C17.6831 13.0396 17.6741 13.0376 17.6659 13.0405C17.6573 13.0436 17.6514 13.0515 17.651 13.0606C17.6489 13.1178 17.6552 13.1609 17.6858 13.2116C17.798 13.3975 18.0431 13.5227 18.2304 13.5537L18.2619 13.5586C18.3652 13.5757 18.4656 13.5748 18.5696 13.5741C18.5925 13.574 18.6733 13.5643 18.6907 13.573C18.705 13.5802 18.7431 13.6318 18.7567 13.6468C18.8055 13.7003 18.8553 13.7525 18.9091 13.7994C19.0049 13.8829 19.1125 13.9432 19.2205 14.0026C19.4805 14.1333 19.7588 14.2053 20.0179 14.3418C20.1678 14.4207 20.2968 14.5108 20.4185 14.6392C20.4301 14.6514 20.4773 14.693 20.4825 14.7079C20.4904 14.7306 20.4789 14.8202 20.4783 14.848C20.4754 14.9881 20.4756 15.1324 20.4865 15.2721C20.5079 15.5463 20.5991 15.8199 20.7042 16.0696C20.728 16.1263 20.6987 16.1917 20.64 16.2102C20.2668 16.3239 19.8492 16.2559 19.5181 16.0285C19.3483 15.912 19.2178 15.7393 19.1279 15.5415C19.0524 15.3753 18.8599 15.276 18.6941 15.3525C18.2992 15.5105 17.9502 15.4749 17.5803 15.285C17.5567 15.2729 17.5276 15.2806 17.5137 15.3033C17.4176 15.4528 17.1832 15.5923 17.0229 15.6168C16.7237 15.6625 16.387 15.5107 16.1721 15.2744C16.1442 15.2438 16.0666 15.1116 16.0373 15.1033C16.0062 15.0944 15.91 15.1216 15.8744 15.1265C15.5303 15.1741 15.1886 15.1916 14.9007 14.9315C14.6146 14.673 14.4574 14.3114 14.3825 13.918C14.3594 13.7969 14.2717 13.6962 14.1518 13.6675C13.972 13.6113 13.8061 13.4195 13.7144 13.2389C13.635 13.0824 13.585 12.9193 13.6332 12.7382C13.7239 12.3971 14.0226 12.1219 14.2911 11.9653C14.438 11.8796 14.5832 11.8299 14.7289 11.8098C15.0762 11.762 15.3791 11.5044 15.569 11.2098C15.5715 11.2058 15.5741 11.2019 15.5768 11.1979C15.7132 10.9956 15.8951 10.8755 16.0954 10.8027C16.3047 10.7266 16.4368 10.5647 16.437 10.3419C16.437 10.3292 16.4374 10.3166 16.4383 10.3042C16.4554 10.0788 16.5261 9.87953 16.6845 9.73504C16.9197 9.52047 17.2578 9.47762 17.5454 9.54199C17.6671 9.56923 17.7743 9.51041 17.8109 9.39115C17.8448 9.28061 17.8893 9.17744 17.9585 9.07758C18.1578 8.79023 18.4577 8.66184 18.7661 8.61906Z" fill="#9CFF2E"/>
<path d="M20.7552 13.8665C20.8223 13.935 20.885 13.9874 20.9683 14.0277L20.9881 14.037C21.0047 14.5942 21.0348 15.1857 21.2007 15.7134C21.3745 16.2659 21.7075 16.769 22.0635 17.1873C22.6287 17.8514 23.2806 18.4197 23.5819 19.3184C23.6731 19.5906 23.7058 19.8551 23.7218 20.1447C24.1704 19.2706 24.396 18.3155 24.3666 17.3007L24.332 16.7958C24.3198 16.6843 24.2897 16.5508 24.3037 16.4409C24.3599 16.4193 24.4162 16.4261 24.4746 16.4283C24.5221 16.5116 24.5377 16.6691 24.5589 16.7694C24.7355 17.6037 24.7761 18.5789 24.5889 19.4149C24.472 19.9369 24.2459 20.402 24.1673 20.9431C24.0513 21.7413 24.2677 22.3984 24.6658 23.0389L24.4283 22.3108C24.3337 21.9379 24.2919 21.5699 24.3136 21.1818C24.3316 20.8615 24.4292 20.5238 24.5152 20.2202C24.6361 19.7936 24.7576 19.3496 24.9848 18.9796C25.3201 18.4336 25.7534 17.9758 26.0952 17.4338C26.3186 17.0796 26.5351 16.7063 26.7127 16.3195L26.9962 15.6536C26.8796 16.4044 26.6501 17.0982 26.2873 17.7392C25.9616 18.3145 25.5962 18.8511 25.3974 19.5063C25.1468 20.3327 25.1494 21.3316 25.3711 22.1689C25.4688 22.5381 25.6129 22.8871 25.7597 23.2335C25.7608 22.6907 25.6456 22.2296 25.4516 21.7391C25.4898 21.6243 25.6273 21.4782 25.7 21.3853C26.0287 20.9652 26.4124 20.5822 26.8196 20.265C27.1701 19.992 27.5503 19.7616 27.919 19.5222C28.8444 18.9213 29.7104 18.3119 30.3414 17.3021C30.5221 17.0129 30.6909 16.6839 30.7707 16.3378C30.9159 15.7076 30.7658 15.0435 30.4596 14.5065C30.3437 14.3033 30.2043 14.1251 30.0978 13.914C30.2678 14.0356 30.4355 14.1599 30.5807 14.3194C30.875 14.6427 31.0064 15.1485 31.0118 15.6032C31.0392 15.5295 31.0624 15.4579 31.1167 15.4042C31.4701 15.0541 31.816 14.6837 32.1947 14.3697C32.3139 14.2708 32.4425 14.1904 32.5666 14.1004C32.6473 14.042 32.7244 13.9634 32.8144 13.9258C32.7818 14.0229 32.5283 14.1788 32.449 14.2418C32.1142 14.5076 31.7947 14.8213 31.5334 15.1803C31.3837 15.3861 31.2336 15.6098 31.1253 15.8479C31.0105 16.1006 30.9334 16.3791 30.8504 16.647C30.7301 17.0352 30.608 17.4211 30.427 17.779C30.2899 18.0503 30.1217 18.2901 29.9362 18.5199C29.6333 18.8952 29.278 19.2449 28.9075 19.5298C28.428 19.8984 27.9016 20.1877 27.4407 20.5878C27.1083 20.8763 26.8222 21.2351 26.5902 21.631C26.3075 22.1134 26.0975 22.6594 26.0349 23.2392C26.0078 23.4901 26.0136 23.7434 26.0167 23.9955C26.0185 24.149 25.9961 24.3478 26.0214 24.495C26.1137 24.1172 26.1311 23.7259 26.2 23.3427C26.4168 23.2358 26.6287 23.0831 26.8349 22.9506L27.68 22.4497L29.0632 21.7357C30.2193 21.0947 31.364 20.2185 32.1087 18.997C32.2712 18.7305 32.3919 18.4427 32.5318 18.161C32.5219 18.2873 32.4851 18.4061 32.4468 18.5243C31.9182 20.1538 30.6099 21.3523 29.3038 22.14L28.3937 22.6262C27.5358 23.0818 26.6932 23.7307 26.3577 24.7927C26.1812 25.351 26.1371 25.9941 26.1143 26.5841C26.0589 28.0158 26.1596 29.4913 26.4539 30.8855C26.5975 31.5659 26.816 32.2711 27.0773 32.9044C27.2617 33.3513 27.493 33.7696 27.7559 34.1613C27.9842 34.5014 28.2428 34.8178 28.5478 35.0701C29.4283 35.7984 30.5289 35.9691 31.569 36.1951L32.4511 36.3994C32.6216 36.4426 32.7981 36.4817 32.9624 36.5496L29.9729 36.3918C29.4204 36.342 28.8438 36.272 28.3113 36.0914C27.4813 35.8099 26.7282 35.2456 26.1684 34.4912C25.4581 33.534 25.1614 32.2402 25.2524 31.0032L25.2466 31.0184C25.2135 31.1201 25.2013 31.2536 25.1835 31.361C25.0484 32.1772 25.1533 33.0629 25.447 33.8211C26.0306 35.3278 27.1433 36.3351 28.4392 36.9926C28.6817 37.1157 28.9345 37.1989 29.1809 37.3085L27.6898 37.1519C26.6356 36.9747 25.3484 36.5864 24.6846 35.5634C24.7522 35.1636 24.659 34.7362 24.5772 34.3487C24.5049 33.9575 24.4228 33.5738 24.3892 33.1743C24.3694 32.9389 24.3775 32.6978 24.3748 32.4613C24.2366 32.9622 24.2835 33.6327 24.3467 34.1493C24.3945 34.539 24.4951 35.0041 24.4011 35.3894C24.331 35.6765 24.1762 35.8723 23.9645 36.0368C23.2004 36.6307 22.1511 36.5109 21.2727 36.5633C21.0215 36.5783 20.7631 36.6188 20.5162 36.6727C19.7537 36.8393 19.0606 37.2041 18.3874 37.6344C18.6492 37.3109 18.865 36.9863 19.1863 36.7306C19.4476 36.5227 19.7396 36.3558 20.0408 36.2377C21.099 35.8229 22.3957 35.7993 23.2149 34.8139C23.6959 34.2352 23.8493 33.3402 23.8322 32.567C23.7861 32.6826 23.7784 32.8905 23.755 33.0188C23.6642 33.516 23.5177 34.0143 23.2464 34.4235C22.6633 35.3032 21.6887 35.5162 20.804 35.7484L19.8767 36.0436C19.7494 36.092 19.6253 36.1489 19.5045 36.2158C19.3747 36.2877 19.1861 36.4444 19.0486 36.4644C18.8478 36.4935 18.6103 36.4617 18.4063 36.4597L17.1909 36.4761C16.514 36.5003 15.8349 36.5556 15.1632 36.6566L14.3604 36.8038C15.1912 36.4182 16.0825 36.1859 16.9662 36.0277L18.6864 35.7862L19.8742 35.5282C20.5501 35.361 21.2179 35.1383 21.7897 34.6768C22.6448 33.9867 22.929 32.9785 23.1349 31.8589L23.3378 30.6682C23.477 29.7439 23.5601 28.7838 23.4425 27.8493C23.4331 27.7751 23.4347 27.6241 23.3996 27.5672C23.3908 27.8569 23.3999 28.1478 23.3771 28.4368C23.3073 29.3222 23.1583 30.2034 23.0282 31.0795C22.9467 31.6289 22.8932 32.1884 22.7647 32.7269C22.6928 33.0279 22.5974 33.3163 22.4601 33.5868C22.0037 34.4861 21.1232 34.9695 20.2752 35.2262C20.4058 35.1294 20.5491 35.0522 20.682 34.9583C20.8261 34.8564 20.9596 34.737 21.0867 34.6092C21.3822 34.3122 21.6431 33.9589 21.8478 33.5746C22.4153 32.5091 22.69 31.2207 22.8839 30.0042C22.9877 29.3534 23.0753 28.6972 23.1093 28.036C23.1315 27.6042 23.1389 27.1688 23.1236 26.7366C23.0973 25.9958 23.0075 25.2718 22.5552 24.6993C21.9328 23.9114 21.0364 23.5977 20.2099 23.1849C19.8289 22.9946 19.4513 22.7766 19.0925 22.5364C18.7384 22.2992 18.3826 22.0194 18.0763 21.7065C17.8256 21.4504 17.6185 21.0799 17.3171 20.9043C17.0547 20.7515 16.7246 20.7938 16.4379 20.7775C15.9112 20.7474 15.446 20.6055 14.9869 20.3085C14.7967 20.1854 14.6269 20.0592 14.4792 19.873C14.6545 19.959 14.812 20.0836 14.9831 20.1795C15.3997 20.4128 15.8534 20.5206 16.3126 20.5682C16.6196 20.6 16.9246 20.5683 17.23 20.6324C16.7386 20.0417 16.3542 19.3544 16.1994 18.5533L16.3965 19.0223C16.553 19.3645 16.7558 19.7186 16.9864 20.0004C17.2112 20.2751 17.4671 20.5045 17.7116 20.7544C18.028 21.0777 18.2924 21.4566 18.6417 21.739C18.8756 21.9281 19.1463 22.0648 19.4069 22.1986C19.8254 22.4137 20.2515 22.6096 20.6867 22.7765L21.5915 23.0939L22.974 23.6075C23.0364 23.2647 23.0482 22.9095 23.0008 22.5629C22.8229 21.2629 21.798 20.3375 20.8779 19.6791C20.421 19.3522 19.9434 19.0629 19.5099 18.6938C18.7397 18.0381 18.2249 17.1774 17.7544 16.2358C17.6847 16.0963 17.5345 15.8628 17.5137 15.7076C17.5683 15.7691 17.6083 15.8731 17.6482 15.9492L17.8767 16.3509C18.2442 16.9535 18.6443 17.5503 19.1193 18.0475C19.6206 18.5723 20.1779 18.8767 20.7817 19.2103C21.5494 19.6346 22.2804 20.2448 22.7659 21.0608C22.895 21.2778 22.9957 21.5111 23.1047 21.7416C23.452 22.4752 23.6597 23.2697 23.5922 24.1102C23.5633 24.4708 23.478 24.826 23.3881 25.1716C23.4802 25.0334 23.5415 24.827 23.5939 24.6641C23.9038 23.7013 23.7068 22.7341 23.2635 21.8726C23.1858 21.7215 23.0926 21.5833 23.0044 21.4403C22.9939 21.4234 22.9397 21.3495 22.9381 21.3329C22.9338 21.2883 22.9478 21.2186 22.9509 21.1722L22.9605 20.7997C22.9508 20.1826 22.8905 19.5417 22.7178 18.9546C22.5611 18.4215 22.2882 18.0203 21.9867 17.5874C21.5492 16.9591 21.0942 16.2074 20.9186 15.4224C20.8064 14.9212 20.779 14.3819 20.7552 13.8665Z" fill="#136D3C"/>
</g>
<defs>
<filter id="filter0_d_153_2" x="-1" y="-0.333252" width="43" height="48" filterUnits="userSpaceOnUse" color-interpolation-filters="sRGB">
<feFlood flood-opacity="0" result="BackgroundImageFix"/>
<feColorMatrix in="SourceAlpha" type="matrix" values="0 0 0 0 0 0 0 0 0 0 0 0 0 0 0 0 0 0 127 0" result="hardAlpha"/>
<feOffset dx="-4" dy="4"/>
<feGaussianBlur stdDeviation="2"/>
<feComposite in2="hardAlpha" operator="out"/>
<feColorMatrix type="matrix" values="0 0 0 0 0 0 0 0 0 0 0 0 0 0 0 0 0 0 0.25 0"/>
<feBlend mode="normal" in2="BackgroundImageFix" result="effect1_dropShadow_153_2"/>
<feBlend mode="normal" in="SourceGraphic" in2="effect1_dropShadow_153_2" result="shape"/>
</filter>
<linearGradient id="paint0_linear_153_2" x1="24.5088" y1="1.01025" x2="24.5088" y2="26.1416" gradientUnits="userSpaceOnUse">
<stop offset="0.147925" stop-color="#8DFF00"/>
<stop offset="0.399984" stop-color="#3F9C28"/>
<stop offset="0.798481" stop-color="#136D3C"/>
</linearGradient>
</defs>
</svg>
