<svg width="45" height="43" viewBox="0 0 45 43" fill="none" xmlns="http://www.w3.org/2000/svg">
<g filter="url(#filter0_d_90_141)">
<path d="M32.5205 25.1064C32.5205 26.7252 31.2226 28.0231 29.6038 28.0231C27.9851 28.0231 26.6872 26.7252 26.6872 25.1064C26.6872 23.4877 27.9997 22.1898 29.6038 22.1898C31.208 22.1898 32.5205 23.5023 32.5205 25.1064ZM19.3955 22.1898C17.7913 22.1898 16.4788 23.5023 16.4788 25.1064C16.4788 26.7106 17.7913 28.0231 19.3955 28.0231C20.9997 28.0231 22.3122 26.7252 22.3122 25.1064C22.3122 23.4877 21.0143 22.1898 19.3955 22.1898ZM40.5413 24.3773V28.7523C40.5413 29.5544 39.8851 30.2106 39.083 30.2106H37.6247V31.6689C37.6247 33.2877 36.3268 34.5856 34.708 34.5856H14.2913C12.6872 34.5856 11.3747 33.2877 11.3747 31.6689V30.2106H9.91634C9.11426 30.2106 8.45801 29.5544 8.45801 28.7523V24.3773C8.45801 23.5752 9.11426 22.9189 9.91634 22.9189H11.3747C11.3747 17.2752 15.9393 12.7106 21.583 12.7106H23.0413V10.8585C22.1663 10.3627 21.583 9.41478 21.583 8.33561C21.583 6.73145 22.8955 5.41895 24.4997 5.41895C26.1038 5.41895 27.4163 6.73145 27.4163 8.33561C27.4163 9.41478 26.833 10.3627 25.958 10.8585V12.7106H27.4163C33.0601 12.7106 37.6247 17.2752 37.6247 22.9189H39.083C39.8851 22.9189 40.5413 23.5752 40.5413 24.3773Z" fill="url(#paint0_linear_90_141)"/>
</g>
<path d="M32.5205 25.1064C32.5205 26.7252 31.2226 28.0231 29.6038 28.0231C27.9851 28.0231 26.6872 26.7252 26.6872 25.1064C26.6872 23.4877 27.9997 22.1898 29.6038 22.1898C31.208 22.1898 32.5205 23.5023 32.5205 25.1064ZM19.3955 22.1898C17.7913 22.1898 16.4788 23.5023 16.4788 25.1064C16.4788 26.7106 17.7913 28.0231 19.3955 28.0231C20.9997 28.0231 22.3122 26.7252 22.3122 25.1064C22.3122 23.4877 21.0143 22.1898 19.3955 22.1898ZM40.5413 24.3773V28.7523C40.5413 29.5544 39.8851 30.2106 39.083 30.2106H37.6247V31.6689C37.6247 33.2877 36.3268 34.5856 34.708 34.5856H14.2913C12.6872 34.5856 11.3747 33.2877 11.3747 31.6689V30.2106H9.91634C9.11426 30.2106 8.45801 29.5544 8.45801 28.7523V24.3773C8.45801 23.5752 9.11426 22.9189 9.91634 22.9189H11.3747C11.3747 17.2752 15.9393 12.7106 21.583 12.7106H23.0413V10.8585C22.1663 10.3627 21.583 9.41478 21.583 8.33561C21.583 6.73145 22.8955 5.41895 24.4997 5.41895C26.1038 5.41895 27.4163 6.73145 27.4163 8.33561C27.4163 9.41478 26.833 10.3627 25.958 10.8585V12.7106H27.4163C33.0601 12.7106 37.6247 17.2752 37.6247 22.9189H39.083C39.8851 22.9189 40.5413 23.5752 40.5413 24.3773ZM37.6247 25.8356H34.708V22.9189C34.708 18.8939 31.4413 15.6273 27.4163 15.6273H21.583C17.558 15.6273 14.2913 18.8939 14.2913 22.9189V25.8356H11.3747V27.2939H14.2913V31.6689H34.708V27.2939H37.6247V25.8356Z" fill="url(#paint1_linear_90_141)"/>
<g filter="url(#filter1_d_90_141)">
<path d="M32.5212 25.1064C32.5212 26.7251 31.2232 28.023 29.6045 28.023C27.9857 28.023 26.6878 26.7251 26.6878 25.1064C26.6878 23.4876 28.0003 22.1897 29.6045 22.1897C31.2087 22.1897 32.5212 23.5022 32.5212 25.1064ZM19.3962 22.1897C17.792 22.1897 16.4795 23.5022 16.4795 25.1064C16.4795 26.7105 17.792 28.023 19.3962 28.023C21.0003 28.023 22.3128 26.7251 22.3128 25.1064C22.3128 23.4876 21.0149 22.1897 19.3962 22.1897Z" fill="white"/>
</g>
<defs>
<filter id="filter0_d_90_141" x="0.458008" y="5.41895" width="40.083" height="37.1667" filterUnits="userSpaceOnUse" color-interpolation-filters="sRGB">
<feFlood flood-opacity="0" result="BackgroundImageFix"/>
<feColorMatrix in="SourceAlpha" type="matrix" values="0 0 0 0 0 0 0 0 0 0 0 0 0 0 0 0 0 0 127 0" result="hardAlpha"/>
<feOffset dx="-4" dy="4"/>
<feGaussianBlur stdDeviation="2"/>
<feComposite in2="hardAlpha" operator="out"/>
<feColorMatrix type="matrix" values="0 0 0 0 0 0 0 0 0 0 0 0 0 0 0 0 0 0 0.25 0"/>
<feBlend mode="normal" in2="BackgroundImageFix" result="effect1_dropShadow_90_141"/>
<feBlend mode="normal" in="SourceGraphic" in2="effect1_dropShadow_90_141" result="shape"/>
</filter>
<filter id="filter1_d_90_141" x="13.4795" y="21.1897" width="20.042" height="9.83325" filterUnits="userSpaceOnUse" color-interpolation-filters="sRGB">
<feFlood flood-opacity="0" result="BackgroundImageFix"/>
<feColorMatrix in="SourceAlpha" type="matrix" values="0 0 0 0 0 0 0 0 0 0 0 0 0 0 0 0 0 0 127 0" result="hardAlpha"/>
<feOffset dx="-1" dy="1"/>
<feGaussianBlur stdDeviation="1"/>
<feComposite in2="hardAlpha" operator="out"/>
<feColorMatrix type="matrix" values="0 0 0 0 0 0 0 0 0 0.203167 0 0 0 0 0.441667 0 0 0 0.3 0"/>
<feBlend mode="normal" in2="BackgroundImageFix" result="effect1_dropShadow_90_141"/>
<feBlend mode="normal" in="SourceGraphic" in2="effect1_dropShadow_90_141" result="shape"/>
</filter>
<linearGradient id="paint0_linear_90_141" x1="8.45801" y1="5.41895" x2="41.9649" y2="32.8466" gradientUnits="userSpaceOnUse">
<stop offset="0.299679" stop-color="#0066FF"/>
<stop offset="0.467814" stop-color="#1EB6FF"/>
<stop offset="0.654154" stop-color="#006DBC"/>
<stop offset="1" stop-color="#00397C"/>
</linearGradient>
<linearGradient id="paint1_linear_90_141" x1="8.45801" y1="5.41895" x2="41.9649" y2="32.8466" gradientUnits="userSpaceOnUse">
<stop stop-color="#1EB6FF"/>
<stop offset="0.467814" stop-color="#00FFFF"/>
<stop offset="0.640625" stop-color="#1EB6FF"/>
<stop offset="1" stop-color="#0075FF"/>
</linearGradient>
</defs>
</svg>
