<svg width="42" height="44" viewBox="0 0 42 44" fill="none" xmlns="http://www.w3.org/2000/svg">
<g filter="url(#filter0_d_87_88)">
<path d="M20.3323 22.7682L25.282 27.718L20.4891 32.5109C19.8392 33.1608 19.0189 33.6287 18.1187 33.814C10.0422 35.4771 7.62344 33.0583 9.28654 24.9818C9.47191 24.0815 9.93973 23.2613 10.5896 22.6114L15.3825 17.8185L20.3323 22.7682L31.4921 11.6084L31.7861 5.28862L37.8119 11.3144L31.4921 11.6084L20.3323 22.7682Z" fill="#714B24"/>
<path d="M25.282 27.718L25.8123 28.2483C26.1052 27.9554 26.1052 27.4806 25.8123 27.1877L25.282 27.718ZM15.3825 17.8185L15.9128 17.2882C15.6199 16.9953 15.1451 16.9953 14.8522 17.2882L15.3825 17.8185ZM9.28654 24.9818L8.55195 24.8305L9.28654 24.9818ZM18.1187 33.814L17.9674 33.0794L18.1187 33.814ZM15.4617 26.5781C15.1688 26.871 15.1688 27.3459 15.4617 27.6388C15.7546 27.9317 16.2295 27.9317 16.5224 27.6388L15.4617 26.5781ZM37.8119 11.3144L37.8467 12.0636C38.1434 12.0498 38.404 11.8622 38.5113 11.5852C38.6185 11.3083 38.5522 10.9941 38.3422 10.7841L37.8119 11.3144ZM31.7861 5.28862L32.3164 4.75829C32.1064 4.54827 31.7922 4.48198 31.5153 4.58923C31.2383 4.69648 31.0507 4.95708 31.0369 5.25377L31.7861 5.28862ZM25.8123 27.1877L20.8626 22.2379L19.8019 23.2986L24.7517 28.2483L25.8123 27.1877ZM20.8626 22.2379L15.9128 17.2882L14.8522 18.3488L19.8019 23.2986L20.8626 22.2379ZM14.8522 17.2882L10.0593 22.081L11.12 23.1417L15.9128 18.3488L14.8522 17.2882ZM8.55195 24.8305C8.12942 26.8824 7.9538 28.6291 8.08214 30.0695C8.21102 31.5161 8.65282 32.7135 9.51991 33.5806C10.387 34.4477 11.5844 34.8895 13.0309 35.0184C14.4714 35.1467 16.218 34.9711 18.2699 34.5486L17.9674 33.0794C15.9811 33.4884 14.3967 33.6341 13.1641 33.5243C11.9376 33.415 11.1198 33.0592 10.5806 32.5199C10.0413 31.9807 9.68549 31.1629 9.57622 29.9364C9.4664 28.7038 9.6121 27.1194 10.0211 25.133L8.55195 24.8305ZM21.0194 33.0412L25.8123 28.2483L24.7517 27.1877L19.9588 31.9806L21.0194 33.0412ZM16.5224 27.6388L20.8626 23.2986L19.8019 22.2379L15.4617 26.5781L16.5224 27.6388ZM20.8626 23.2986L32.0224 12.1387L30.9618 11.0781L19.8019 22.2379L20.8626 23.2986ZM31.527 12.3576L37.8467 12.0636L37.777 10.5652L31.4573 10.8592L31.527 12.3576ZM38.3422 10.7841L32.3164 4.75829L31.2558 5.81895L37.2816 11.8447L38.3422 10.7841ZM31.0369 5.25377L30.7429 11.5735L32.2413 11.6432L32.5353 5.32348L31.0369 5.25377ZM18.2699 34.5486C19.3263 34.3311 20.2752 33.7854 21.0194 33.0412L19.9588 31.9806C19.4031 32.5362 18.7116 32.9262 17.9674 33.0794L18.2699 34.5486ZM10.0593 22.081C9.31512 22.8252 8.76946 23.7742 8.55195 24.8305L10.0211 25.133C10.1744 24.3889 10.5643 23.6973 11.12 23.1417L10.0593 22.081Z" fill="url(#paint0_linear_87_88)"/>
</g>
<defs>
<filter id="filter0_d_87_88" x="-6" y="0" width="48" height="48" filterUnits="userSpaceOnUse" color-interpolation-filters="sRGB">
<feFlood flood-opacity="0" result="BackgroundImageFix"/>
<feColorMatrix in="SourceAlpha" type="matrix" values="0 0 0 0 0 0 0 0 0 0 0 0 0 0 0 0 0 0 127 0" result="hardAlpha"/>
<feOffset dx="-4" dy="4"/>
<feGaussianBlur stdDeviation="2"/>
<feComposite in2="hardAlpha" operator="out"/>
<feColorMatrix type="matrix" values="0 0 0 0 0 0 0 0 0 0 0 0 0 0 0 0 0 0 0.25 0"/>
<feBlend mode="normal" in2="BackgroundImageFix" result="effect1_dropShadow_87_88"/>
<feBlend mode="normal" in="SourceGraphic" in2="effect1_dropShadow_87_88" result="shape"/>
</filter>
<linearGradient id="paint0_linear_87_88" x1="10.0503" y1="33.0503" x2="34.799" y2="8.30151" gradientUnits="userSpaceOnUse">
<stop stop-color="#995C00"/>
<stop offset="0.494792" stop-color="#FFBB00"/>
<stop offset="1" stop-color="#916119"/>
</linearGradient>
</defs>
</svg>
