<svg width="18" height="17" viewBox="0 0 18 17" fill="none" xmlns="http://www.w3.org/2000/svg">
<path d="M9 0.618034L10.6574 5.71885C10.7912 6.13087 11.1752 6.40983 11.6084 6.40983H16.9717L12.6327 9.56231C12.2822 9.81695 12.1356 10.2683 12.2694 10.6803L13.9268 15.7812L9.58779 12.6287C9.2373 12.374 8.7627 12.374 8.41222 12.6287L4.0732 15.7812L5.73056 10.6803C5.86443 10.2683 5.71777 9.81695 5.36729 9.56231L5.07339 9.96681L5.36729 9.56231L1.02828 6.40983H6.39159C6.82481 6.40983 7.20877 6.13087 7.34265 5.71885L9 0.618034Z" fill="url(#paint0_linear_89_128)" stroke="url(#paint1_linear_89_128)"/>
<defs>
<linearGradient id="paint0_linear_89_128" x1="9" y1="-1" x2="9" y2="19" gradientUnits="userSpaceOnUse">
<stop stop-color="#F69002"/>
<stop offset="0.494792" stop-color="#FFEA60"/>
<stop offset="1" stop-color="#F69002"/>
</linearGradient>
<linearGradient id="paint1_linear_89_128" x1="-1" y1="-1" x2="19" y2="19" gradientUnits="userSpaceOnUse">
<stop stop-color="#FF7A00"/>
<stop offset="0.500334" stop-color="#FFD600"/>
<stop offset="1" stop-color="#FF8A00"/>
</linearGradient>
</defs>
</svg>
