<svg width="50" height="50" viewBox="0 0 50 50" fill="none" xmlns="http://www.w3.org/2000/svg">
<g clip-path="url(#clip0_139_366)">
<path d="M25.0001 2.77734C20.6049 2.77734 16.3085 4.08065 12.6541 6.52246C8.99963 8.96427 6.15136 12.4349 4.46941 16.4955C2.78746 20.5561 2.34739 25.0242 3.20484 29.3349C4.06229 33.6456 6.17875 37.6052 9.28658 40.713C12.3944 43.8209 16.354 45.9373 20.6647 46.7948C24.9754 47.6522 29.4436 47.2122 33.5041 45.5302C37.5647 43.8483 41.0354 41 43.4772 37.3456C45.919 33.6911 47.2223 29.3947 47.2223 24.9996C47.2223 19.1059 44.881 13.4536 40.7135 9.28608C36.5461 5.11861 30.8938 2.77734 25.0001 2.77734ZM25.0001 44.444C21.1543 44.444 17.3949 43.3036 14.1973 41.167C10.9997 39.0304 8.50744 35.9936 7.03574 32.4406C5.56404 28.8876 5.17897 24.978 5.92924 21.2061C6.67951 17.4343 8.53141 13.9696 11.2508 11.2503C13.9701 8.53091 17.4348 6.67901 21.2066 5.92874C24.9785 5.17847 28.8881 5.56354 32.4411 7.03524C35.9941 8.50695 39.0309 10.9992 41.1675 14.1968C43.3041 17.3944 44.4445 21.1538 44.4445 24.9996C44.4445 30.1566 42.3959 35.1023 38.7494 38.7489C35.1028 42.3954 30.1571 44.444 25.0001 44.444Z" fill="white"/>
<path d="M38.8887 16.8052C38.6285 16.5466 38.2765 16.4014 37.9096 16.4014C37.5427 16.4014 37.1906 16.5466 36.9304 16.8052L21.5137 32.1525L13.1804 23.8191C12.9262 23.5447 12.5735 23.3825 12.1997 23.3682C11.8259 23.3538 11.4618 23.4886 11.1874 23.7427C10.9129 23.9969 10.7507 24.3497 10.7364 24.7235C10.7221 25.0972 10.8568 25.4614 11.111 25.7358L21.5137 36.1108L38.8887 18.7775C39.0189 18.6484 39.1222 18.4947 39.1928 18.3255C39.2633 18.1562 39.2996 17.9747 39.2996 17.7914C39.2996 17.608 39.2633 17.4265 39.1928 17.2572C39.1222 17.088 39.0189 16.9344 38.8887 16.8052Z" fill="white"/>
</g>
<defs>
<clipPath id="clip0_139_366">
<rect width="50" height="50" fill="white"/>
</clipPath>
</defs>
</svg>
