<svg width="43" height="51" viewBox="0 0 43 51" fill="none" xmlns="http://www.w3.org/2000/svg">
<g filter="url(#filter0_d_89_48)">
<path d="M21.5729 6.51156C17.3813 4.98597 12.7611 7.09533 11.2598 11.22C10.6126 12.9983 10.6521 14.8744 11.2322 16.541C11.3762 16.9488 11.6364 17.1789 11.9249 17.2839C12.6691 17.5547 13.6224 16.9201 13.2565 15.9408C12.7845 14.6858 12.7598 13.289 13.2493 11.9441C14.3589 8.89542 17.7622 7.34165 20.8603 8.46927C23.9584 9.59688 25.5516 12.9692 24.442 16.0179C24.4093 16.1075 24.3767 16.1972 24.3277 16.3317C24.0981 17.0097 24.4602 17.4799 24.9461 17.6568C25.4169 17.8282 26.0226 17.6763 26.2584 17.1698C26.3117 17.0707 26.3606 16.9362 26.4313 16.7419C27.9326 12.6173 25.7644 8.03715 21.5729 6.51156Z" fill="#FF9900"/>
<path d="M23.5119 42.8193C30.0061 42.8511 34.3605 38.5414 34.3353 31.4069L34.317 28.0805C34.3032 24.5614 32.6248 22.5093 29.7606 22.4546C29.4124 21.3401 28.4655 20.6553 27.191 20.6449C26.7142 20.6495 26.2743 20.7323 25.8479 20.8686C25.4389 19.6509 24.4206 18.8916 23.0832 18.8745C22.7231 18.873 22.3568 18.934 21.9946 19.0288L21.9688 13.967C21.9659 12.0389 20.6778 10.7603 18.8635 10.7477C17.0294 10.7441 15.7345 12.0056 15.7374 13.9337L15.7955 26.6508C15.7839 26.7276 15.7486 26.7795 15.6804 26.787C15.612 26.7946 15.5646 26.7449 15.5368 26.6862L14.51 24.2397C13.9934 23.0476 13.0938 22.4126 11.9994 22.4028C10.4912 22.4044 9.18465 23.3378 9.19845 25.0108C9.1922 25.4782 9.29946 26.084 9.48131 26.6199L12.2065 34.1701C14.2893 39.8836 18.0781 42.801 23.5119 42.8193Z" fill="url(#paint0_linear_89_48)"/>
<path d="M23.5119 42.8193C30.0061 42.8511 34.3605 38.5414 34.3353 31.4069L34.317 28.0805C34.3032 24.5614 32.6248 22.5093 29.7606 22.4546C29.4124 21.3401 28.4655 20.6553 27.191 20.6449C26.7142 20.6495 26.2743 20.7323 25.8479 20.8686C25.4389 19.6509 24.4206 18.8916 23.0832 18.8745C22.7231 18.873 22.3568 18.934 21.9946 19.0288L21.9688 13.967C21.9659 12.0389 20.6778 10.7603 18.8635 10.7477C17.0294 10.7441 15.7345 12.0056 15.7374 13.9337L15.7955 26.6508C15.7839 26.7276 15.7486 26.7795 15.6804 26.787C15.612 26.7946 15.5646 26.7449 15.5368 26.6862L14.51 24.2397C13.9934 23.0476 13.0938 22.4126 11.9994 22.4028C10.4912 22.4044 9.18465 23.3378 9.19845 25.0108C9.1922 25.4782 9.29946 26.084 9.48131 26.6199L12.2065 34.1701C14.2893 39.8836 18.0781 42.801 23.5119 42.8193ZM23.586 40.7248C19.2807 40.7124 15.9905 38.7214 14.1 33.5153L11.3355 25.9829C11.2532 25.7587 11.2092 25.5645 11.2108 25.2898C11.2037 24.7691 11.5989 24.3137 12.2216 24.3136C12.7419 24.3248 13.0557 24.6333 13.2769 25.1511L15.3901 29.7906C15.7318 30.5628 16.2029 30.7991 16.7574 30.8064C17.3946 30.8117 17.8447 30.2954 17.8514 29.6015L17.7838 13.8041C17.7894 13.1583 18.2332 12.7045 18.8704 12.7097C19.5076 12.7149 19.9296 13.1762 19.924 13.8219L19.9823 25.0979C19.9697 25.6277 20.427 26.0371 20.967 26.0392C21.4925 26.0361 21.9351 25.6306 21.9279 25.1097L21.9176 21.0412C22.1734 20.9238 22.5303 20.8433 22.8273 20.8379C23.5959 20.8424 24.0654 21.3534 24.0563 22.1435L24.0741 25.6965C24.0853 26.2512 24.5531 26.6319 25.0786 26.6289C25.5844 26.6349 26.031 26.2631 26.0252 25.6941L26.0255 22.8117C26.2812 22.6942 26.6383 22.6137 26.9351 22.6085C27.7038 22.6128 28.1588 23.1185 28.1643 23.914L28.1858 26.2862C28.1772 26.8498 28.645 27.2306 29.1705 27.2276C29.6763 27.2336 30.1427 26.8527 30.1315 26.298L30.1293 24.5482C31.4864 24.5564 32.2756 25.9449 32.2909 28.3795L32.298 31.1512C32.3275 37.2833 29.0199 40.7432 23.586 40.7248Z" fill="#FF9900"/>
</g>
<defs>
<filter id="filter0_d_89_48" x="-7.43555" y="0.0759277" width="49.8711" height="55.8484" filterUnits="userSpaceOnUse" color-interpolation-filters="sRGB">
<feFlood flood-opacity="0" result="BackgroundImageFix"/>
<feColorMatrix in="SourceAlpha" type="matrix" values="0 0 0 0 0 0 0 0 0 0 0 0 0 0 0 0 0 0 127 0" result="hardAlpha"/>
<feOffset dx="-4" dy="4"/>
<feGaussianBlur stdDeviation="2"/>
<feComposite in2="hardAlpha" operator="out"/>
<feColorMatrix type="matrix" values="0 0 0 0 0 0 0 0 0 0 0 0 0 0 0 0 0 0 0.25 0"/>
<feBlend mode="normal" in2="BackgroundImageFix" result="effect1_dropShadow_89_48"/>
<feBlend mode="normal" in="SourceGraphic" in2="effect1_dropShadow_89_48" result="shape"/>
</filter>
<linearGradient id="paint0_linear_89_48" x1="14.8145" y1="9.0542" x2="29.9134" y2="46.0417" gradientUnits="userSpaceOnUse">
<stop offset="0.354" stop-color="#FFD600"/>
<stop offset="0.599" stop-color="#FFEB67"/>
<stop offset="0.844" stop-color="#FFC700"/>
</linearGradient>
</defs>
</svg>
