<svg width="46" height="50" viewBox="0 0 46 50" fill="none" xmlns="http://www.w3.org/2000/svg">
<g filter="url(#filter0_d_589_2)">
<path d="M18.334 11H16.6673C14.8264 11 13.334 12.4551 13.334 14.25V33.75C13.334 35.545 14.8264 37 16.6673 37H30.0007C31.8417 37 33.334 35.545 33.334 33.75V32.125" fill="#AE1C30"/>
<path d="M18.334 11H16.6673C14.8264 11 13.334 12.4551 13.334 14.25V33.75C13.334 35.545 14.8264 37 16.6673 37H30.0007C31.8417 37 33.334 35.545 33.334 33.75V32.125" stroke="url(#paint0_linear_589_2)" stroke-width="1.5" stroke-linecap="round"/>
</g>
<path d="M38.333 15.7837H31.6663C29.8253 15.7837 28.333 14.3286 28.333 12.5337V6.03369M38.333 15.5049V28.7837C38.333 30.5787 36.8407 32.0337 34.9997 32.0337H21.6663C19.8254 32.0337 18.333 30.5787 18.333 28.7837V9.28369C18.333 7.48877 19.8254 6.03369 21.6663 6.03369H28.619C29.503 6.03369 30.3508 6.3761 30.976 6.9856L37.3567 13.2068C37.9818 13.8163 38.333 14.6429 38.333 15.5049Z" fill="url(#paint1_linear_589_2)"/>
<path d="M38.333 15.7837H31.6663C29.8253 15.7837 28.333 14.3286 28.333 12.5337V6.03369M38.333 15.5049V28.7837C38.333 30.5787 36.8407 32.0337 34.9997 32.0337H21.6663C19.8254 32.0337 18.333 30.5787 18.333 28.7837V9.28369C18.333 7.48877 19.8254 6.03369 21.6663 6.03369H28.619C29.503 6.03369 30.3508 6.3761 30.976 6.9856L37.3567 13.2068C37.9818 13.8163 38.333 14.6429 38.333 15.5049Z" stroke="url(#paint2_linear_589_2)" stroke-width="1.5" stroke-linecap="round"/>
<path d="M22.5 22H34.5" stroke="#A01126" stroke-width="1.5" stroke-linecap="round"/>
<path d="M22.5 26L34.5 26" stroke="#9D1125" stroke-width="1.5" stroke-linecap="round"/>
<g filter="url(#filter1_d_589_2)">
<rect x="35" y="2" width="9" height="9" rx="4.5" fill="#FF4D00"/>
</g>
<defs>
<filter id="filter0_d_589_2" x="0.583984" y="6.25" width="37.5" height="43.5" filterUnits="userSpaceOnUse" color-interpolation-filters="sRGB">
<feFlood flood-opacity="0" result="BackgroundImageFix"/>
<feColorMatrix in="SourceAlpha" type="matrix" values="0 0 0 0 0 0 0 0 0 0 0 0 0 0 0 0 0 0 127 0" result="hardAlpha"/>
<feOffset dx="-4" dy="4"/>
<feGaussianBlur stdDeviation="4"/>
<feComposite in2="hardAlpha" operator="out"/>
<feColorMatrix type="matrix" values="0 0 0 0 0 0 0 0 0 0 0 0 0 0 0 0 0 0 0.25 0"/>
<feBlend mode="normal" in2="BackgroundImageFix" result="effect1_dropShadow_589_2"/>
<feBlend mode="normal" in="SourceGraphic" in2="effect1_dropShadow_589_2" result="shape"/>
</filter>
<filter id="filter1_d_589_2" x="33.2" y="0.2" width="12.6" height="12.6" filterUnits="userSpaceOnUse" color-interpolation-filters="sRGB">
<feFlood flood-opacity="0" result="BackgroundImageFix"/>
<feColorMatrix in="SourceAlpha" type="matrix" values="0 0 0 0 0 0 0 0 0 0 0 0 0 0 0 0 0 0 127 0" result="hardAlpha"/>
<feOffset/>
<feGaussianBlur stdDeviation="0.9"/>
<feComposite in2="hardAlpha" operator="out"/>
<feColorMatrix type="matrix" values="0 0 0 0 1 0 0 0 0 0.301961 0 0 0 0 0 0 0 0 1 0"/>
<feBlend mode="normal" in2="BackgroundImageFix" result="effect1_dropShadow_589_2"/>
<feBlend mode="normal" in="SourceGraphic" in2="effect1_dropShadow_589_2" result="shape"/>
</filter>
<linearGradient id="paint0_linear_589_2" x1="13.334" y1="11" x2="32.6905" y2="37.4705" gradientUnits="userSpaceOnUse">
<stop stop-color="#AE1C30"/>
<stop offset="0.50355" stop-color="#860D2A"/>
<stop offset="1" stop-color="#6C150D"/>
</linearGradient>
<linearGradient id="paint1_linear_589_2" x1="18.333" y1="6.00096" x2="37.6988" y2="31.9478" gradientUnits="userSpaceOnUse">
<stop stop-color="#F77248"/>
<stop offset="0.494792" stop-color="#CB3439"/>
<stop offset="1" stop-color="#A3042A"/>
</linearGradient>
<linearGradient id="paint2_linear_589_2" x1="28.333" y1="6.00096" x2="28.333" y2="32.001" gradientUnits="userSpaceOnUse">
<stop stop-color="#DB0D3E"/>
<stop offset="1" stop-color="#6F1411"/>
</linearGradient>
</defs>
</svg>
