<svg width="64" height="64" viewBox="0 0 64 64" fill="none" xmlns="http://www.w3.org/2000/svg">
<g clip-path="url(#clip0_242_166)" filter="url(#filter0_d_242_166)">
<path d="M32 56C47.464 56 60 43.464 60 28C60 12.536 47.464 0 32 0C16.536 0 4 12.536 4 28C4 43.464 16.536 56 32 56Z" fill="url(#paint0_linear_242_166)"/>
<g filter="url(#filter1_d_242_166)">
<path d="M41.5602 15.6277H22.4385C18.9227 15.6277 16.6943 19.4202 18.4631 22.4861L30.2643 42.9409C31.0344 44.2765 32.9643 44.2765 33.7344 42.9409L45.538 22.4861C47.3044 19.4251 45.076 15.6277 41.5626 15.6277H41.5602ZM30.2547 36.8068L27.6846 31.8327L21.4832 20.7414C21.0741 20.0315 21.5794 19.1218 22.4361 19.1218H30.2523V36.8092L30.2547 36.8068ZM42.5107 20.739L36.3117 31.8351L33.7416 36.8068V19.1194H41.5578C42.4145 19.1194 42.9198 20.0291 42.5107 20.739Z" fill="white"/>
</g>
</g>
<defs>
<filter id="filter0_d_242_166" x="0" y="0" width="64" height="64" filterUnits="userSpaceOnUse" color-interpolation-filters="sRGB">
<feFlood flood-opacity="0" result="BackgroundImageFix"/>
<feColorMatrix in="SourceAlpha" type="matrix" values="0 0 0 0 0 0 0 0 0 0 0 0 0 0 0 0 0 0 127 0" result="hardAlpha"/>
<feOffset dy="4"/>
<feGaussianBlur stdDeviation="2"/>
<feComposite in2="hardAlpha" operator="out"/>
<feColorMatrix type="matrix" values="0 0 0 0 0 0 0 0 0 0 0 0 0 0 0 0 0 0 0.25 0"/>
<feBlend mode="normal" in2="BackgroundImageFix" result="effect1_dropShadow_242_166"/>
<feBlend mode="normal" in="SourceGraphic" in2="effect1_dropShadow_242_166" result="shape"/>
</filter>
<filter id="filter1_d_242_166" x="13.8428" y="15.6277" width="36.3145" height="36.3149" filterUnits="userSpaceOnUse" color-interpolation-filters="sRGB">
<feFlood flood-opacity="0" result="BackgroundImageFix"/>
<feColorMatrix in="SourceAlpha" type="matrix" values="0 0 0 0 0 0 0 0 0 0 0 0 0 0 0 0 0 0 127 0" result="hardAlpha"/>
<feOffset dy="4"/>
<feGaussianBlur stdDeviation="2"/>
<feComposite in2="hardAlpha" operator="out"/>
<feColorMatrix type="matrix" values="0 0 0 0 0.716667 0 0 0 0 0.387 0 0 0 0 0 0 0 0 1 0"/>
<feBlend mode="normal" in2="BackgroundImageFix" result="effect1_dropShadow_242_166"/>
<feBlend mode="normal" in="SourceGraphic" in2="effect1_dropShadow_242_166" result="shape"/>
</filter>
<linearGradient id="paint0_linear_242_166" x1="32" y1="0" x2="32" y2="56" gradientUnits="userSpaceOnUse">
<stop stop-color="#FCFF67"/>
<stop offset="0.494792" stop-color="#FFD600"/>
<stop offset="1" stop-color="#F69002"/>
</linearGradient>
<clipPath id="clip0_242_166">
<rect width="56" height="56" fill="white" transform="translate(4)"/>
</clipPath>
</defs>
</svg>
