<svg width="300" height="348" viewBox="0 0 300 348" fill="none" xmlns="http://www.w3.org/2000/svg">
<path d="M156.45 16.8732C153.173 13.0816 148.744 11.2156 144.109 11.7666C142.082 12.1371 140.092 12.7194 138.307 13.9362C137.975 14.1626 136.343 15.7278 136.182 15.7191C136.114 15.7154 136.067 15.6321 136.009 15.5893C132.512 13.0135 128.535 12.1612 124.484 13.2467C120.542 14.3031 117.271 17.0374 115.152 21.033L114.807 21.7113C114.696 21.9309 114.441 22.0353 114.204 21.9665C110.674 20.9386 106.886 21.4249 103.68 23.5029C100.819 25.3568 98.5595 28.5062 97.6762 32.182C97.3093 33.7091 97.1369 35.1536 97.1149 36.7159C97.1115 36.9557 96.9422 37.1618 96.7075 37.2111C92.311 38.134 88.7032 40.0372 85.9795 44.4158L85.2869 45.7177C85.1772 45.9239 84.9394 46.026 84.713 45.9687C80.2321 44.8349 76.1421 45.3249 72.1461 48.2003C70.6434 49.2815 69.3635 50.7587 68.3255 52.411C68.2318 52.56 68.2169 52.588 68.1762 52.6319C68.0676 52.7486 67.9048 52.8 67.7466 52.7806C63.325 52.2383 59.3078 52.9969 55.7331 56.313C53.7339 58.1675 52.1776 60.5108 51.3907 63.3502C51.3019 63.6709 50.8417 66.0202 50.7655 66.0905C50.7468 66.1081 50.1541 66.1539 50.0782 66.1621C49.3183 66.2469 48.5621 66.3531 47.8127 66.5235C42.6137 67.7051 37.6713 72.0353 37.0748 78.5054C36.78 81.7062 37.5263 84.3994 38.4939 87.3049C38.5778 87.557 38.4512 87.8305 38.207 87.9351C35.0485 89.2869 31.9977 91.6175 30.4669 95.2088C28.8203 99.0724 29.0619 102.494 30.0399 106.445C30.1089 106.724 29.9331 107.005 29.6538 107.072C25.9294 107.962 22.3278 110.368 20.1139 113.984C18.5228 116.582 17.6509 120.061 18.1487 123.236C18.3355 124.427 18.6954 125.582 19.0886 126.704C19.1656 126.924 19.0823 127.167 18.8902 127.298C16.0946 129.21 13.9152 132.185 12.9897 135.832C12.0742 139.439 12.5504 143.271 14.1341 146.536L14.9883 148.078C15.0667 148.22 15.0713 148.391 15.0027 148.537C13.4061 151.954 12.7436 155.395 13.6965 159.245C14.6828 163.23 17.0966 166.819 20.245 168.798L22.8944 170.155C23.0958 170.258 23.2026 170.483 23.1575 170.705C22.1568 175.625 22.0448 181.675 24.3351 186.131C26.1016 189.567 28.9898 191.976 32.3322 192.951C33.3881 193.259 34.446 193.324 35.53 193.371C35.8435 193.384 36.5937 193.291 36.8551 193.396C37.3774 193.603 38.264 194.749 38.7843 195.166C41.6788 197.484 45.316 198.312 48.7402 197.415C48.9245 197.367 49.122 197.421 49.252 197.561C53.0746 201.656 57.3621 204.154 62.6864 203.943C65.1649 203.844 67.5804 203.027 69.7264 201.589C70.6179 200.992 71.4022 200.245 72.1853 199.475C72.3359 199.327 73.3203 198.26 73.4685 198.268C73.8087 198.288 74.4347 198.645 74.7866 198.766C75.5278 199.021 76.2922 199.163 77.0562 199.291C82.2027 200.151 88.4651 200.72 91.1739 196.557C91.352 196.284 91.7356 196.205 91.9915 196.408C94.121 198.096 103.112 204.45 117.827 204.5C117.938 204.5 118.048 204.537 118.135 204.604L150.63 229.714C150.838 229.875 151.136 229.847 151.31 229.65L173.851 204.169C173.946 204.061 174.087 204 174.231 204C191.998 203.98 194.854 201.623 197.019 197.591C197.131 197.382 197.372 197.277 197.6 197.34L201.823 198.518C204.62 199.195 207.557 199.499 210.401 199.106C211.372 198.971 212.31 198.641 213.231 198.268C213.513 198.154 214.27 197.7 214.528 197.704C214.7 197.706 216.537 199.469 216.991 199.756C223.628 203.948 232.207 203.554 238.529 198.721L240.571 196.861C240.709 196.734 240.907 196.697 241.083 196.759C244.755 198.061 248.823 198.221 252.334 196.177C253.634 195.419 254.764 194.281 255.74 193.042C255.979 192.739 256.787 191.257 256.99 191.153C257.109 191.092 257.239 191.242 257.364 191.284C258.444 191.649 259.574 191.803 260.697 191.868C268.419 192.316 275.605 186.828 278 178.288C279.272 173.754 279.087 169.072 278.152 164.499C278.1 164.245 278.249 163.993 278.494 163.909C281.698 162.823 284.303 160.823 286.02 157.386C287.332 154.76 287.717 151.403 287.026 148.462C286.782 147.426 286.438 146.403 286.025 145.444C285.901 145.157 285.306 144.173 285.296 143.966C285.29 143.84 285.72 143.024 285.804 142.834C287.575 138.854 288.309 134.83 286.809 130.542C285.643 127.209 283.506 124.918 281.19 122.642C280.857 122.315 280.314 122.028 280.517 121.5C281.606 118.672 281.707 114.991 280.721 112.103C279.246 107.786 276.22 105.384 272.658 103.631C270.757 102.696 268.753 102.147 266.735 101.667C266.537 101.62 266.388 101.457 266.352 101.257C265.712 97.6106 263.986 94.6548 261.759 92.0133C261.618 91.8452 261.6 91.605 261.714 91.4175C263.645 88.2654 264.856 84.9478 264.33 80.9522C263.777 76.7578 261.75 73.5492 258.814 71.1007C256.309 69.0116 253.21 67.9043 250.158 67.5979C249.742 67.5561 248.212 67.5622 248.071 67.1985C246.332 62.7068 241.782 59.6614 237.968 58.0029C236.398 57.3206 234.809 56.9829 233.178 56.6129C232.987 56.5695 232.861 56.3875 232.887 56.1932C233.107 54.4825 233.059 52.8583 232.81 51.1578C232.246 47.3058 230.687 44.0225 227.905 41.7271C226.098 40.2357 224.077 39.2329 221.886 38.8005C220.818 38.5901 219.735 38.5192 218.655 38.4588C218.462 38.4479 217.592 38.491 217.46 38.3987C217.415 38.3678 217.146 37.4865 217.108 37.3786C216.822 36.5818 216.492 35.84 216.1 35.107C212.458 28.2866 205.299 25.8532 198.727 27.2152C197.459 27.4781 196.274 27.977 195.106 28.5791C194.901 28.6849 194.65 28.6398 194.492 28.4713C191.683 25.4708 188.349 24.2965 184.497 24.3199C182.554 24.3316 180.977 24.8432 179.161 25.2862C178.936 25.3411 178.704 25.2309 178.598 25.025C176.443 20.8611 173.323 17.8743 169.208 16.6143C166.651 15.8316 163.834 15.9359 161.272 16.6517C159.052 17.2719 157.652 18.4106 157.626 18.4013C157.477 18.3481 156.634 17.0867 156.45 16.8732Z" fill="#7AE800"/>
<path d="M190.249 125.704C190.403 125.512 190.674 125.459 190.888 125.581L195.647 128.281C196.686 128.801 198.078 129.183 199.007 129.902C199.356 130.172 199.628 130.943 199.827 131.386C200.456 132.786 201.204 134.554 201.412 136.11C201.753 138.666 200.698 142.034 199.976 144.608C199.889 144.918 199.538 145.069 199.255 144.918L195.546 142.943C194.383 142.164 192.86 141.086 192.535 139.475C192.503 139.307 192.342 139.209 192.2 139.303C191.646 139.671 190.76 140.674 190.311 141.064C190.279 141.091 190.243 141.114 190.205 141.131C189.361 141.519 188.814 141.618 187.914 141.324C187.113 141.063 186.622 140.304 186.225 139.48C186.024 139.062 185.457 139.108 185.325 139.553C185.193 139.996 185.036 140.416 184.847 140.646C184.279 141.332 183.583 141.529 182.79 141.62C181.475 141.771 180.001 141.27 179.009 140.244C178.053 139.254 177.245 137.586 177.185 136.081C177.174 135.819 177.143 134.659 177.233 134.476C177.261 134.421 177.342 134.448 177.395 134.434C178.776 134.073 180.079 133.728 181.412 133.152C185.048 131.582 187.66 128.92 190.249 125.704Z" fill="#9CFF2E"/>
<path d="M166.728 108.477C166.766 108.461 166.804 108.451 166.844 108.446C167.298 108.388 168.766 108.248 168.97 108.632C169.118 108.909 169.182 109.925 169.265 110.312C169.824 112.951 171.266 115.165 173.175 116.721C176.22 119.202 179.436 119.294 182.946 118.594C183.163 118.551 183.385 118.653 183.494 118.846C184.713 120.999 186.186 122.607 187.911 124.21C188.088 124.375 188.125 124.643 187.991 124.845C185.871 128.035 183.034 129.953 179.8 131.357C176.501 132.543 173.012 133.097 169.609 132.157C166.639 131.336 162.796 129.059 161.198 125.938C160.39 124.358 160.101 122.491 160.546 120.71C161.19 118.128 162.664 116.645 164.544 115.358C164.77 115.203 164.836 114.898 164.695 114.662C164.414 114.193 164.138 113.672 163.968 113.172C163.7 112.384 163.738 111.477 164.049 110.715C164.582 109.406 165.623 108.92 166.728 108.477Z" fill="#9CFF2E"/>
<path d="M41.9593 149.046C42.2278 148.778 42.6794 148.917 42.7688 149.285L42.9414 149.997C44.5378 154.993 50.4701 155.577 54.4038 155.435C54.9561 155.415 56.1977 155.046 56.6254 155.191C56.9699 155.308 57.6707 156.092 57.9933 156.361C58.7857 157.024 59.6342 157.63 60.5318 158.082C63.0959 159.375 65.5816 159.162 68.1333 158.079C68.2976 158.009 68.4871 158.028 68.6311 158.134C71.6448 160.337 74.1652 162.671 76.276 166.089C77.9506 168.801 79.0138 171.882 80.3948 174.785C80.6448 175.31 81.9034 177.629 82.2629 178.663C82.3464 178.903 82.1647 179.091 81.9103 179.09C81.0696 179.085 80.1638 179.104 79.3703 178.918C77.2455 178.419 75.8632 176.912 74.7086 174.978C74.5241 174.669 74.0822 174.634 73.8392 174.899C73.4965 175.273 73.1367 175.608 72.7483 175.949C72.7292 175.966 72.7089 175.981 72.6875 175.994C72.0055 176.423 71.1839 176.729 70.406 176.526C68.6861 176.076 67.3108 174.343 66.2765 172.679C66.0562 172.325 65.5252 172.365 65.3382 172.738C64.999 173.414 64.5934 173.912 63.8245 174.247C61.5666 175.231 58.5191 174.274 56.4411 173.098C56.3533 173.047 56.2402 173.083 56.1996 173.177C55.8237 174.041 55.4479 174.942 54.7211 175.48C53.2814 176.545 51.0405 175.846 49.7512 174.767C49.5174 174.571 48.7196 173.514 48.5515 173.465C48.3982 173.419 46.3773 174.313 46.0492 174.379C44.6043 174.673 43.0226 174.402 41.6178 173.969C39.3271 173.263 37.2692 171.739 36.11 169.298C35.3398 167.676 35.2349 165.714 35.7241 163.962C36.6142 160.775 38.8623 159.312 41.2389 157.908C41.4872 157.761 41.5604 157.436 41.4023 157.195C40.5476 155.892 39.8275 154.545 40.0085 152.795C40.179 151.148 40.9644 150.038 41.9593 149.046Z" fill="#9CFF2E"/>
<path d="M60.1566 129.87C60.1961 129.863 60.2368 129.861 60.2768 129.864C61.026 129.916 61.7415 130.006 62.4343 130.373C64.1382 131.277 65.2843 133.324 66.7887 134.595C69.5346 136.915 72.9128 137.108 76.1653 136.59C76.3272 136.564 76.492 136.617 76.6068 136.734L77.9493 138.104C80.5989 140.519 83.2767 141.067 86.5132 140.657C86.6612 140.638 86.8112 140.684 86.9192 140.787C89.2617 143.019 90.8392 146.253 92.5523 149.116C92.6179 149.225 92.6399 149.355 92.6113 149.48C92.3945 150.423 92.095 151.313 91.6269 152.136C90.8004 153.589 89.4653 154.63 87.9803 154.928L87.7441 154.972C86.9567 155.121 86.1496 155.117 85.3473 155.094C84.9654 155.083 84.7424 154.668 84.9444 154.344C85.3223 153.738 85.7279 153.041 85.8246 152.455C85.8609 152.235 85.8726 152.044 85.854 151.864C85.8181 151.519 85.3885 151.481 85.1537 151.737C84.2971 152.671 83.3377 153.363 82.1045 153.533C80.1961 153.797 78.9871 152.91 77.6309 151.687C77.3654 151.447 76.9412 151.55 76.82 151.887L76.5905 152.524C76.5777 152.56 76.5609 152.594 76.5401 152.626C76.0974 153.305 75.5452 154.001 74.821 154.248C73.1118 154.831 71.8064 154.226 70.3532 153.374C70.1117 153.233 69.8019 153.314 69.6756 153.564C69.4193 154.07 69.1838 154.578 68.7888 154.979C67.3708 156.42 65.4762 156.981 63.6229 156.762C61.4476 156.506 59.0479 155.112 57.6434 153.143C57.5792 153.05 57.4697 152.999 57.3575 153.01L54.3832 153.306C51.8069 153.489 47.6578 153.063 45.6448 150.882C44.9924 150.175 44.4369 148.945 44.5319 147.874C44.617 146.912 45.5855 146.228 46.239 145.685C46.2974 145.637 46.2992 145.548 46.244 145.496L46.0752 145.329C45.2367 144.509 44.6783 143.512 44.5087 142.23C44.3411 140.964 44.758 139.54 45.4389 138.542C46.8006 136.547 49.3134 134.988 51.5227 135.131C51.8464 135.152 53.011 135.498 53.2585 135.416C53.3485 135.386 53.7779 134.768 53.8896 134.63C55.7595 132.314 57.3438 130.385 60.1566 129.87Z" fill="#9CFF2E"/>
<path d="M236.257 124.409C236.371 124.276 236.545 124.21 236.719 124.235C238.353 124.472 239.926 124.576 241.572 124.551C241.721 124.549 241.864 124.612 241.961 124.726C243.783 126.879 244.447 128.498 244.528 131.469C244.535 131.724 244.729 131.938 244.983 131.967C246.31 132.123 247.693 132.404 248.904 133.027C250.5 133.848 252.64 135.464 253.218 137.466C253.477 138.361 253.248 139.152 252.934 139.931C252.801 140.262 253.036 140.622 253.392 140.626C254.851 140.641 256.243 140.706 257.675 141.246C259.824 142.057 261.507 143.548 262.524 145.933C263.295 147.742 263.663 150.19 263.044 152.131C262.418 154.095 261.021 155.715 259.375 156.56C257.318 157.617 255.357 157.473 253.32 156.678C253.05 156.573 252.743 156.705 252.643 156.976C252.297 157.919 251.923 158.84 251.399 159.676C250.499 161.111 248.691 162.785 247.126 163.047L246.899 163.08C246.448 163.148 246.009 163.205 245.554 163.19C244.076 163.14 243.242 162.73 242.292 161.697C242.077 161.462 241.702 161.464 241.5 161.71C240.611 162.79 239.721 163.694 238.423 164.192C236.977 164.747 235.351 164.526 234.016 163.72C232.157 162.598 231.191 160.541 230.539 158.351C230.452 158.06 230.133 157.906 229.852 158.021C228.356 158.633 226.952 159.079 225.33 159.245C223.941 159.319 222.465 159.08 221.249 158.258C220.003 157.418 219.406 156.187 219.018 154.749C218.904 154.327 218.379 154.233 218.204 154.634C217.728 155.732 217.461 157.026 216.974 158.125C216.86 158.383 216.546 158.472 216.308 158.319C215.029 157.499 213.812 156.38 212.814 155.179C212.745 155.095 212.61 155.135 212.6 155.243C212.488 156.375 212.378 157.858 211.665 158.641C211.306 159.035 210.608 159.329 210.118 159.29C209.135 159.212 208.363 158.233 207.756 157.329C207.568 157.049 207.167 157.025 206.936 157.27C205.74 158.533 204.609 159.027 203.109 159.378C202.702 159.473 202.38 159.042 202.562 158.666C204.53 154.597 205.609 150.398 206.909 145.955C208.886 139.196 212.909 133.874 217.749 129.565C219.27 128.211 220.96 127.089 222.404 125.624C222.755 125.267 222.879 125.563 223.205 125.823C225.086 127.329 227.035 128.195 229.349 128.151C232.259 128.096 234.275 126.725 236.257 124.409Z" fill="#9CFF2E"/>
<path d="M207.102 76.9329C208.223 76.9729 209.321 77.0645 210.402 77.4317C213.909 78.623 216.072 81.002 217.839 84.5268C217.972 84.7924 218.303 84.8906 218.56 84.7404C219.694 84.0761 220.786 83.5792 222.093 83.3993C224.288 83.0969 226.812 83.9629 228.538 85.5545C230.373 87.2476 231.006 89.2324 231.302 91.7499C231.337 92.0422 231.61 92.2467 231.9 92.1947C233.118 91.9759 234.339 91.828 235.569 92.0728C237.539 92.4655 239.402 93.6719 240.534 95.6133C241.685 97.5867 241.804 99.7012 241.392 101.961C241.368 102.086 241.46 102.203 241.587 102.21C243.103 102.291 244.576 102.39 246.025 102.994C247.58 103.642 249.128 104.976 249.804 106.758C250.233 107.891 250.293 109.232 249.852 110.375C249.209 112.041 247.474 113.055 246.054 113.765C245.833 113.876 245.722 114.13 245.808 114.362C246.322 115.744 247.168 117.137 246.696 118.663C246.239 120.142 244.85 121.256 243.659 121.862C241.179 123.125 238.552 122.606 236.111 121.574C235.869 121.472 235.589 121.567 235.459 121.795C235.058 122.494 234.606 123.158 234.056 123.708C232.367 125.393 230.357 126.004 228.149 125.721C225.897 125.432 223.051 123.01 221.673 120.992C221.612 120.901 221.484 120.89 221.409 120.969C219.69 122.752 217.746 124.309 215.382 124.579C214.215 124.712 212.966 124.373 212.049 123.497L211.225 122.641C211.208 122.623 211.192 122.604 211.177 122.583C210.572 121.708 210.212 120.364 209.553 119.608C209.46 119.501 209.319 119.452 209.178 119.447C209.052 119.441 208.927 119.439 208.813 119.495C208.441 119.679 207.937 121.212 207.683 121.669C207.412 122.156 207.076 122.587 206.7 122.968C205.846 123.836 204.389 124.151 203.27 123.992C200.998 123.667 199.104 121.654 197.682 119.615C197.427 119.249 196.845 119.352 196.749 119.789L196.41 121.32C196.122 122.264 195.629 123.138 194.826 123.572C193.643 124.211 192.054 123.833 190.869 123.336C187.902 122.092 185.633 119.103 184.237 115.895C184.106 115.595 183.731 115.489 183.456 115.668C183.219 115.823 182.976 115.964 182.719 116.087C180.646 117.08 178.357 117.14 176.285 116.139C174.192 115.127 172.267 113.259 171.412 110.772C170.932 109.375 170.739 107.513 171.297 106.11C172.053 104.21 173.267 103.198 174.809 102.447C175.116 102.298 175.207 101.897 174.985 101.637C174.601 101.186 174.236 100.72 173.919 100.195C173.293 99.1572 173.047 98.0872 173.274 96.8472C173.564 95.2706 174.855 93.9675 175.989 93.1479C178.895 91.0475 182.202 91.3308 185.386 92.15C185.609 92.2075 185.843 92.1081 185.957 91.9075C186.862 90.3066 187.884 88.8187 189.311 87.7865C191.567 86.1548 193.892 85.6217 196.483 86.3381C196.63 86.3793 196.779 86.286 196.809 86.1371C197.184 84.2748 197.808 82.5609 198.901 81.0971C201.033 78.2421 203.955 77.1921 207.102 76.9329Z" fill="#9CFF2E"/>
<path d="M154.832 56.4106C157.979 56.5063 160.861 57.2322 163.482 59.3641C166.289 61.6462 167.717 64.5228 168.378 68.2774C168.435 68.5984 168.773 68.7893 169.075 68.6667C170.856 67.9434 172.605 67.367 174.526 67.342C177.053 67.309 179.785 68.0967 181.628 70.2373C183.544 72.4641 183.951 75.1821 183.976 78.1562C183.978 78.4784 184.277 78.7181 184.595 78.6658C185.45 78.5251 186.345 78.4943 187.181 78.6835C188.115 78.895 189.037 79.571 189.546 80.512C190.052 81.4469 190.096 82.3666 189.863 83.4189C189.767 83.8516 189.538 84.7108 189.306 85.0648C188.968 85.5813 187.86 86.1996 187.376 86.6441C186.634 87.3263 185.968 88.1166 185.298 88.8907C185.134 89.08 184.724 89.6773 184.538 89.7737C184.339 89.8765 182.884 89.5368 182.572 89.5049C179.864 89.228 176.825 89.752 174.511 91.4857C173.019 92.6046 171.604 94.4337 171.264 96.5082C170.978 98.2565 171.339 99.8797 172.191 101.33C172.243 101.416 172.223 101.527 172.147 101.592C170.624 102.886 170.147 103.921 169.235 105.791C168.998 106.276 167.266 105.997 166.689 106.154L166.479 106.216L166.205 106.291C164.741 106.699 163.336 107.613 162.558 109.155C161.77 110.716 161.771 112.344 162.157 114.053C162.171 114.117 162.22 114.183 162.201 114.246C162.041 114.767 160.725 115.879 160.352 116.381C159.863 117.04 159.443 117.844 159.127 118.633C158.21 120.918 158.154 123.113 158.904 125.467C160.437 130.275 164.264 131.977 167.957 133.942C168.087 134.011 168.18 134.135 168.211 134.279L168.23 134.369C168.244 134.435 168.245 134.504 168.23 134.57C167.822 136.458 166.485 138.209 165.065 139.208C163.136 140.564 160.542 141.043 158.358 140.331C157.231 139.964 156.69 139.353 156.127 138.186C156.087 138.1 155.965 138.098 155.922 138.182C155.217 139.554 154.783 140.766 153.503 141.664C151.967 142.743 149.923 142.997 148.195 142.457L147.949 142.375C145.744 141.659 144.189 140.233 142.716 138.281C142.65 138.194 142.531 138.167 142.434 138.217C142.375 138.249 142.333 138.304 142.322 138.37C142.108 139.637 142.637 140.856 143.129 141.976C143.211 142.163 143.17 142.383 143.023 142.525C141.654 143.846 140.689 144.255 138.85 144.312C138.796 144.314 138.741 144.307 138.688 144.29C137.014 143.771 135.766 143.378 134.562 141.774C134.48 141.664 134.318 141.655 134.224 141.756L134.106 141.883C132.201 143.885 130.663 144.106 128.272 144.01C128.108 144.003 127.959 143.916 127.873 143.776C125.806 140.419 123.876 136.237 124.235 132.003C124.521 128.635 126.832 125.733 128.979 123.631C129.134 123.479 129.369 123.449 129.563 123.545C131.22 124.364 132.991 124.644 134.752 124.06C136.651 123.432 138.225 122.247 139.173 120.199C139.354 119.809 139.821 120.007 140.163 120.053C142.951 120.427 145.343 119.915 147.631 117.958C149.488 116.371 150.981 113.665 151.295 110.992C151.503 109.219 151.254 107.652 150.298 106.218C149.239 104.629 147.894 104.044 146.24 103.818C146.146 103.805 146.041 103.836 145.959 103.781C145.918 103.753 145.871 100.894 144.754 99.3917C143.128 97.2052 141.041 96.8622 138.736 96.6659C138.514 96.647 138.33 96.4845 138.284 96.2665C137.952 94.7129 137.513 93.1727 136.796 91.7956C134.851 88.0565 131.355 86.4185 127.707 86.2376C127.326 86.2186 126.009 86.3211 125.741 86.166C125.311 85.9176 124.566 84.7689 124.191 84.344C122.141 82.0245 119.99 80.8833 117.31 80.0635C117.063 79.9879 116.909 79.7392 116.96 79.4859C117.282 77.9039 117.714 76.4846 118.944 75.4729C119.709 74.8437 121.001 74.3004 121.943 74.5509C122.007 74.5678 122.064 74.5827 122.118 74.5953C122.354 74.6501 122.564 74.4703 122.613 74.2325C123.091 71.8891 124.012 69.6736 125.348 67.8259C127.014 65.5203 129.518 63.7271 132.149 63.4865C135.462 63.1833 138.1 64.5962 140.572 66.9039C140.835 67.1496 141.266 67.0582 141.395 66.722C142.112 64.8472 142.753 63.1119 143.999 61.5332C146.779 58.008 150.835 56.618 154.832 56.4106Z" fill="#9CFF2E"/>
<path d="M100.855 77.7741L102.184 77.7239C105.756 77.9481 108.549 80.3954 110.854 83.3475C110.948 83.4679 111.12 83.4928 111.244 83.4027C113.332 81.883 114.981 81.7011 117.336 82.3585C120.223 83.1644 122.799 85.3624 124.338 88.304C124.454 88.5266 124.958 88.3935 125.201 88.3817C128.465 88.2188 131.378 88.5683 133.94 91.162C135.754 92.999 136.368 95.7338 136.553 98.4C136.573 98.6803 136.814 98.8935 137.095 98.875C138.319 98.7938 139.712 98.7621 140.835 99.1572L141.065 99.2448C141.58 99.4351 142.03 99.6337 142.483 99.9859C143.31 100.629 143.813 101.523 144.005 102.652L144.046 102.909C144.172 103.684 144.141 104.419 144.088 105.184C144.071 105.438 144.247 105.665 144.498 105.711L146.38 106.051C147.456 106.329 148.494 106.899 149.068 108.051C149.525 108.968 149.546 110.211 149.32 111.217C148.814 113.463 147.537 115.562 145.801 116.74C143.486 118.311 141.295 118.119 138.844 117.437C138.599 117.369 138.341 117.491 138.24 117.724C137.884 118.551 137.514 119.338 136.962 120.036C135.117 122.371 131.936 122.87 129.586 121.331C129.113 121.021 128.281 120.062 127.846 119.922C127.807 119.909 127.32 120.462 127.142 120.637C125.776 121.983 124.105 122.845 122.294 122.879C120.325 122.916 118.693 121.541 117.297 120.057C116.999 119.741 116.485 119.915 116.443 120.347C116.391 120.882 116.307 121.424 116.13 121.71C115.784 122.269 115.129 122.603 114.551 122.686C112.013 123.049 109.879 121.195 107.967 119.413C107.615 119.086 107.1 119.385 107.26 119.838C107.648 120.937 108.207 121.91 108.858 122.846C109.108 123.205 108.828 123.692 108.399 123.61C105.173 122.993 102.381 121.136 100.491 117.898C100.207 117.41 99.8464 116.56 99.4444 116.049C99.2781 115.837 98.9791 115.895 98.8318 116.12C98.7849 116.191 98.7568 116.274 98.7541 116.36C98.7339 117.002 98.8535 117.627 98.9861 118.25C99.0529 118.564 98.8113 118.856 98.4912 118.843C96.0107 118.737 93.6912 118.248 91.7064 116.31L91.6257 116.23C91.5726 116.178 91.4941 116.16 91.4239 116.186C91.3509 116.212 91.3003 116.279 91.2974 116.357C91.2786 116.855 91.3326 117.23 91.5954 117.671C92.5569 119.287 94.6581 120.374 96.2635 120.643L96.5336 120.686C97.4187 120.835 98.2791 120.827 99.1704 120.821C99.3669 120.82 100.06 120.735 100.209 120.811C100.331 120.874 100.657 121.323 100.774 121.452C101.193 121.917 101.62 122.371 102.081 122.779C102.902 123.504 103.824 124.028 104.75 124.544C106.978 125.679 109.364 126.304 111.584 127.49C112.87 128.176 113.975 128.958 115.018 130.074C115.118 130.18 115.522 130.541 115.567 130.671C115.635 130.868 115.536 131.647 115.531 131.888C115.506 133.105 115.508 134.359 115.601 135.572C115.796 138.106 116.668 140.633 117.64 142.911C117.756 143.184 117.614 143.499 117.332 143.59L116.917 143.722C113.718 144.71 110.139 144.119 107.3 142.144C105.218 140.694 103.823 138.244 103.155 135.588C103.076 135.275 102.733 135.103 102.44 135.24L100.238 136.271C96.8534 137.643 93.8629 137.334 90.6938 135.686C90.4906 135.58 90.2386 135.647 90.1203 135.843C89.2961 137.143 87.2873 138.354 85.9135 138.567C83.3489 138.964 80.4625 137.645 78.6204 135.593C78.3813 135.326 77.716 134.178 77.4652 134.106C77.1989 134.029 76.3745 134.265 76.0686 134.308C73.1193 134.721 70.1911 134.873 67.7231 132.614C64.9351 130.061 63.576 126.351 63.0561 122.393C63.0289 122.186 62.8786 122.015 62.6758 121.966L61.3042 121.632C59.7626 121.144 58.3408 119.477 57.555 117.909C56.8742 116.55 56.4453 115.132 56.8584 113.559C57.6362 110.596 60.1964 108.205 62.4974 106.845C65.548 105.041 68.5094 105.074 71.6634 106.148C71.9962 106.261 72.3479 106.018 72.3474 105.667C72.3449 103.707 72.4219 101.826 73.518 100.178C75.292 97.5112 77.9639 96.4881 80.7228 96.0503C80.9428 96.0154 81.119 95.8429 81.1257 95.6203C81.1556 94.6235 80.8252 93.4487 80.9026 92.4136C81.0491 90.4558 81.6552 88.7244 83.0128 87.4691C85.0291 85.6051 87.9262 85.2328 90.3918 85.7921C90.8503 85.896 91.297 86.107 91.7505 86.242C92.0022 86.3169 92.2465 86.1453 92.3041 85.8891C92.6445 84.3745 93.0592 83.0348 93.9329 81.7575C95.6407 79.2612 98.2118 78.1457 100.855 77.7741Z" fill="#9CFF2E"/>
<path d="M117.9 123.359C118.475 123.954 119.013 124.41 119.726 124.76L119.896 124.841C120.039 129.682 120.296 134.82 121.719 139.405C123.208 144.205 126.063 148.575 129.114 152.209C133.958 157.978 139.546 162.915 142.128 170.723C142.911 173.087 143.19 175.385 143.327 177.902C147.173 170.308 149.107 162.01 148.855 153.194L148.558 148.807C148.454 147.839 148.196 146.679 148.316 145.725C148.798 145.537 149.28 145.596 149.78 145.615C150.187 146.339 150.321 147.707 150.503 148.578C152.016 155.826 152.365 164.299 150.76 171.561C149.758 176.096 147.82 180.137 147.146 184.837C146.152 191.772 148.007 197.48 151.419 203.045L149.384 196.719C148.573 193.479 148.214 190.283 148.401 186.911C148.554 184.129 149.392 181.195 150.129 178.557C151.165 174.852 152.206 170.994 154.154 167.78C157.028 163.036 160.741 159.059 163.672 154.35C165.586 151.273 167.442 148.03 168.964 144.67L171.394 138.885C170.395 145.408 168.428 151.435 165.318 157.003C162.527 162.002 159.394 166.664 157.691 172.356C155.542 179.535 155.565 188.212 157.465 195.487C158.302 198.694 159.537 201.726 160.796 204.735C160.805 200.02 159.818 196.014 158.155 191.753C158.482 190.755 159.66 189.486 160.284 188.679C163.101 185.029 166.39 181.702 169.88 178.947C172.885 176.575 176.144 174.573 179.304 172.493C187.236 167.273 194.659 161.979 200.067 153.206C201.616 150.694 203.063 147.835 203.747 144.829C204.991 139.354 203.705 133.585 201.08 128.919C200.087 127.154 198.892 125.606 197.98 123.772C199.437 124.829 200.874 125.908 202.119 127.294C204.641 130.103 205.767 134.497 205.813 138.447C206.049 137.807 206.248 137.185 206.713 136.718C209.742 133.677 212.707 130.459 215.953 127.731C216.975 126.872 218.077 126.173 219.141 125.392C219.832 124.884 220.493 124.201 221.265 123.875C220.985 124.718 218.812 126.073 218.132 126.62C215.262 128.929 212.525 131.654 210.285 134.773C209.001 136.561 207.714 138.505 206.787 140.573C205.802 142.768 205.141 145.188 204.43 147.515C203.399 150.888 202.353 154.24 200.801 157.35C199.626 159.706 198.184 161.79 196.594 163.786C193.998 167.047 190.952 170.084 187.776 172.559C183.667 175.761 179.155 178.275 175.204 181.751C172.355 184.257 169.902 187.374 167.914 190.814C165.491 195.005 163.691 199.748 163.154 204.785C162.922 206.964 162.972 209.165 162.998 211.355C163.014 212.689 162.822 214.416 163.039 215.694C163.83 212.412 163.979 209.013 164.57 205.684C166.428 204.755 168.244 203.428 170.012 202.277L177.256 197.926L189.111 191.723C199.021 186.154 208.832 178.543 215.216 167.931C216.608 165.616 217.643 163.115 218.842 160.668C218.757 161.765 218.442 162.797 218.113 163.824C213.583 177.981 202.369 188.392 191.174 195.236L183.372 199.459C176.019 203.417 168.797 209.055 165.921 218.281C164.409 223.131 164.031 228.718 163.835 233.844C163.36 246.281 164.223 259.1 166.746 271.212C167.977 277.123 169.85 283.249 172.089 288.751C173.67 292.633 175.652 296.268 177.906 299.67C179.863 302.625 182.079 305.374 184.694 307.566C192.24 313.893 201.674 315.376 210.59 317.339L218.15 319.114C219.612 319.49 221.124 319.829 222.533 320.419L196.909 319.048C192.173 318.615 187.231 318.007 182.666 316.438C175.553 313.993 169.097 309.09 164.299 302.536C158.211 294.221 155.667 282.981 156.448 272.235L156.398 272.366C156.114 273.25 156.009 274.41 155.857 275.343C154.698 282.434 155.598 290.128 158.115 296.715C163.118 309.804 172.655 318.556 183.762 324.268C185.841 325.337 188.008 326.06 190.12 327.012L177.34 325.651C168.303 324.112 157.27 320.739 151.58 311.851C152.16 308.378 151.361 304.665 150.66 301.298C150.04 297.9 149.336 294.567 149.048 291.096C148.879 289.051 148.948 286.956 148.925 284.902C147.741 289.253 148.142 295.078 148.684 299.566C149.094 302.952 149.956 306.993 149.151 310.34C148.55 312.834 147.223 314.535 145.408 315.964C138.859 321.124 129.864 320.082 122.335 320.538C120.182 320.668 117.968 321.02 115.851 321.489C109.316 322.936 103.374 326.105 97.6048 329.843C99.8486 327.033 101.698 324.212 104.452 321.991C106.692 320.185 109.195 318.735 111.776 317.709C120.847 314.106 131.961 313.901 138.983 305.34C143.106 300.313 144.421 292.538 144.274 285.82C143.879 286.825 143.813 288.63 143.612 289.745C142.834 294.064 141.578 298.394 139.253 301.948C134.255 309.591 125.901 311.441 118.318 313.458L110.37 316.023C109.278 316.443 108.215 316.938 107.179 317.519C106.067 318.143 104.451 319.505 103.272 319.679C101.551 319.932 99.5152 319.655 97.7668 319.638L87.3488 319.781C81.5466 319.99 75.7259 320.471 69.9685 321.349L63.0869 322.627C70.2084 319.278 77.8484 317.259 85.4225 315.885L100.167 313.787L110.348 311.546C116.142 310.093 121.866 308.158 126.767 304.149C134.097 298.154 136.532 289.395 138.297 279.668L140.037 269.324C141.23 261.294 141.942 252.953 140.934 244.835C140.853 244.191 140.867 242.879 140.566 242.385C140.49 244.901 140.569 247.428 140.373 249.939C139.775 257.631 138.498 265.287 137.383 272.897C136.684 277.67 136.226 282.531 135.124 287.209C134.508 289.824 133.69 292.33 132.514 294.679C128.602 302.492 121.055 306.691 113.786 308.922C114.905 308.081 116.133 307.41 117.272 306.594C118.507 305.709 119.652 304.672 120.742 303.562C123.274 300.981 125.51 297.912 127.265 294.573C132.129 285.317 134.484 274.125 136.146 263.556C137.035 257.902 137.787 252.201 138.078 246.457C138.268 242.706 138.332 238.923 138.201 235.169C137.975 228.733 137.205 222.443 133.329 217.47C127.993 210.624 120.31 207.899 113.226 204.313C109.96 202.66 106.724 200.766 103.648 198.679C100.613 196.619 97.5634 194.188 94.9379 191.47C92.7887 189.244 91.0136 186.026 88.4305 184.501C86.1816 183.173 83.3518 183.541 80.8944 183.399C76.3801 183.138 72.3925 181.905 68.4576 179.324C66.827 178.255 65.3718 177.158 64.1059 175.541C65.6085 176.288 66.9579 177.371 68.4245 178.203C71.9955 180.23 75.8844 181.167 79.8207 181.58C82.4518 181.857 85.0663 181.581 87.6837 182.139C83.472 177.006 80.1772 171.036 78.8498 164.076L80.5393 168.151C81.8811 171.123 83.619 174.2 85.5963 176.648C87.5231 179.034 89.7166 181.027 91.8122 183.198C94.5236 186.007 96.7903 189.299 99.7839 191.752C101.789 193.395 104.109 194.582 106.343 195.745C109.93 197.613 113.583 199.315 117.313 200.765L125.069 203.522L136.919 207.985C137.453 205.007 137.554 201.921 137.148 198.909C135.623 187.616 126.838 179.577 118.951 173.857C115.035 171.017 110.942 168.503 107.226 165.297C100.624 159.601 96.2114 152.123 92.1787 143.942C91.5813 142.731 90.2937 140.703 90.1156 139.354C90.5835 139.888 90.9268 140.792 91.2687 141.453L93.2269 144.943C96.3766 150.178 99.8067 155.362 103.878 159.682C108.175 164.241 112.951 166.886 118.127 169.784C124.707 173.47 130.973 178.771 135.135 185.86C136.241 187.745 137.104 189.772 138.039 191.774C141.015 198.147 142.795 205.05 142.217 212.352C141.969 215.485 141.238 218.57 140.468 221.573C141.257 220.372 141.782 218.579 142.231 217.164C144.888 208.8 143.199 200.397 139.4 192.912C138.733 191.6 137.935 190.399 137.178 189.157C137.089 189.01 136.624 188.368 136.61 188.224C136.574 187.837 136.694 187.231 136.72 186.827L136.802 183.591C136.719 178.231 136.202 172.663 134.722 167.562C133.379 162.931 131.04 159.446 128.456 155.684C124.706 150.226 120.806 143.696 119.3 136.876C118.339 132.522 118.104 127.837 117.9 123.359Z" fill="#092132"/>
</svg>
