<svg width="54" height="52" viewBox="0 0 54 52" fill="none" xmlns="http://www.w3.org/2000/svg">
<g filter="url(#filter0_d_93_157)">
<path d="M38.3715 6.84952L38.3715 6.84963L38.3842 6.84718C39.1749 6.6946 39.9885 6.72194 40.7682 6.92747C41.5522 7.13418 42.2837 7.51637 42.9099 8.04809C43.5362 8.57988 44.0419 9.24827 44.3896 10.0064L45.0522 9.70255L44.3896 10.0064C44.7373 10.7646 44.9181 11.5931 44.9184 12.4326C44.9184 12.4327 44.9184 12.4328 44.9184 12.4328V14.8217L8.76516 18.4581C8.81163 17.3444 8.95067 16.3406 9.15762 15.4899C9.41799 14.4197 9.77304 13.6442 10.1412 13.1871C10.9615 12.1688 12.0987 11.4795 13.3549 11.2329L13.3763 11.2289L38.3715 6.84952Z" fill="url(#paint0_linear_93_157)" stroke="url(#paint1_linear_93_157)" stroke-width="1.5" stroke-linejoin="round"/>
<mask id="path-2-inside-1_93_157" fill="white">
<path fill-rule="evenodd" clip-rule="evenodd" d="M8.00195 19.0412C8.00195 15.5951 10.6882 12.8015 14.002 12.8015H44.002C47.3157 12.8015 50.002 15.5951 50.002 19.0412V37.7602C50.002 41.2063 47.3157 43.9999 44.002 43.9999H14.002C10.6882 43.9999 8.00195 41.2063 8.00195 37.7602V28.4007V19.0412Z"/>
</mask>
<path fill-rule="evenodd" clip-rule="evenodd" d="M8.00195 19.0412C8.00195 15.5951 10.6882 12.8015 14.002 12.8015H44.002C47.3157 12.8015 50.002 15.5951 50.002 19.0412V37.7602C50.002 41.2063 47.3157 43.9999 44.002 43.9999H14.002C10.6882 43.9999 8.00195 41.2063 8.00195 37.7602V28.4007V19.0412Z" fill="url(#paint2_linear_93_157)"/>
<path d="M14.002 11.3015C9.80498 11.3015 6.50195 14.8226 6.50195 19.0412H9.50195C9.50195 16.3676 11.5715 14.3015 14.002 14.3015V11.3015ZM44.002 11.3015H14.002V14.3015H44.002V11.3015ZM51.502 19.0412C51.502 14.8226 48.1989 11.3015 44.002 11.3015V14.3015C46.4324 14.3015 48.502 16.3676 48.502 19.0412H51.502ZM51.502 37.7602V19.0412H48.502V37.7602H51.502ZM44.002 45.4999C48.1989 45.4999 51.502 41.9788 51.502 37.7602H48.502C48.502 40.4338 46.4324 42.4999 44.002 42.4999V45.4999ZM14.002 45.4999H44.002V42.4999H14.002V45.4999ZM6.50195 37.7602C6.50195 41.9788 9.80498 45.4999 14.002 45.4999V42.4999C11.5715 42.4999 9.50195 40.4338 9.50195 37.7602H6.50195ZM6.50195 19.0412V28.4007H9.50195V19.0412H6.50195ZM6.50195 28.4007V37.7602H9.50195V28.4007H6.50195Z" fill="url(#paint3_linear_93_157)" mask="url(#path-2-inside-1_93_157)"/>
<g filter="url(#filter1_d_93_157)">
<path d="M40.0215 31C39.4281 31 38.8481 30.8241 38.3548 30.4944C37.8614 30.1648 37.4769 29.6962 37.2498 29.1481C37.0228 28.5999 36.9634 27.9967 37.0791 27.4147C37.1949 26.8328 37.4806 26.2982 37.9002 25.8787C38.3197 25.4591 38.8543 25.1734 39.4362 25.0576C40.0182 24.9419 40.6214 25.0013 41.1695 25.2284C41.7177 25.4554 42.1862 25.8399 42.5159 26.3333C42.8455 26.8266 43.0215 27.4067 43.0215 28C43.0215 28.7957 42.7054 29.5587 42.1428 30.1213C41.5802 30.6839 40.8171 31 40.0215 31Z" fill="url(#paint4_linear_93_157)"/>
<path d="M40.0215 30.25C39.5765 30.25 39.1415 30.118 38.7715 29.8708C38.4014 29.6236 38.1131 29.2722 37.9428 28.861C37.7725 28.4499 37.7279 27.9975 37.8147 27.561C37.9015 27.1246 38.1158 26.7237 38.4305 26.409C38.7452 26.0943 39.1461 25.8801 39.5825 25.7932C40.019 25.7064 40.4714 25.751 40.8825 25.9213C41.2937 26.0916 41.6451 26.38 41.8923 26.75C42.1395 27.12 42.2715 27.555 42.2715 28C42.2715 28.5967 42.0344 29.169 41.6125 29.591C41.1905 30.0129 40.6182 30.25 40.0215 30.25Z" stroke="url(#paint5_linear_93_157)" stroke-width="1.5"/>
</g>
</g>
<defs>
<filter id="filter0_d_93_157" x="-0.00195312" y="6" width="50.0039" height="46" filterUnits="userSpaceOnUse" color-interpolation-filters="sRGB">
<feFlood flood-opacity="0" result="BackgroundImageFix"/>
<feColorMatrix in="SourceAlpha" type="matrix" values="0 0 0 0 0 0 0 0 0 0 0 0 0 0 0 0 0 0 127 0" result="hardAlpha"/>
<feOffset dx="-4" dy="4"/>
<feGaussianBlur stdDeviation="2"/>
<feComposite in2="hardAlpha" operator="out"/>
<feColorMatrix type="matrix" values="0 0 0 0 0 0 0 0 0 0 0 0 0 0 0 0 0 0 0.25 0"/>
<feBlend mode="normal" in2="BackgroundImageFix" result="effect1_dropShadow_93_157"/>
<feBlend mode="normal" in="SourceGraphic" in2="effect1_dropShadow_93_157" result="shape"/>
</filter>
<filter id="filter1_d_93_157" x="31.0215" y="23" width="14" height="14" filterUnits="userSpaceOnUse" color-interpolation-filters="sRGB">
<feFlood flood-opacity="0" result="BackgroundImageFix"/>
<feColorMatrix in="SourceAlpha" type="matrix" values="0 0 0 0 0 0 0 0 0 0 0 0 0 0 0 0 0 0 127 0" result="hardAlpha"/>
<feOffset dx="-2" dy="2"/>
<feGaussianBlur stdDeviation="2"/>
<feComposite in2="hardAlpha" operator="out"/>
<feColorMatrix type="matrix" values="0 0 0 0 0 0 0 0 0 0 0 0 0 0 0 0 0 0 0.25 0"/>
<feBlend mode="normal" in2="BackgroundImageFix" result="effect1_dropShadow_93_157"/>
<feBlend mode="normal" in="SourceGraphic" in2="effect1_dropShadow_93_157" result="shape"/>
</filter>
<linearGradient id="paint0_linear_93_157" x1="26.8332" y1="6" x2="26.8332" y2="19.289" gradientUnits="userSpaceOnUse">
<stop stop-color="#872900"/>
<stop offset="0.601566" stop-color="#471E00"/>
</linearGradient>
<linearGradient id="paint1_linear_93_157" x1="26.8332" y1="6" x2="26.8332" y2="19.289" gradientUnits="userSpaceOnUse">
<stop stop-color="#B74200"/>
<stop offset="1" stop-color="#2E1B00"/>
</linearGradient>
<linearGradient id="paint2_linear_93_157" x1="8.00195" y1="12.8015" x2="50.002" y2="43.9999" gradientUnits="userSpaceOnUse">
<stop offset="0.0607706" stop-color="#72170E"/>
<stop offset="0.333008" stop-color="#CF5C1F"/>
<stop offset="0.494792" stop-color="#EC8026"/>
<stop offset="0.661881" stop-color="#DE6E22"/>
<stop offset="0.849934" stop-color="#70160E"/>
</linearGradient>
<linearGradient id="paint3_linear_93_157" x1="8.00049" y1="12.9999" x2="50.0005" y2="43.9999" gradientUnits="userSpaceOnUse">
<stop offset="0.100335" stop-color="#E17A00"/>
<stop offset="0.5" stop-color="#BE5000"/>
<stop offset="0.846023" stop-color="#9E4C00"/>
</linearGradient>
<linearGradient id="paint4_linear_93_157" x1="37" y1="25" x2="42.5" y2="31" gradientUnits="userSpaceOnUse">
<stop stop-color="#F69002"/>
<stop offset="0.494792" stop-color="#FFE854"/>
<stop offset="1" stop-color="#F69002"/>
</linearGradient>
<linearGradient id="paint5_linear_93_157" x1="37" y1="25" x2="43" y2="31" gradientUnits="userSpaceOnUse">
<stop stop-color="#DB8000"/>
<stop offset="0.494792" stop-color="#FFE854"/>
<stop offset="1" stop-color="#CE6300"/>
</linearGradient>
</defs>
</svg>
