<svg width="247" height="247" viewBox="0 0 247 247" fill="none" xmlns="http://www.w3.org/2000/svg">
<circle cx="123.5" cy="123.5" r="105" fill="url(#paint0_linear_57_281)" stroke="url(#paint1_linear_57_281)" stroke-width="33"/>
<circle cx="123.5" cy="123.5" r="121.5" stroke="url(#paint2_linear_57_281)" stroke-width="4"/>
<circle cx="123.5" cy="123.5" r="87.5" stroke="url(#paint3_linear_57_281)" stroke-width="3"/>
<path d="M159.387 172H123.998C123.722 172 123.496 171.777 123.486 171.501C123.408 169.309 123.15 165.558 130.247 164.793C130.505 164.765 130.709 164.545 130.716 164.285C130.908 157.057 135.568 154.667 136.542 154.245C136.657 154.195 136.753 154.112 136.8 153.996C136.991 153.523 137.368 152.217 136.119 151.457C136.004 151.387 135.858 151.381 135.73 151.424C126.252 154.581 121.661 147.792 122.258 142.992C117.38 142.992 118.849 138.707 120.178 137.47C117.724 138.095 116.741 136.985 116.833 135.697C116.844 135.539 116.964 135.398 117.104 135.324C123.268 132.042 103.301 133.854 98.2549 134.836C88.9391 136.649 74.8151 137.555 63.6962 136.649C55.883 135.742 57.1802 130.996 57.1802 130.996C57.1802 130.996 99.7574 129.095 108.773 126.376C113.572 124.928 116.285 123.657 113.28 117.311C110.717 111.898 111.42 107.097 113.088 104.052C113.198 103.851 113.164 103.6 113.009 103.432C108.781 98.8666 111.283 93.5962 113.572 92.1098C113.752 91.9928 113.859 91.7765 113.831 91.5637C111.649 75.2749 121.199 79.1634 127.183 82.1517C127.324 82.222 127.494 82.2176 127.635 82.1482C153.847 69.2596 161.171 89.6061 160.78 99.6964C160.771 99.9303 160.932 100.138 161.156 100.206C176.411 104.816 168.817 115.441 161.069 116.339C159.589 130.929 154.11 136.726 149.924 140.65C149.808 140.759 149.751 140.916 149.771 141.075L150.794 149.529C150.823 149.769 151.026 149.952 151.266 149.981C160.162 151.041 159.981 168.455 159.879 171.536C159.87 171.801 159.652 172 159.387 172Z" fill="#646464"/>
<path d="M159.387 170H123.998C123.721 170 123.495 169.776 123.524 169.501C123.839 166.452 126.957 163.092 130.211 162.773C130.485 162.746 130.709 162.52 130.717 162.244C130.925 155.065 135.547 152.677 136.535 152.248C136.655 152.196 136.753 152.109 136.796 151.986C136.961 151.522 137.243 150.3 136.004 149.556C135.888 149.487 135.743 149.48 135.615 149.523C126.433 152.602 121.979 147.632 122.255 142.953C122.27 142.698 122.104 142.462 121.858 142.391C119.176 141.615 118.616 139.902 119.438 138.493C119.682 138.074 119.423 137.327 118.946 137.234C116.952 136.843 116.461 135.677 117.154 134.694C117.175 134.664 117.205 134.633 117.233 134.609C121.261 131.029 103.345 131.846 98.2547 132.836C88.9389 134.649 74.8149 135.555 63.6961 134.649C55.8828 133.742 56.4863 130.212 58.2869 130.117C81.1257 128.908 99.7573 127.095 108.773 124.376C113.571 122.928 116.285 121.657 113.28 115.311C110.716 109.898 111.42 105.097 113.088 102.052C113.197 101.851 113.164 101.6 113.009 101.432C108.78 96.8666 111.283 91.5962 113.572 90.1098C113.752 89.9928 113.859 89.7765 113.831 89.5637C111.649 73.2749 121.199 77.1634 127.183 80.1517C127.324 80.222 127.494 80.2176 127.635 80.1482C153.923 67.2218 161.213 87.7256 160.777 97.7848C160.768 97.9752 160.874 98.1534 161.039 98.2486C176.333 107.074 169.378 113.288 161.76 114.354C161.528 114.387 161.345 114.577 161.319 114.81C159.772 129.095 153.985 134.524 149.828 138.403C149.71 138.513 149.654 138.671 149.675 138.831L150.791 147.532C150.822 147.771 151.025 147.952 151.263 147.98C160.162 149.037 159.981 166.455 159.878 169.536C159.87 169.801 159.652 170 159.387 170Z" fill="url(#paint4_linear_57_281)"/>
<path d="M223.695 136.756C224.046 136.787 224.362 136.76 224.644 136.675C224.925 136.599 225.19 136.438 225.44 136.193C225.689 135.949 225.94 135.595 226.193 135.131C226.453 134.676 226.729 134.088 227.02 133.369C227.341 132.582 227.684 131.859 228.048 131.202C228.42 130.552 228.83 129.993 229.28 129.523C229.737 129.054 230.243 128.703 230.797 128.47C231.359 128.237 231.99 128.152 232.69 128.214C233.383 128.276 234.001 128.476 234.543 128.814C235.085 129.161 235.538 129.621 235.903 130.194C236.274 130.776 236.54 131.447 236.7 132.206C236.868 132.966 236.912 133.794 236.832 134.689C236.72 135.949 236.39 137.014 235.842 137.883C235.294 138.76 234.605 139.408 233.775 139.829C232.945 140.257 232.055 140.429 231.106 140.344L231.364 137.438C231.925 137.488 232.429 137.411 232.879 137.208C233.335 137.013 233.71 136.686 234.002 136.225C234.293 135.773 234.471 135.181 234.536 134.449C234.598 133.757 234.544 133.171 234.375 132.694C234.205 132.216 233.952 131.848 233.614 131.591C233.276 131.333 232.881 131.184 232.43 131.144C232.111 131.116 231.812 131.164 231.535 131.288C231.265 131.413 231.003 131.617 230.751 131.901C230.506 132.185 230.266 132.548 230.03 132.99C229.795 133.432 229.56 133.956 229.326 134.562C228.962 135.479 228.578 136.272 228.173 136.942C227.776 137.613 227.343 138.163 226.873 138.591C226.404 139.02 225.886 139.327 225.321 139.512C224.763 139.698 224.142 139.76 223.457 139.699C222.741 139.636 222.108 139.434 221.558 139.095C221.015 138.757 220.566 138.301 220.209 137.728C219.859 137.164 219.608 136.498 219.457 135.732C219.313 134.974 219.281 134.14 219.362 133.229C219.434 132.412 219.615 131.616 219.904 130.842C220.191 130.075 220.586 129.389 221.087 128.782C221.595 128.177 222.201 127.713 222.905 127.391C223.616 127.07 224.422 126.95 225.325 127.03L225.064 129.96C224.512 129.911 224.033 129.962 223.627 130.114C223.221 130.274 222.878 130.514 222.598 130.835C222.327 131.156 222.112 131.536 221.956 131.977C221.798 132.426 221.696 132.911 221.65 133.433C221.589 134.117 221.635 134.698 221.789 135.174C221.942 135.659 222.183 136.033 222.513 136.298C222.842 136.562 223.236 136.715 223.695 136.756Z" fill="url(#paint5_linear_57_281)"/>
<path d="M222.943 160.354L222.042 160.095C220.803 159.739 219.738 159.258 218.847 158.653C217.956 158.047 217.252 157.345 216.734 156.546C216.213 155.754 215.889 154.889 215.761 153.95C215.64 153.013 215.725 152.037 216.016 151.024C216.305 150.017 216.75 149.149 217.35 148.419C217.955 147.699 218.69 147.134 219.556 146.725C220.421 146.315 221.394 146.082 222.475 146.027C223.554 145.979 224.712 146.133 225.951 146.489L226.852 146.748C228.091 147.104 229.151 147.588 230.033 148.199C230.921 148.812 231.625 149.518 232.143 150.317C232.667 151.126 232.99 151.995 233.113 152.924C233.241 153.864 233.161 154.836 232.872 155.843C232.581 156.856 232.131 157.727 231.524 158.455C230.924 159.185 230.189 159.75 229.318 160.15C228.454 160.552 227.484 160.773 226.408 160.813C225.337 160.863 224.182 160.71 222.943 160.354ZM222.854 157.268L223.778 157.534C224.694 157.797 225.527 157.939 226.277 157.959C227.033 157.989 227.696 157.899 228.269 157.69C228.846 157.49 229.326 157.177 229.709 156.75C230.099 156.326 230.384 155.802 230.563 155.179C230.742 154.556 230.778 153.965 230.67 153.405C230.57 152.848 230.33 152.328 229.948 151.844C229.572 151.371 229.057 150.942 228.403 150.559C227.757 150.178 226.975 149.856 226.059 149.593L225.136 149.328C224.22 149.065 223.383 148.922 222.625 148.899C221.868 148.876 221.195 148.968 220.608 149.173C220.026 149.388 219.541 149.704 219.153 150.12C218.773 150.539 218.493 151.061 218.314 151.684C218.132 152.315 218.092 152.908 218.192 153.466C218.299 154.025 218.545 154.542 218.928 155.018C219.319 155.497 219.843 155.923 220.499 156.299C221.153 156.682 221.938 157.005 222.854 157.268Z" fill="url(#paint6_linear_57_281)"/>
<path d="M190 207.533L189.385 206.826C188.54 205.853 187.908 204.87 187.49 203.877C187.072 202.884 186.863 201.912 186.863 200.959C186.858 200.012 187.056 199.109 187.46 198.251C187.868 197.399 188.47 196.627 189.266 195.936C190.056 195.249 190.902 194.762 191.802 194.476C192.702 194.202 193.626 194.128 194.576 194.255C195.525 194.382 196.468 194.717 197.404 195.259C198.335 195.805 199.224 196.565 200.069 197.538L200.684 198.246C201.53 199.219 202.156 200.201 202.563 201.193C202.975 202.191 203.181 203.166 203.181 204.119C203.18 205.082 202.978 205.987 202.576 206.834C202.172 207.692 201.576 208.464 200.786 209.151C199.99 209.843 199.139 210.329 198.233 210.609C197.333 210.895 196.408 210.969 195.46 210.83C194.517 210.698 193.583 210.356 192.658 209.804C191.732 209.263 190.846 208.506 190 207.533ZM191.605 204.896L192.236 205.621C192.861 206.34 193.483 206.913 194.101 207.338C194.718 207.774 195.324 208.06 195.918 208.196C196.512 208.343 197.085 208.341 197.638 208.192C198.196 208.048 198.72 207.763 199.21 207.338C199.699 206.913 200.051 206.436 200.265 205.908C200.484 205.387 200.565 204.819 200.508 204.206C200.451 203.604 200.252 202.964 199.912 202.287C199.576 201.616 199.096 200.92 198.471 200.201L197.841 199.476C197.215 198.756 196.591 198.181 195.968 197.75C195.344 197.319 194.73 197.029 194.126 196.882C193.521 196.745 192.942 196.746 192.39 196.885C191.843 197.029 191.324 197.314 190.835 197.74C190.34 198.17 189.982 198.646 189.763 199.168C189.549 199.696 189.473 200.264 189.536 200.872C189.604 201.486 189.811 202.129 190.157 202.801C190.497 203.478 190.98 204.176 191.605 204.896Z" fill="url(#paint7_linear_57_281)"/>
<path d="M209.391 173.67L207.301 172.636L211.102 164.959L213.192 165.993L209.391 173.67ZM226.029 173.264L210.738 165.694L212.043 163.058L227.334 170.628L226.029 173.264Z" fill="url(#paint8_linear_57_281)"/>
<path d="M201.675 180.99L203.84 178.058L205.702 179.463L203.55 182.375C202.924 183.224 202.585 184.071 202.533 184.916C202.477 185.768 202.688 186.594 203.165 187.394C203.638 188.2 204.352 188.955 205.308 189.661L206.052 190.211C206.794 190.759 207.513 191.159 208.21 191.412C208.903 191.671 209.565 191.781 210.196 191.742C210.822 191.709 211.41 191.531 211.959 191.209C212.504 190.892 213.001 190.429 213.451 189.819L215.721 186.747L217.606 188.139L215.336 191.212C214.663 192.123 213.894 192.842 213.029 193.369C212.171 193.9 211.254 194.228 210.278 194.352C209.298 194.483 208.299 194.401 207.283 194.107C206.267 193.813 205.265 193.301 204.279 192.572L203.553 192.036C202.566 191.308 201.783 190.501 201.203 189.616C200.623 188.731 200.252 187.801 200.088 186.826C199.931 185.855 199.982 184.872 200.24 183.878C200.5 182.895 200.978 181.932 201.675 180.99ZM216.597 189.506L202.872 179.368L204.62 177.002L218.344 187.14L216.597 189.506Z" fill="url(#paint9_linear_57_281)"/>
<path d="M62.2096 205.45C62.0091 205.739 61.8758 206.026 61.8096 206.313C61.7371 206.596 61.7453 206.906 61.8343 207.244C61.9232 207.581 62.1065 207.975 62.384 208.424C62.6507 208.876 63.0242 209.406 63.5046 210.016C64.0294 210.684 64.4872 211.34 64.8782 211.982C65.2582 212.627 65.5409 213.261 65.7263 213.884C65.9072 214.514 65.9617 215.127 65.8897 215.724C65.8133 216.327 65.5745 216.917 65.1735 217.495C64.7769 218.066 64.2972 218.503 63.7345 218.807C63.1654 219.106 62.5413 219.272 61.8624 219.305C61.1726 219.339 60.4582 219.238 59.7194 219.001C58.9761 218.77 58.2354 218.398 57.4975 217.886C56.4579 217.164 55.6964 216.35 55.213 215.443C54.7231 214.532 54.5011 213.613 54.5469 212.684C54.5862 211.75 54.8777 210.892 55.4214 210.109L57.8182 211.774C57.4973 212.236 57.3138 212.712 57.2677 213.203C57.2107 213.696 57.3098 214.184 57.565 214.665C57.8139 215.143 58.2399 215.591 58.8431 216.009C59.4142 216.406 59.9493 216.649 60.4482 216.739C60.9471 216.828 61.3921 216.79 61.7832 216.624C62.1742 216.458 62.499 216.189 62.7574 215.817C62.9401 215.554 63.0463 215.271 63.0759 214.968C63.101 214.672 63.053 214.344 62.932 213.984C62.8065 213.63 62.6101 213.242 62.3429 212.819C62.0757 212.395 61.7367 211.932 61.3258 211.427C60.7098 210.657 60.211 209.93 59.8295 209.247C59.4436 208.57 59.1807 207.921 59.0407 207.301C58.9008 206.681 58.8905 206.079 59.0099 205.496C59.1249 204.92 59.3784 204.349 59.7706 203.785C60.1805 203.194 60.6691 202.744 61.2363 202.434C61.799 202.131 62.4176 201.966 63.0921 201.939C63.7557 201.915 64.4579 202.027 65.1987 202.275C65.9287 202.525 66.669 202.911 67.4198 203.432C68.0936 203.9 68.6954 204.451 69.2252 205.085C69.7485 205.715 70.1495 206.398 70.4282 207.133C70.7023 207.876 70.805 208.632 70.7362 209.402C70.663 210.178 70.3679 210.939 69.851 211.683L67.435 210.006C67.7514 209.55 67.944 209.108 68.0127 208.681C68.0751 208.248 68.0364 207.831 67.8967 207.43C67.7525 207.035 67.5277 206.66 67.2223 206.306C66.9106 205.946 66.5397 205.617 66.1098 205.319C65.5451 204.927 65.0177 204.679 64.5277 204.577C64.0313 204.47 63.5865 204.494 63.1935 204.649C62.8005 204.804 62.4725 205.071 62.2096 205.45Z" fill="url(#paint10_linear_57_281)"/>
<path d="M42.138 193.127L42.8081 192.472C43.7295 191.57 44.6734 190.882 45.6398 190.406C46.6063 189.93 47.565 189.665 48.5158 189.609C49.4612 189.547 50.3739 189.692 51.254 190.045C52.1285 190.402 52.9346 190.958 53.6722 191.712C54.4043 192.46 54.9396 193.275 55.2781 194.157C55.6054 195.039 55.7335 195.958 55.6624 196.913C55.5912 197.868 55.3128 198.829 54.8271 199.796C54.336 200.757 53.6297 201.689 52.7084 202.59L52.0383 203.246C51.1169 204.147 50.173 204.83 49.2067 205.295C48.2347 205.765 47.2733 206.028 46.3225 206.084C45.3606 206.14 44.4451 205.992 43.5761 205.64C42.696 205.288 41.8899 204.737 41.1577 203.989C40.4201 203.235 39.8849 202.415 39.5521 201.527C39.2136 200.645 39.0855 199.726 39.1677 198.772C39.2444 197.822 39.531 196.87 40.0276 195.914C40.5131 194.958 41.2166 194.029 42.138 193.127ZM44.8652 194.574L44.1783 195.246C43.497 195.913 42.9623 196.567 42.5741 197.209C42.1749 197.851 41.925 198.473 41.8245 199.074C41.713 199.675 41.7482 200.247 41.9301 200.79C42.1065 201.339 42.4214 201.846 42.8749 202.309C43.3284 202.772 43.8248 203.096 44.3642 203.278C44.8981 203.466 45.4693 203.514 46.0781 203.421C46.6757 203.328 47.3026 203.092 47.9586 202.712C48.6091 202.338 49.2749 201.818 49.9562 201.151L50.6431 200.479C51.3243 199.813 51.8619 199.156 52.2556 198.508C52.6494 197.861 52.9021 197.231 53.0138 196.619C53.1144 196.007 53.0792 195.429 52.9084 194.886C52.7319 194.348 52.4169 193.847 51.9634 193.384C51.5045 192.915 51.0081 192.586 50.4743 192.398C49.9348 192.215 49.3635 192.173 48.7602 192.271C48.1514 192.375 47.5217 192.62 46.8711 193.005C46.2151 193.385 45.5464 193.908 44.8652 194.574Z" fill="url(#paint11_linear_57_281)"/>
<path d="M37.186 174.618L39.1208 173.316L43.9033 180.423L41.9685 181.725L37.186 174.618ZM29.2895 189.268L43.4453 179.742L45.0875 182.183L30.9316 191.708L29.2895 189.268Z" fill="url(#paint12_linear_57_281)"/>
<path d="M34.6561 164.329L36.1258 167.664L33.9823 168.583L32.5221 165.269C32.0968 164.304 31.5299 163.589 30.8214 163.124C30.1098 162.652 29.2883 162.425 28.357 162.443C27.4225 162.454 26.4119 162.698 25.3253 163.177L24.4781 163.55C23.6345 163.922 22.9299 164.348 22.3644 164.828C21.7958 165.3 21.3717 165.82 21.0923 166.387C20.8097 166.947 20.6722 167.546 20.6797 168.183C20.6841 168.812 20.8391 169.474 21.1446 170.167L22.6852 173.663L20.5405 174.609L18.9999 171.113C18.5431 170.076 18.3008 169.052 18.2731 168.039C18.2382 167.03 18.409 166.071 18.7855 165.163C19.1588 164.247 19.7254 163.421 20.4853 162.685C21.2451 161.949 22.1863 161.333 23.3087 160.839L24.1344 160.475C25.2568 159.98 26.346 159.701 27.402 159.637C28.4581 159.573 29.45 159.712 30.3778 160.054C31.2984 160.4 32.1261 160.931 32.8607 161.649C33.5851 162.363 34.1836 163.256 34.6561 164.329ZM19.8552 173.054L35.4689 166.173L36.6551 168.865L21.0414 175.745L19.8552 173.054Z" fill="url(#paint13_linear_57_281)"/>
<path d="M18.0008 140.428L18.916 140.224C20.1742 139.944 21.3393 139.857 22.4113 139.962C23.4833 140.068 24.438 140.348 25.2753 140.802C26.111 141.248 26.8099 141.853 27.372 142.616C27.9264 143.381 28.3182 144.278 28.5474 145.308C28.7748 146.33 28.7997 147.304 28.6221 148.232C28.4351 149.154 28.0596 150.002 27.4955 150.776C26.9314 151.55 26.188 152.22 25.2654 152.785C24.3411 153.343 23.2498 153.762 21.9916 154.042L21.0765 154.246C19.8182 154.526 18.656 154.609 17.59 154.494C16.5163 154.38 15.5608 154.097 14.7234 153.643C13.8767 153.183 13.177 152.575 12.6242 151.817C12.0622 151.054 11.6674 150.161 11.44 149.139C11.2108 148.11 11.1889 147.13 11.3741 146.201C11.5518 145.273 11.9273 144.425 12.5007 143.657C13.0665 142.891 13.8124 142.232 14.7384 141.682C15.6551 141.126 16.7426 140.708 18.0008 140.428ZM19.555 143.095L18.617 143.304C17.6867 143.511 16.8873 143.785 16.2188 144.126C15.541 144.461 15.0009 144.857 14.5986 145.315C14.1869 145.767 13.915 146.271 13.783 146.829C13.6434 147.388 13.644 147.985 13.7849 148.618C13.9258 149.25 14.1772 149.787 14.5392 150.226C14.8936 150.668 15.3538 151.01 15.92 151.252C16.4768 151.488 17.134 151.618 17.8915 151.641C18.6415 151.666 19.4816 151.575 20.412 151.368L21.35 151.16C22.2803 150.953 23.0835 150.678 23.7596 150.335C24.4357 149.993 24.9826 149.591 25.4002 149.13C25.8085 148.663 26.0833 148.153 26.2246 147.602C26.3583 147.052 26.3547 146.46 26.2138 145.827C26.0713 145.187 25.8228 144.646 25.4684 144.204C25.1065 143.765 24.6432 143.427 24.0788 143.193C23.5067 142.96 22.8428 142.836 22.0869 142.82C21.3293 142.796 20.4854 142.888 19.555 143.095Z" fill="url(#paint14_linear_57_281)"/>
<path d="M82.458 31.1921C82.3067 30.8748 82.1228 30.6162 81.9065 30.4165C81.6971 30.2134 81.4238 30.0667 81.0865 29.9765C80.7493 29.8863 80.3166 29.8502 79.7886 29.8682C79.2643 29.8758 78.6184 29.937 77.851 30.0519C77.01 30.1759 76.2136 30.2483 75.4619 30.2691C74.7139 30.2795 74.0233 30.2106 73.3901 30.0624C72.7535 29.9071 72.194 29.6502 71.7115 29.2917C71.2257 28.9261 70.8315 28.426 70.5289 27.7913C70.2297 27.1637 70.0878 26.5302 70.1034 25.8911C70.1259 25.2485 70.2914 24.6243 70.5998 24.0186C70.912 23.4025 71.3542 22.8325 71.9267 22.3086C72.4958 21.7776 73.1859 21.3188 73.9969 20.9322C75.1393 20.3876 76.2239 20.1302 77.2508 20.16C78.2846 20.1864 79.1935 20.4499 79.9773 20.9504C80.7682 21.4475 81.3687 22.1262 81.7789 22.9866L79.1449 24.2422C78.9028 23.7345 78.58 23.3388 78.1765 23.0551C77.7767 22.761 77.3044 22.6054 76.7595 22.5882C76.2218 22.5676 75.6215 22.7153 74.9585 23.0313C74.3309 23.3305 73.8544 23.6745 73.5291 24.0632C73.2038 24.452 73.0162 24.8573 72.9664 25.2792C72.9165 25.7011 72.989 26.1166 73.184 26.5256C73.3219 26.8147 73.5149 27.0472 73.7632 27.2231C74.0082 27.392 74.3169 27.5131 74.6894 27.5865C75.0586 27.6529 75.4932 27.675 75.9934 27.653C76.4935 27.6309 77.0643 27.5665 77.7058 27.4598C78.6801 27.3069 79.5586 27.2343 80.3412 27.242C81.1205 27.2427 81.8141 27.3361 82.4222 27.5223C83.0302 27.7084 83.5576 27.9979 84.0045 28.3907C84.4481 28.7764 84.8178 29.2796 85.1136 29.9002C85.4229 30.549 85.5715 31.1965 85.5593 31.8428C85.5438 32.482 85.3801 33.1009 85.0684 33.6996C84.7603 34.2879 84.3148 34.8421 83.7319 35.3623C83.1527 35.8721 82.4506 36.3236 81.6255 36.717C80.885 37.07 80.108 37.3192 79.2946 37.4646C78.4882 37.6067 77.6965 37.6163 76.9195 37.4933C76.1392 37.3634 75.4317 37.0775 74.797 36.6357C74.159 36.1869 73.645 35.5535 73.255 34.7354L75.9102 33.4697C76.1489 33.9704 76.4369 34.3567 76.7742 34.6286C77.1186 34.8972 77.4998 35.0704 77.9176 35.1481C78.3321 35.2188 78.7691 35.2095 79.2286 35.1203C79.6951 35.0278 80.1646 34.8689 80.6371 34.6436C81.2577 34.3478 81.734 34.0125 82.066 33.6379C82.4051 33.2599 82.6048 32.8618 82.6651 32.4436C82.7254 32.0254 82.6563 31.6082 82.458 31.1921Z" fill="url(#paint15_linear_57_281)"/>
<path d="M103.095 19.8497L103.33 20.7573C103.653 22.0052 103.78 23.1667 103.711 24.2416C103.642 25.3166 103.395 26.2803 102.97 27.1327C102.553 27.9832 101.972 28.7024 101.229 29.2902C100.483 29.8705 99.5997 30.2928 98.5787 30.5571C97.5652 30.8194 96.5917 30.8776 95.6582 30.7319C94.7304 30.5766 93.8701 30.2303 93.0773 29.6931C92.2846 29.1558 91.5899 28.4358 90.9931 27.5331C90.4039 26.6284 89.9478 25.5521 89.6248 24.3042L89.3899 23.3966C89.067 22.1486 88.9446 20.99 89.0229 19.9206C89.0993 18.8437 89.35 17.879 89.775 17.0266C90.2055 16.1647 90.7898 15.4445 91.5278 14.8662C92.2715 14.2783 93.15 13.8532 94.1635 13.5909C95.1845 13.3266 96.1628 13.2712 97.0982 13.4245C98.0317 13.5703 98.892 13.9165 99.6791 14.4633C100.464 15.0026 101.148 15.7255 101.729 16.6321C102.317 17.5292 102.772 18.6017 103.095 19.8497ZM100.482 21.4943L100.241 20.564C100.002 19.6413 99.7012 18.8517 99.3376 18.1953C98.9797 17.5293 98.5651 17.0032 98.0939 16.6167C97.6282 16.2207 97.1145 15.9663 96.5527 15.8535C95.9889 15.7331 95.3932 15.7541 94.7654 15.9166C94.1376 16.0791 93.6103 16.3487 93.1832 16.7256C92.7543 17.0948 92.4285 17.5665 92.2058 18.1406C91.9888 18.7052 91.8815 19.3664 91.884 20.1243C91.8845 20.8747 92.0042 21.7112 92.243 22.634L92.4838 23.5643C92.7226 24.487 93.0247 25.2803 93.3903 25.9443C93.7558 26.6083 94.1761 27.141 94.6512 27.5426C95.132 27.9347 95.6505 28.1919 96.2067 28.3142C96.7609 28.429 97.3519 28.4052 97.9797 28.2427C98.615 28.0783 99.1472 27.8114 99.5761 27.4422C100.003 27.0654 100.324 26.5909 100.539 26.0187C100.752 25.439 100.854 24.7712 100.844 24.0152C100.841 23.2573 100.721 22.417 100.482 21.4943Z" fill="url(#paint16_linear_57_281)"/>
<path d="M121.286 24.7371L121.457 27.0628L112.913 27.6901L112.742 25.3644L121.286 24.7371ZM112.482 10.6134L113.731 27.6301L110.798 27.8455L109.548 10.8288L112.482 10.6134Z" fill="url(#paint17_linear_57_281)"/>
<path d="M131.761 27.5928L128.136 27.2141L128.402 24.8972L132.003 25.2734C133.052 25.383 133.954 25.2455 134.709 24.861C135.472 24.4772 136.077 23.8766 136.523 23.0592C136.978 22.2427 137.267 21.2438 137.39 20.0628L137.486 19.142C137.582 18.2251 137.562 17.4022 137.426 16.6732C137.298 15.945 137.057 15.3189 136.703 14.7949C136.357 14.2718 135.906 13.8554 135.349 13.5459C134.8 13.2372 134.149 13.0435 133.395 12.9647L129.596 12.5678L129.839 10.2367L133.639 10.6337C134.765 10.7514 135.775 11.0493 136.668 11.5274C137.561 11.9978 138.309 12.6219 138.911 13.3996C139.521 14.1781 139.957 15.0799 140.219 16.1048C140.481 17.1298 140.549 18.2522 140.421 19.4722L140.327 20.3696C140.2 21.5895 139.902 22.6738 139.434 23.6225C138.965 24.5712 138.353 25.3633 137.595 25.999C136.838 26.6269 135.966 27.0817 134.978 27.3634C133.999 27.6381 132.926 27.7146 131.761 27.5928ZM131.529 10.4133L129.756 27.3834L126.831 27.0778L128.604 10.1076L131.529 10.4133Z" fill="url(#paint18_linear_57_281)"/>
<path d="M161.301 25.0941L161.022 25.989C160.638 27.2196 160.133 28.2733 159.508 29.1502C158.882 30.0271 158.164 30.7155 157.353 31.2154C156.55 31.7177 155.677 32.0224 154.736 32.1295C153.796 32.2291 152.823 32.1218 151.816 31.8076C150.817 31.4958 149.959 31.0317 149.243 30.4154C148.537 29.7939 147.988 29.0459 147.599 28.1713C147.209 27.2966 146.998 26.3185 146.967 25.2368C146.944 24.1574 147.125 23.0024 147.509 21.7719L147.788 20.877C148.172 19.6464 148.679 18.5976 149.31 17.7305C149.943 16.8559 150.665 16.1687 151.476 15.6688C152.296 15.1637 153.172 14.8602 154.104 14.7582C155.046 14.6511 156.017 14.7535 157.016 15.0654C158.023 15.3796 158.883 15.8485 159.597 16.4723C160.313 17.0886 160.861 17.8366 161.242 18.7164C161.624 19.5887 161.823 20.5634 161.839 21.6404C161.865 22.7123 161.685 23.8636 161.301 25.0941ZM158.214 25.1128L158.501 24.1955C158.784 23.2856 158.945 22.456 158.983 21.7066C159.03 20.952 158.955 20.2863 158.759 19.7094C158.572 19.1274 158.27 18.6402 157.852 18.248C157.437 17.8482 156.92 17.5518 156.301 17.3586C155.682 17.1655 155.091 17.1163 154.53 17.2111C153.971 17.2985 153.445 17.5273 152.953 17.8975C152.471 18.2627 152.031 18.7678 151.633 19.413C151.238 20.0507 150.898 20.8245 150.614 21.7343L150.328 22.6516C150.044 23.5615 149.882 24.3949 149.842 25.1517C149.802 25.9086 149.878 26.583 150.07 27.1748C150.272 27.7615 150.576 28.2535 150.984 28.6509C151.395 29.0408 151.909 29.3324 152.528 29.5255C153.155 29.721 153.748 29.7751 154.307 29.6877C154.868 29.5929 155.391 29.3592 155.876 28.9866C156.363 28.6066 156.801 28.0928 157.192 27.4453C157.589 26.8002 157.93 26.0227 158.214 25.1128Z" fill="url(#paint19_linear_57_281)"/>
<path d="M222.1 62.8923L216.242 69.369L220.625 76.9219L212.655 73.3527L206.826 79.8549L207.758 71.1723L199.773 67.638L208.319 65.8411L209.212 57.1545L213.562 64.7265L222.1 62.8923Z" fill="url(#paint20_linear_57_281)"/>
<path d="M122.028 231.624L128.428 225.683L124.72 217.777L132.348 222.027L138.722 216.057L137.037 224.626L144.683 228.843L136.014 229.888L134.366 238.463L130.693 230.541L122.028 231.624Z" fill="url(#paint21_linear_57_281)"/>
<path d="M19.0996 75.1077L27.6372 76.9419L31.9869 69.3699L32.8807 78.0565L41.4262 79.8534L33.441 83.3877L34.3728 92.0702L28.5438 85.568L20.5742 89.1373L24.9569 81.5843L19.0996 75.1077Z" fill="url(#paint22_linear_57_281)"/>
<defs>
<linearGradient id="paint0_linear_57_281" x1="180.008" y1="12.0004" x2="49.002" y2="224.51" gradientUnits="userSpaceOnUse">
<stop stop-color="#7B7B7B"/>
<stop offset="0.479167" stop-color="white"/>
<stop offset="1" stop-color="#5B5B5B"/>
</linearGradient>
<linearGradient id="paint1_linear_57_281" x1="185.769" y1="-16.7724" x2="101.571" y2="268.04" gradientUnits="userSpaceOnUse">
<stop offset="0.0766039" stop-color="#B1B1B1"/>
<stop offset="0.467814" stop-color="white"/>
<stop offset="0.640625" stop-color="#C6C6C6"/>
<stop offset="0.954567" stop-color="#959595"/>
</linearGradient>
<linearGradient id="paint2_linear_57_281" x1="123.5" y1="2" x2="123.5" y2="245" gradientUnits="userSpaceOnUse">
<stop stop-color="#DBDBDB"/>
<stop offset="0.411067" stop-color="#BCBCBC"/>
<stop offset="0.807537" stop-color="#606060"/>
</linearGradient>
<linearGradient id="paint3_linear_57_281" x1="168.659" y1="195.259" x2="79.8538" y2="45.4936" gradientUnits="userSpaceOnUse">
<stop offset="0.413978" stop-color="white"/>
<stop offset="0.828005" stop-color="#5B5B5B"/>
</linearGradient>
<linearGradient id="paint4_linear_57_281" x1="157.645" y1="80.5" x2="102.907" y2="172.51" gradientUnits="userSpaceOnUse">
<stop stop-color="#B1B1B1"/>
<stop offset="0.460741" stop-color="white"/>
<stop offset="0.640625" stop-color="#C6C6C6"/>
<stop offset="0.850349" stop-color="#959595"/>
</linearGradient>
<linearGradient id="paint5_linear_57_281" x1="241.537" y1="134.884" x2="213.647" y2="132.403" gradientUnits="userSpaceOnUse">
<stop stop-color="#646464"/>
<stop offset="0.541667" stop-color="#A2A2A2"/>
<stop offset="0.984375" stop-color="#605E5E"/>
</linearGradient>
<linearGradient id="paint6_linear_57_281" x1="237.389" y1="157.153" x2="210.478" y2="149.42" gradientUnits="userSpaceOnUse">
<stop stop-color="#646464"/>
<stop offset="0.541667" stop-color="#A2A2A2"/>
<stop offset="0.984375" stop-color="#605E5E"/>
</linearGradient>
<linearGradient id="paint7_linear_57_281" x1="203.862" y1="212.708" x2="185.493" y2="191.576" gradientUnits="userSpaceOnUse">
<stop stop-color="#646464"/>
<stop offset="0.541667" stop-color="#A2A2A2"/>
<stop offset="0.984375" stop-color="#605E5E"/>
</linearGradient>
<linearGradient id="paint8_linear_57_281" x1="229.653" y1="177.072" x2="204.56" y2="164.649" gradientUnits="userSpaceOnUse">
<stop stop-color="#646464"/>
<stop offset="0.541667" stop-color="#A2A2A2"/>
<stop offset="0.984375" stop-color="#605E5E"/>
</linearGradient>
<linearGradient id="paint9_linear_57_281" x1="218.688" y1="194.984" x2="196.166" y2="178.349" gradientUnits="userSpaceOnUse">
<stop stop-color="#646464"/>
<stop offset="0.541667" stop-color="#A2A2A2"/>
<stop offset="0.984375" stop-color="#605E5E"/>
</linearGradient>
<linearGradient id="paint10_linear_57_281" x1="54.9978" y1="221.876" x2="70.9683" y2="198.877" gradientUnits="userSpaceOnUse">
<stop stop-color="#3F3F3F"/>
<stop offset="0.541667" stop-color="#989898"/>
<stop offset="0.984375" stop-color="#303030"/>
</linearGradient>
<linearGradient id="paint11_linear_57_281" x1="37.7879" y1="207.27" x2="57.8015" y2="187.688" gradientUnits="userSpaceOnUse">
<stop stop-color="#3F3F3F"/>
<stop offset="0.541667" stop-color="#989898"/>
<stop offset="0.984375" stop-color="#303030"/>
</linearGradient>
<linearGradient id="paint12_linear_57_281" x1="24.1856" y1="190.527" x2="47.4157" y2="174.895" gradientUnits="userSpaceOnUse">
<stop stop-color="#3F3F3F"/>
<stop offset="0.541667" stop-color="#989898"/>
<stop offset="0.984375" stop-color="#303030"/>
</linearGradient>
<linearGradient id="paint13_linear_57_281" x1="14.0611" y1="172.149" x2="39.6835" y2="160.858" gradientUnits="userSpaceOnUse">
<stop stop-color="#3F3F3F"/>
<stop offset="0.541667" stop-color="#989898"/>
<stop offset="0.984375" stop-color="#303030"/>
</linearGradient>
<linearGradient id="paint14_linear_57_281" x1="6.84663" y1="150.15" x2="34.1778" y2="144.066" gradientUnits="userSpaceOnUse">
<stop stop-color="#3F3F3F"/>
<stop offset="0.541667" stop-color="#989898"/>
<stop offset="0.984375" stop-color="#303030"/>
</linearGradient>
<linearGradient id="paint15_linear_57_281" x1="71.772" y1="16.7826" x2="83.8209" y2="42.0576" gradientUnits="userSpaceOnUse">
<stop stop-color="#575757"/>
<stop offset="0.541667" stop-color="#9E9E9E"/>
<stop offset="0.984375" stop-color="#525050"/>
</linearGradient>
<linearGradient id="paint16_linear_57_281" x1="92.9965" y1="9.03485" x2="100.012" y2="36.1417" gradientUnits="userSpaceOnUse">
<stop stop-color="#575757"/>
<stop offset="0.541667" stop-color="#9E9E9E"/>
<stop offset="0.984375" stop-color="#525050"/>
</linearGradient>
<linearGradient id="paint17_linear_57_281" x1="113.92" y1="5.55698" x2="115.97" y2="33.4818" gradientUnits="userSpaceOnUse">
<stop stop-color="#575757"/>
<stop offset="0.541667" stop-color="#9E9E9E"/>
<stop offset="0.984375" stop-color="#525050"/>
</linearGradient>
<linearGradient id="paint18_linear_57_281" x1="135.189" y1="5.83125" x2="132.28" y2="33.6797" gradientUnits="userSpaceOnUse">
<stop stop-color="#575757"/>
<stop offset="0.541667" stop-color="#9E9E9E"/>
<stop offset="0.984375" stop-color="#525050"/>
</linearGradient>
<linearGradient id="paint19_linear_57_281" x1="158.429" y1="10.5793" x2="150.087" y2="37.308" gradientUnits="userSpaceOnUse">
<stop stop-color="#575757"/>
<stop offset="0.541667" stop-color="#9E9E9E"/>
<stop offset="0.984375" stop-color="#525050"/>
</linearGradient>
<linearGradient id="paint20_linear_57_281" x1="222.1" y1="62.8923" x2="201.315" y2="74.8923" gradientUnits="userSpaceOnUse">
<stop offset="0.278176" stop-color="#646464"/>
<stop offset="0.541667" stop-color="#BCBCBC" stop-opacity="0.85"/>
<stop offset="0.837608" stop-color="#606060"/>
</linearGradient>
<linearGradient id="paint21_linear_57_281" x1="130.6" y1="215" x2="134.1" y2="237" gradientUnits="userSpaceOnUse">
<stop offset="0.398897" stop-color="#646464" stop-opacity="0.85"/>
<stop offset="0.523184" stop-color="#9F9F9F"/>
<stop offset="0.645109" stop-color="#606060" stop-opacity="0.8"/>
</linearGradient>
<linearGradient id="paint22_linear_57_281" x1="19.0996" y1="75.1077" x2="39.8842" y2="87.1077" gradientUnits="userSpaceOnUse">
<stop stop-color="#646464"/>
<stop offset="0.541667" stop-color="#BCBCBC" stop-opacity="0.85"/>
<stop offset="0.984375" stop-color="#606060"/>
</linearGradient>
</defs>
</svg>
