<svg width="262" height="293" viewBox="0 0 262 293" fill="none" xmlns="http://www.w3.org/2000/svg">
<path d="M238.272 71.7181C268.521 113.533 249.474 177.048 196.062 215.686C142.801 254.215 78.202 250.725 47.8677 208.792C17.3682 166.63 32.1444 99.0632 85.1295 60.7343C138.117 22.4038 207.773 29.5582 238.272 71.7181Z" stroke="url(#paint0_linear_242_135)" stroke-width="10"/>
<path d="M229.528 49.8163C273.796 102.276 262.362 165.707 200.781 215.683C137.375 262.436 68.5949 251.157 32.4427 205.174C-3.70953 159.19 9.54978 82.7535 65.6942 42.1391C121.839 1.52464 196.222 3.77424 229.528 49.8163Z" fill="url(#paint1_linear_242_135)"/>
<path d="M222.894 48.7173C238.058 69.6797 240.575 96.0613 232.369 122.417C224.153 148.81 205.214 174.941 177.939 194.671C123.069 234.364 57.3269 231.567 27.0561 189.722C-3.37619 147.653 12.4353 79.1955 67.0272 39.7041C121.621 0.211224 192.463 6.65003 222.894 48.7173Z" stroke="url(#paint2_linear_242_135)" stroke-width="10"/>
<path d="M211.064 48.47C236.368 83.4492 222.097 143.492 169.363 181.639C116.63 219.786 55.1373 214.55 29.8336 179.571C4.5299 144.592 18.8008 84.5492 71.5343 46.4022C124.268 8.25513 185.76 13.4908 211.064 48.47Z" fill="#B9B9B9" stroke="url(#paint3_linear_242_135)" stroke-width="26"/>
<path d="M197.601 58.2513C208.341 73.0981 209.776 92.8267 203.001 112.962C196.228 133.091 181.294 153.41 159.714 169.021C138.134 184.632 114.162 192.456 92.9244 192.59C71.6804 192.724 53.3918 185.187 42.6518 170.34C31.9118 155.494 30.4767 135.765 37.2519 115.63C44.0251 95.5005 58.9585 75.1816 80.5386 59.5707C102.119 43.9598 126.09 36.1352 147.328 36.0014C168.572 35.8677 186.861 43.4045 197.601 58.2513Z" stroke="url(#paint4_linear_242_135)" stroke-width="5"/>
<path d="M140.362 156.309H107.61C107.334 156.309 107.177 156.097 107.252 155.834L107.27 155.771C107.826 153.829 108.744 150.626 115.401 149.955C115.668 149.928 115.939 149.719 116.027 149.472C118.272 143.15 123.229 141.038 124.283 140.652C124.413 140.605 124.534 140.526 124.617 140.415C124.933 139.99 125.63 138.861 124.715 138.196C124.622 138.128 124.478 138.123 124.336 138.163C114.654 140.937 112.345 134.953 114.274 130.721C109.75 130.721 112.34 126.941 113.927 125.85C111.485 126.399 110.885 125.432 111.326 124.304C111.385 124.153 111.548 124.02 111.711 123.949C118.312 121.065 99.3061 122.661 94.3489 123.527C85.1891 125.126 71.8296 125.925 61.7768 125.126C54.7899 124.326 57.3534 120.14 57.3534 120.14C57.3534 120.14 97.3879 118.463 106.529 116.064C111.395 114.787 114.276 113.665 113.307 108.069C112.483 103.307 114.497 99.0832 116.908 96.3955C117.079 96.2046 117.124 95.9663 117.021 95.8064C114.442 91.7972 118.23 87.179 120.775 85.8519C120.99 85.7394 121.165 85.534 121.202 85.3316C123.849 71.0065 131.573 74.4135 136.265 77.0468C136.385 77.1136 136.556 77.1096 136.719 77.0436C164.676 65.7024 165.663 83.5951 162.422 92.503C162.341 92.7254 162.437 92.9233 162.64 92.988C175.428 97.0593 165.348 106.419 157.91 107.211C152.361 120.066 145.627 125.182 140.622 128.643C140.472 128.747 140.367 128.897 140.337 129.047L138.873 136.459C138.827 136.687 138.974 136.861 139.205 136.889C147.075 137.854 142.007 153.05 140.999 155.863C140.908 156.115 140.627 156.309 140.362 156.309Z" fill="#646464"/>
<path d="M140.935 154.544H108.183C107.907 154.544 107.75 154.331 107.865 154.07C109.045 151.4 112.854 148.474 115.943 148.173C116.227 148.146 116.52 147.932 116.614 147.669C118.859 141.393 123.779 139.284 124.848 138.891C124.984 138.842 125.109 138.759 125.189 138.642C125.478 138.224 126.063 137.169 125.153 136.519C125.059 136.452 124.916 136.446 124.775 136.487C115.412 139.186 112.7 134.833 114.27 130.718C114.363 130.475 114.27 130.251 114.047 130.182C111.866 129.511 111.79 128.065 112.862 126.847C113.222 126.438 113.192 125.718 112.75 125.62C111.113 125.256 111.013 124.254 111.916 123.404C111.946 123.376 111.985 123.347 112.02 123.324C116.769 120.169 99.9255 120.889 94.9223 121.763C85.7625 123.362 72.403 124.161 62.3502 123.362C55.3633 122.562 56.935 119.448 58.6323 119.364C80.1612 118.298 97.9613 116.699 107.102 114.3C111.968 113.023 114.85 111.901 113.881 106.304C113.057 101.543 115.071 97.3191 117.482 94.6314C117.653 94.4405 117.697 94.2021 117.595 94.0423C115.015 90.0331 118.803 85.4149 121.348 84.0877C121.564 83.9752 121.738 83.7699 121.775 83.5675C124.422 69.2423 132.147 72.6493 136.839 75.2826C136.958 75.3495 137.13 75.3454 137.292 75.2794C165.337 63.9024 166.242 81.9444 162.964 90.8231C162.897 91.0041 162.948 91.1738 163.083 91.2644C174.699 99.0329 166.51 104.505 159.15 105.456C158.907 105.487 158.665 105.668 158.568 105.89C153.047 118.455 146.14 123.243 141.178 126.661C141.026 126.766 140.921 126.916 140.892 127.068L139.442 134.698C139.399 134.924 139.546 135.097 139.775 135.125C147.65 136.086 142.581 151.285 141.572 154.098C141.482 154.351 141.201 154.544 140.935 154.544Z" fill="url(#paint5_linear_242_135)"/>
<path d="M209.776 125.434C210.116 125.463 210.441 125.438 210.749 125.357C211.054 125.284 211.369 125.131 211.694 124.899C212.019 124.666 212.379 124.329 212.775 123.888C213.176 123.455 213.633 122.897 214.147 122.213C214.711 121.464 215.277 120.777 215.845 120.151C216.417 119.534 217.001 119.002 217.595 118.555C218.198 118.109 218.812 117.775 219.438 117.553C220.072 117.332 220.729 117.251 221.41 117.31C222.084 117.369 222.64 117.559 223.077 117.881C223.512 118.21 223.823 118.648 224.011 119.193C224.203 119.747 224.261 120.385 224.187 121.107C224.119 121.83 223.908 122.617 223.552 123.468C223.05 124.667 222.391 125.679 221.575 126.506C220.755 127.34 219.866 127.957 218.906 128.356C217.944 128.763 217.001 128.927 216.077 128.847L217.234 126.082C217.779 126.13 218.307 126.057 218.82 125.864C219.336 125.678 219.812 125.367 220.246 124.929C220.677 124.499 221.038 123.936 221.329 123.24C221.605 122.581 221.732 122.025 221.71 121.57C221.689 121.116 221.549 120.766 221.29 120.521C221.032 120.276 220.683 120.135 220.244 120.097C219.934 120.07 219.621 120.115 219.305 120.234C218.996 120.353 218.672 120.547 218.332 120.816C217.999 121.087 217.647 121.432 217.275 121.852C216.903 122.272 216.506 122.771 216.084 123.348C215.437 124.219 214.807 124.974 214.196 125.611C213.592 126.249 212.989 126.772 212.387 127.18C211.784 127.587 211.172 127.879 210.549 128.055C209.934 128.232 209.294 128.291 208.628 128.233C207.932 128.173 207.361 127.981 206.915 127.659C206.477 127.337 206.169 126.903 205.989 126.358C205.813 125.822 205.768 125.189 205.854 124.46C205.944 123.739 206.17 122.946 206.532 122.08C206.857 121.303 207.284 120.546 207.811 119.809C208.336 119.08 208.943 118.427 209.631 117.851C210.327 117.275 211.076 116.833 211.879 116.527C212.689 116.222 213.533 116.107 214.411 116.184L213.245 118.97C212.708 118.924 212.213 118.973 211.76 119.117C211.304 119.269 210.887 119.498 210.509 119.802C210.138 120.108 209.806 120.47 209.513 120.889C209.216 121.316 208.964 121.777 208.757 122.273C208.484 122.924 208.351 123.477 208.358 123.93C208.361 124.39 208.487 124.746 208.735 124.998C208.982 125.25 209.329 125.395 209.776 125.434Z" fill="url(#paint6_linear_242_135)"/>
<path d="M202.439 146.52L201.618 146.273C200.489 145.935 199.572 145.478 198.869 144.902C198.165 144.326 197.677 143.658 197.406 142.898C197.13 142.145 197.073 141.322 197.235 140.429C197.404 139.538 197.79 138.61 198.395 137.646C198.995 136.689 199.708 135.863 200.533 135.169C201.361 134.484 202.271 133.947 203.263 133.557C204.255 133.168 205.3 132.946 206.398 132.894C207.491 132.849 208.602 132.995 209.731 133.334L210.552 133.58C211.681 133.918 212.592 134.378 213.284 134.959C213.984 135.542 214.469 136.214 214.74 136.974C215.014 137.743 215.069 138.57 214.904 139.454C214.743 140.347 214.362 141.272 213.762 142.229C213.157 143.193 212.439 144.021 211.606 144.713C210.781 145.407 209.871 145.945 208.876 146.325C207.889 146.708 206.851 146.918 205.762 146.956C204.675 147.004 203.567 146.858 202.439 146.52ZM203.303 143.585L204.145 143.837C204.98 144.088 205.769 144.222 206.513 144.242C207.259 144.271 207.95 144.185 208.587 143.986C209.227 143.796 209.804 143.498 210.318 143.092C210.84 142.689 211.286 142.191 211.658 141.598C212.029 141.005 212.248 140.443 212.313 139.911C212.385 139.381 212.305 138.886 212.073 138.427C211.844 137.976 211.461 137.569 210.926 137.204C210.397 136.842 209.715 136.536 208.88 136.285L208.039 136.033C207.204 135.783 206.411 135.647 205.661 135.625C204.91 135.604 204.209 135.691 203.559 135.886C202.91 136.09 202.328 136.39 201.811 136.787C201.301 137.185 200.86 137.681 200.488 138.274C200.112 138.874 199.888 139.438 199.816 139.968C199.751 140.5 199.836 140.992 200.073 141.445C200.316 141.9 200.708 142.306 201.248 142.663C201.784 143.027 202.469 143.335 203.303 143.585Z" fill="url(#paint7_linear_242_135)"/>
<path d="M185.662 157.97L183.891 156.986L190.064 149.684L191.835 150.668L185.662 157.97ZM202.425 157.583L189.473 150.383L191.593 147.876L204.545 155.076L202.425 157.583Z" fill="url(#paint8_linear_242_135)"/>
<path d="M176.743 163.839L179.814 161.051L181.242 162.386L178.19 165.156C177.301 165.963 176.7 166.769 176.388 167.573C176.068 168.383 176.023 169.169 176.254 169.929C176.478 170.696 176.959 171.414 177.696 172.086L178.271 172.609C178.843 173.13 179.439 173.51 180.058 173.751C180.67 173.997 181.298 174.101 181.941 174.064C182.577 174.033 183.22 173.864 183.869 173.557C184.511 173.256 185.152 172.816 185.79 172.236L189.01 169.314L190.465 170.638L187.245 173.561C186.291 174.427 185.3 175.111 184.272 175.612C183.249 176.117 182.231 176.429 181.217 176.547C180.196 176.671 179.223 176.593 178.298 176.314C177.372 176.034 176.529 175.548 175.767 174.855L175.207 174.345C174.446 173.652 173.912 172.884 173.605 172.043C173.299 171.201 173.215 170.317 173.353 169.389C173.496 168.466 173.85 167.531 174.415 166.586C174.979 165.651 175.755 164.735 176.743 163.839ZM189.033 171.938L178.441 162.297L180.92 160.046L191.512 169.688L189.033 171.938Z" fill="url(#paint9_linear_242_135)"/>
<path d="M40.7464 185.463C40.4566 185.738 40.2344 186.011 40.0796 186.284C39.9197 186.553 39.8321 186.848 39.8167 187.169C39.8014 187.49 39.863 187.864 40.0016 188.292C40.1288 188.721 40.3384 189.226 40.6305 189.805C40.9486 190.441 41.2039 191.065 41.3963 191.676C41.5772 192.289 41.664 192.891 41.6568 193.484C41.6431 194.083 41.5081 194.666 41.2517 195.234C40.9888 195.808 40.5677 196.369 39.9881 196.918C39.4151 197.462 38.8003 197.878 38.1437 198.166C37.4822 198.451 36.8069 198.608 36.1178 198.64C35.4173 198.672 34.7343 198.576 34.0687 198.35C33.3968 198.131 32.771 197.778 32.1914 197.29C31.3749 196.604 30.865 195.829 30.6616 194.967C30.4532 194.101 30.5154 193.226 30.8483 192.343C31.176 191.455 31.7327 190.639 32.5183 189.895L34.4007 191.477C33.9371 191.917 33.6064 192.37 33.4085 192.837C33.1991 193.306 33.1476 193.769 33.254 194.228C33.3554 194.681 33.643 195.107 34.1168 195.506C34.5654 195.883 35.0252 196.114 35.4965 196.199C35.9677 196.285 36.4245 196.248 36.8668 196.091C37.3092 195.933 37.7171 195.677 38.0906 195.323C38.3546 195.073 38.5481 194.804 38.6713 194.515C38.788 194.234 38.8415 193.921 38.8317 193.579C38.8154 193.243 38.7391 192.874 38.6027 192.471C38.4663 192.068 38.2705 191.627 38.0154 191.148C37.6374 190.416 37.3632 189.724 37.1929 189.074C37.0162 188.43 36.9537 187.814 37.0054 187.224C37.0572 186.634 37.2328 186.062 37.5323 185.507C37.8254 184.959 38.2553 184.416 38.8219 183.879C39.4143 183.318 40.042 182.89 40.705 182.595C41.3615 182.306 42.0311 182.149 42.7137 182.124C43.3848 182.101 44.0524 182.208 44.7166 182.444C45.3692 182.681 45.9904 183.048 46.5801 183.544C47.1093 183.989 47.5408 184.513 47.8746 185.116C48.2033 185.715 48.3934 186.365 48.4447 187.064C48.4895 187.77 48.3586 188.489 48.0518 189.222C47.7385 189.96 47.2085 190.683 46.4615 191.391L44.5639 189.796C45.0211 189.362 45.3502 188.942 45.5512 188.536C45.7471 188.124 45.8373 187.728 45.8215 187.346C45.7994 186.971 45.6904 186.614 45.4947 186.277C45.2939 185.935 45.0247 185.622 44.687 185.338C44.2435 184.966 43.7925 184.73 43.3342 184.633C42.8708 184.531 42.4187 184.554 41.9777 184.702C41.5367 184.849 41.1263 185.103 40.7464 185.463Z" fill="url(#paint10_linear_242_135)"/>
<path d="M25.2966 174.635L26.1693 174.011C27.3693 173.154 28.526 172.499 29.6394 172.047C30.7529 171.594 31.7937 171.342 32.7618 171.288C33.7262 171.23 34.594 171.368 35.3653 171.703C36.1293 172.043 36.7637 172.572 37.2683 173.289C37.7692 174 38.0526 174.776 38.1184 175.614C38.1733 176.453 38.0176 177.327 37.6513 178.235C37.285 179.143 36.7096 180.057 35.9251 180.977C35.1369 181.891 34.1428 182.777 32.9428 183.635L32.0701 184.258C30.8702 185.116 29.7152 185.765 28.6053 186.207C27.4881 186.654 26.4455 186.904 25.4773 186.957C24.4982 187.01 23.6285 186.87 22.8682 186.535C22.0969 186.2 21.4608 185.677 20.9599 184.965C20.4553 184.248 20.1737 183.468 20.1151 182.623C20.0492 181.784 20.205 180.911 20.5823 180.003C20.9523 179.1 21.5333 178.194 22.3252 177.285C23.1062 176.376 24.0967 175.492 25.2966 174.635ZM27.5767 176.011L26.6822 176.65C25.795 177.284 25.058 177.906 24.4714 178.517C23.8738 179.128 23.4318 179.719 23.1456 180.29C22.8484 180.862 22.7068 181.406 22.7208 181.923C22.7275 182.445 22.886 182.926 23.1962 183.367C23.5065 183.808 23.9031 184.115 24.3861 184.289C24.8618 184.468 25.4183 184.513 26.0557 184.425C26.6821 184.337 27.382 184.112 28.1553 183.751C28.9214 183.395 29.748 182.9 30.6353 182.266L31.5298 181.627C32.4171 180.993 33.1576 180.368 33.7515 179.752C34.3454 179.136 34.7928 178.537 35.0935 177.955C35.3833 177.373 35.5267 176.824 35.5237 176.307C35.5134 175.796 35.3532 175.319 35.0429 174.879C34.7289 174.433 34.3341 174.12 33.8584 173.941C33.3754 173.767 32.8171 173.727 32.1834 173.821C31.5425 173.92 30.8372 174.152 30.0676 174.518C29.2943 174.879 28.464 175.377 27.5767 176.011Z" fill="url(#paint11_linear_242_135)"/>
<path d="M26.6043 158.052L28.9414 156.814L31.5277 163.573L29.1906 164.811L26.6043 158.052ZM14.1805 171.985L31.28 162.926L32.1681 165.246L15.0686 174.306L14.1805 171.985Z" fill="url(#paint12_linear_242_135)"/>
<path d="M27.5391 149.386L27.9782 152.558L25.5507 153.432L25.1145 150.281C24.9874 149.363 24.6414 148.683 24.0765 148.241C23.5107 147.792 22.7594 147.576 21.8226 147.593C20.8849 147.603 19.7987 147.836 18.5641 148.291L17.6015 148.646C16.643 149 15.8069 149.405 15.0932 149.861C14.3785 150.31 13.7938 150.805 13.3392 151.344C12.8836 151.877 12.5611 152.446 12.3718 153.052C12.1815 153.651 12.132 154.28 12.2233 154.939L12.6835 158.264L10.2468 159.163L9.78649 155.838C9.65002 154.852 9.72431 153.878 10.0094 152.915C10.2863 151.956 10.7534 151.044 11.4107 150.179C12.067 149.309 12.8889 148.523 13.8762 147.823C14.8636 147.123 15.9949 146.538 17.2701 146.067L18.2083 145.721C19.4835 145.251 20.6591 144.985 21.7349 144.924C22.8107 144.863 23.7596 144.995 24.5816 145.321C25.3955 145.65 26.0588 146.155 26.5716 146.838C27.0754 147.517 27.3979 148.366 27.5391 149.386ZM10.042 157.684L27.7819 151.141L28.1363 153.7L10.3964 160.244L10.042 157.684Z" fill="url(#paint13_linear_242_135)"/>
<path d="M18.296 127.996L19.2741 127.802C20.6189 127.535 21.811 127.452 22.8503 127.553C23.8897 127.653 24.7579 127.919 25.455 128.351C26.1528 128.775 26.6648 129.351 26.991 130.077C27.309 130.804 27.4236 131.657 27.3346 132.637C27.2462 133.608 26.9699 134.536 26.5055 135.418C26.0336 136.295 25.3961 137.102 24.5928 137.837C23.7896 138.573 22.8393 139.21 21.7419 139.748C20.6452 140.279 19.4245 140.677 18.0797 140.944L17.1016 141.137C15.7568 141.404 14.5691 141.482 13.5386 141.373C12.4999 141.265 11.632 140.996 10.9349 140.564C10.2303 140.127 9.71861 139.548 9.3999 138.828C9.0737 138.102 8.95477 137.253 9.04309 136.281C9.13208 135.302 9.41284 134.37 9.88538 133.486C10.3498 132.603 10.9873 131.797 11.798 131.067C12.6006 130.338 13.5499 129.712 14.646 129.189C15.7345 128.66 16.9512 128.262 18.296 127.996ZM19.0259 130.532L18.0234 130.731C17.029 130.928 16.145 131.189 15.3712 131.513C14.5899 131.831 13.9273 132.208 13.3835 132.644C12.8322 133.073 12.4044 133.553 12.1001 134.084C11.7876 134.615 11.6041 135.182 11.5493 135.784C11.4946 136.386 11.5803 136.896 11.8065 137.315C12.0244 137.734 12.3791 138.059 12.8704 138.29C13.3542 138.514 13.9712 138.638 14.7216 138.66C15.4637 138.684 16.332 138.598 17.3263 138.401L18.3288 138.202C19.3232 138.005 20.2113 137.744 20.9933 137.418C21.7752 137.092 22.4463 136.71 23.0064 136.271C23.559 135.827 23.9912 135.343 24.303 134.818C24.6066 134.295 24.7858 133.733 24.8405 133.131C24.8959 132.521 24.8146 132.007 24.5966 131.587C24.3705 131.169 24.0115 130.848 23.5195 130.625C23.0194 130.404 22.3939 130.286 21.6429 130.271C20.8926 130.248 20.0202 130.336 19.0259 130.532Z" fill="url(#paint14_linear_242_135)"/>
<path d="M158.939 187.801L158.504 187.153C157.906 186.262 157.524 185.348 157.358 184.413C157.192 183.477 157.23 182.548 157.471 181.627C157.705 180.711 158.132 179.826 158.752 178.972C159.375 178.123 160.171 177.341 161.141 176.624C162.103 175.913 163.07 175.393 164.042 175.063C165.009 174.744 165.951 174.617 166.866 174.684C167.781 174.751 168.638 175.019 169.436 175.488C170.227 175.962 170.921 176.644 171.519 177.536L171.954 178.184C172.552 179.075 172.929 179.988 173.084 180.924C173.243 181.865 173.202 182.796 172.961 183.718C172.716 184.65 172.286 185.538 171.669 186.381C171.05 187.235 170.259 188.017 169.296 188.728C168.327 189.445 167.354 189.965 166.379 190.29C165.408 190.62 164.467 190.746 163.555 190.668C162.647 190.596 161.801 190.32 161.017 189.841C160.23 189.372 159.537 188.692 158.939 187.801ZM161.209 185.155L161.655 185.819C162.097 186.478 162.573 186.995 163.082 187.37C163.588 187.755 164.12 187.996 164.679 188.092C165.234 188.199 165.807 188.164 166.397 187.986C166.991 187.814 167.585 187.508 168.182 187.067C168.778 186.627 169.25 186.145 169.597 185.622C169.948 185.104 170.172 184.55 170.271 183.96C170.366 183.381 170.329 182.774 170.161 182.139C169.996 181.509 169.692 180.865 169.25 180.206L168.804 179.542C168.362 178.883 167.884 178.363 167.371 177.983C166.858 177.603 166.319 177.359 165.753 177.252C165.183 177.156 164.605 177.191 164.019 177.358C163.436 177.53 162.846 177.837 162.25 178.277C161.647 178.723 161.17 179.205 160.819 179.723C160.471 180.246 160.252 180.8 160.161 181.384C160.073 181.974 160.117 182.584 160.293 183.214C160.461 183.849 160.766 184.496 161.209 185.155Z" fill="url(#paint15_linear_242_135)"/>
<path d="M109.704 32.2392C109.651 31.9373 109.547 31.6914 109.392 31.5015C109.245 31.3083 109.017 31.1688 108.708 31.083C108.399 30.9972 107.977 30.9629 107.444 30.98C106.917 30.9873 106.252 31.0455 105.449 31.1547C104.57 31.2726 103.751 31.3415 102.993 31.3613C102.242 31.3711 101.573 31.3056 100.985 31.1647C100.397 31.017 99.9164 30.7727 99.5447 30.4317C99.1718 30.0841 98.9321 29.6084 98.8257 29.0048C98.7205 28.4079 98.7743 27.8054 98.9874 27.1975C99.2085 26.5864 99.5669 25.9928 100.062 25.4167C100.565 24.8307 101.183 24.2886 101.918 23.7904C102.651 23.2854 103.483 22.8491 104.413 22.4814C105.724 21.9634 106.888 21.7186 107.906 21.747C108.931 21.7721 109.759 22.0227 110.388 22.4986C111.025 22.9714 111.416 23.6169 111.56 24.4352L108.538 25.6294C108.453 25.1465 108.253 24.7701 107.937 24.5004C107.628 24.2207 107.204 24.0727 106.664 24.0563C106.133 24.0367 105.487 24.1772 104.726 24.4777C104.006 24.7623 103.423 25.0894 102.978 25.4592C102.533 25.8289 102.22 26.2144 102.039 26.6156C101.859 27.0169 101.803 27.412 101.872 27.801C101.92 28.076 102.042 28.2971 102.236 28.4644C102.428 28.625 102.7 28.7402 103.05 28.81C103.398 28.8731 103.826 28.8942 104.333 28.8732C104.84 28.8522 105.431 28.791 106.105 28.6895C107.127 28.544 108.028 28.475 108.808 28.4824C109.587 28.483 110.252 28.5719 110.802 28.7489C111.353 28.9259 111.791 29.2013 112.116 29.5748C112.44 29.9417 112.655 30.4202 112.759 31.0105C112.868 31.6275 112.816 32.2433 112.604 32.8579C112.391 33.4659 112.036 34.0545 111.539 34.6239C111.05 35.1834 110.433 35.7105 109.689 36.2052C108.952 36.69 108.111 37.1195 107.164 37.4936C106.315 37.8293 105.461 38.0663 104.602 38.2047C103.752 38.3398 102.957 38.3489 102.218 38.232C101.478 38.1083 100.859 37.8364 100.361 37.4163C99.8614 36.9895 99.5432 36.387 99.406 35.609L102.452 34.4052C102.536 34.8814 102.705 35.2488 102.958 35.5075C103.22 35.7629 103.547 35.9276 103.941 36.0015C104.334 36.0687 104.774 36.0599 105.261 35.9751C105.756 35.8871 106.274 35.7359 106.816 35.5217C107.528 35.2404 108.108 34.9215 108.556 34.5652C109.012 34.2057 109.335 33.8271 109.524 33.4293C109.714 33.0316 109.774 32.6349 109.704 32.2392Z" fill="url(#paint16_linear_242_135)"/>
<path d="M132.333 21.9237L132.287 22.7869C132.224 23.9738 131.992 25.0784 131.591 26.1007C131.191 27.1231 130.646 28.0396 129.957 28.8503C129.277 29.6591 128.474 30.3431 127.549 30.9022C126.624 31.4541 125.61 31.8557 124.508 32.1071C123.413 32.3565 122.422 32.4119 121.533 32.2733C120.653 32.1256 119.9 31.7963 119.273 31.2853C118.647 30.7743 118.175 30.0896 117.857 29.2311C117.547 28.3707 117.424 27.347 117.486 26.1602L117.532 25.297C117.594 24.1101 117.83 23.0082 118.239 21.9912C118.648 20.967 119.197 20.0495 119.885 19.2388C120.582 18.4191 121.389 17.7342 122.306 17.1841C123.231 16.625 124.241 16.2207 125.335 15.9713C126.438 15.7199 127.434 15.6672 128.322 15.813C129.21 15.9516 129.963 16.281 130.581 16.801C131.2 17.3138 131.66 18.0014 131.961 18.8636C132.271 19.7168 132.395 20.7368 132.333 21.9237ZM129.212 23.4878L129.258 22.603C129.305 21.7255 129.247 20.9746 129.087 20.3503C128.935 19.7169 128.683 19.2165 128.331 18.849C127.988 18.4724 127.552 18.2304 127.025 18.1231C126.499 18.0086 125.897 18.0286 125.219 18.1831C124.541 18.3377 123.93 18.5941 123.387 18.9525C122.843 19.3037 122.372 19.7523 121.972 20.2983C121.58 20.8352 121.269 21.4641 121.037 22.1849C120.806 22.8986 120.667 23.6942 120.62 24.5717L120.574 25.4565C120.527 26.334 120.584 27.0886 120.745 27.72C120.905 28.3515 121.161 28.8582 121.512 29.2401C121.871 29.613 122.31 29.8576 122.829 29.974C123.348 30.0831 123.946 30.0605 124.624 29.906C125.31 29.7496 125.925 29.4958 126.468 29.1446C127.011 28.7862 127.479 28.335 127.871 27.7908C128.263 27.2395 128.571 26.6044 128.795 25.8854C129.026 25.1646 129.165 24.3654 129.212 23.4878Z" fill="url(#paint17_linear_242_135)"/>
<path d="M147.605 26.7841L147.057 28.9961L138.32 29.5927L138.868 27.3807L147.605 26.7841ZM143.165 13.3517L139.156 29.5355L136.156 29.7404L140.165 13.5565L143.165 13.3517Z" fill="url(#paint18_linear_242_135)"/>
<path d="M155.837 29.4838L152.33 29.1237L153.311 26.9201L156.796 27.2779C157.812 27.3822 158.756 27.2514 159.63 26.8856C160.511 26.5207 161.301 25.9495 162.001 25.1721C162.708 24.3955 163.305 23.4456 163.794 22.3223L164.174 21.4466C164.553 20.5746 164.788 19.7919 164.877 19.0986C164.974 18.406 164.926 17.8106 164.735 17.3123C164.55 16.8147 164.228 16.4188 163.766 16.1244C163.313 15.8308 162.721 15.6465 161.992 15.5717L158.315 15.1941L159.279 12.9772L162.956 13.3547C164.046 13.4666 164.964 13.75 165.709 14.2047C166.457 14.6521 167.012 15.2456 167.373 15.9852C167.743 16.7257 167.9 17.5833 167.846 18.5581C167.791 19.5329 167.511 20.6004 167.007 21.7606L166.636 22.6141C166.131 23.7744 165.499 24.8056 164.737 25.7078C163.976 26.61 163.118 27.3634 162.164 27.968C161.213 28.5651 160.2 28.9977 159.125 29.2656C158.061 29.5269 156.965 29.5996 155.837 29.4838ZM160.914 13.1451L153.897 29.2846L151.066 28.994L158.083 12.8544L160.914 13.1451Z" fill="url(#paint19_linear_242_135)"/>
<path d="M184.753 26.8179L184.197 27.669C183.433 28.8393 182.603 29.8415 181.706 30.6754C180.809 31.5094 179.879 32.1641 178.913 32.6396C177.955 33.1173 176.988 33.407 176.013 33.5089C175.043 33.6037 174.103 33.5016 173.193 33.2028C172.29 32.9062 171.576 32.4648 171.05 31.8787C170.536 31.2877 170.219 30.5763 170.099 29.7444C169.98 28.9126 170.071 27.9823 170.375 26.9536C170.685 25.927 171.223 24.8286 171.987 23.6583L172.543 22.8071C173.307 21.6368 174.138 20.6393 175.037 19.8147C175.94 18.9829 176.875 18.3293 177.84 17.8538C178.816 17.3735 179.786 17.0848 180.75 16.9879C181.725 16.886 182.664 16.9834 183.567 17.28C184.477 17.5788 185.192 18.0248 185.713 18.6181C186.239 19.2042 186.556 19.9156 186.664 20.7523C186.777 21.5819 186.675 22.5089 186.358 23.5332C186.052 24.5527 185.517 25.6476 184.753 26.8179ZM181.66 26.8357L182.23 25.9632C182.795 25.0979 183.212 24.3089 183.481 23.5961C183.761 22.8785 183.893 22.2454 183.874 21.6967C183.868 21.1432 183.716 20.6799 183.419 20.3068C183.128 19.9267 182.702 19.6447 182.143 19.461C181.583 19.2773 181.008 19.2305 180.417 19.3207C179.831 19.4038 179.235 19.6214 178.628 19.9735C178.033 20.3208 177.437 20.8012 176.84 21.4148C176.248 22.0213 175.669 22.7572 175.104 23.6225L174.534 24.495C173.969 25.3603 173.55 26.1529 173.276 26.8727C173.002 27.5925 172.87 28.2339 172.879 28.7967C172.899 29.3547 173.052 29.8227 173.337 30.2006C173.627 30.5714 174.051 30.8487 174.61 31.0324C175.177 31.2184 175.753 31.2698 176.339 31.1867C176.93 31.0965 177.525 30.8742 178.125 30.5199C178.729 30.1585 179.326 29.6698 179.917 29.054C180.514 28.4404 181.095 27.701 181.66 26.8357Z" fill="url(#paint20_linear_242_135)"/>
<path d="M229.833 60.0661L222.545 65.7791L224.445 72.4414L218.076 69.2931L210.806 75.0286L214.159 67.3698L207.766 64.2522L216.207 62.6672L219.525 55.0049L221.389 61.6841L229.833 60.0661Z" fill="url(#paint21_linear_242_135)"/>
<path d="M88.6585 208.903L96.2968 203.662L95.1239 196.688L100.981 200.437L108.603 195.171L104.584 202.729L110.468 206.449L102.128 207.371L98.1418 214.935L97.0056 207.947L88.6585 208.903Z" fill="url(#paint22_linear_242_135)"/>
<path d="M38.0532 70.8411L45.4459 72.4591L51.6504 65.7799L49.9897 73.4422L57.4005 75.0272L48.9815 78.1448L47.3572 85.8036L43.8145 80.0681L35.3998 83.2164L41.6295 76.5541L38.0532 70.8411Z" fill="url(#paint23_linear_242_135)"/>
<g filter="url(#filter0_f_242_135)">
<path d="M240.799 107.541L256.479 132.529C261.337 103.977 250.714 81.1235 246.539 74.7837C243.236 68.5904 237.106 59.8908 229.887 50.3454C210.727 20.3913 170.338 -6.32457 107.554 13.6248C32.8821 39.3054 8.13081 99.8208 5.47559 126.542L234.416 104.615L240.799 107.541Z" fill="url(#paint24_linear_242_135)" fill-opacity="0.5"/>
</g>
<defs>
<filter id="filter0_f_242_135" x="1.20908" y="2.4581" width="260.783" height="134.337" filterUnits="userSpaceOnUse" color-interpolation-filters="sRGB">
<feFlood flood-opacity="0" result="BackgroundImageFix"/>
<feBlend mode="normal" in="SourceGraphic" in2="BackgroundImageFix" result="shape"/>
<feGaussianBlur stdDeviation="2.13325" result="effect1_foregroundBlur_242_135"/>
</filter>
<linearGradient id="paint0_linear_242_135" x1="236.144" y1="60.1325" x2="72.1607" y2="244.475" gradientUnits="userSpaceOnUse">
<stop stop-color="#E9E9E9"/>
<stop offset="0.0550575" stop-color="#A0A0A0"/>
<stop offset="0.170676" stop-color="#E0E0E0"/>
<stop offset="0.309086" stop-color="#8C8C8C"/>
<stop offset="0.491314" stop-color="#5B5B5B"/>
<stop offset="0.704021" stop-color="#767676"/>
<stop offset="0.78935" stop-color="#A9A9A9"/>
<stop offset="0.843399" stop-color="#A4A4A4"/>
<stop offset="0.909367" stop-color="#838383"/>
<stop offset="1" stop-color="#414141"/>
</linearGradient>
<linearGradient id="paint1_linear_242_135" x1="233.327" y1="61.3317" x2="52.0404" y2="244.4" gradientUnits="userSpaceOnUse">
<stop stop-color="#969696"/>
<stop offset="0.0550575" stop-color="#EDEDED"/>
<stop offset="0.170676" stop-color="#B1B1B1"/>
<stop offset="0.309086" stop-color="#555555"/>
<stop offset="0.491314" stop-color="#606060"/>
<stop offset="0.606361" stop-color="#717171"/>
<stop offset="0.691562" stop-color="#8E8E8E"/>
<stop offset="0.788457" stop-color="#D7D7D7"/>
<stop offset="0.85689" stop-color="#C1C1C1"/>
<stop offset="0.930202" stop-color="#626262"/>
<stop offset="1" stop-color="#5D5D5D"/>
</linearGradient>
<linearGradient id="paint2_linear_242_135" x1="220.767" y1="37.1306" x2="53.6003" y2="227.25" gradientUnits="userSpaceOnUse">
<stop stop-color="#767676"/>
<stop offset="0.0550575" stop-color="#989595"/>
<stop offset="0.170676" stop-color="#EFEFEF"/>
<stop offset="0.309086" stop-color="#B3AFAF"/>
<stop offset="0.491314" stop-color="#8E8D8D"/>
<stop offset="0.704021" stop-color="#A3A3A3"/>
<stop offset="0.78935" stop-color="#C6C6C6"/>
<stop offset="0.843399" stop-color="#E3E3E3"/>
<stop offset="0.909367" stop-color="#B0B0B0"/>
<stop offset="1" stop-color="#626262"/>
</linearGradient>
<linearGradient id="paint3_linear_242_135" x1="167.541" y1="5.46869" x2="86.233" y2="222.861" gradientUnits="userSpaceOnUse">
<stop stop-color="#999999"/>
<stop offset="0.417119" stop-color="#F1F1F1"/>
<stop offset="1" stop-color="#C2C2C2"/>
</linearGradient>
<linearGradient id="paint4_linear_242_135" x1="80.1473" y1="53.1688" x2="167.68" y2="169.112" gradientUnits="userSpaceOnUse">
<stop stop-color="#343434"/>
<stop offset="0.474971" stop-color="#6E6E6E" stop-opacity="0"/>
<stop offset="1" stop-color="#282828" stop-opacity="0"/>
</linearGradient>
<linearGradient id="paint5_linear_242_135" x1="165.005" y1="75.5976" x2="101.965" y2="166.533" gradientUnits="userSpaceOnUse">
<stop stop-color="#868686"/>
<stop offset="0.460741" stop-color="#E2E2E2"/>
<stop offset="0.640625" stop-color="#C6C6C6"/>
<stop offset="0.850349" stop-color="#959595"/>
</linearGradient>
<linearGradient id="paint6_linear_242_135" x1="227.227" y1="123.569" x2="205.04" y2="114.285" gradientUnits="userSpaceOnUse">
<stop stop-color="#646464"/>
<stop offset="0.541667" stop-color="#787878"/>
<stop offset="0.984375" stop-color="#605E5E"/>
</linearGradient>
<linearGradient id="paint7_linear_242_135" x1="216.998" y1="143.212" x2="197.603" y2="131.051" gradientUnits="userSpaceOnUse">
<stop stop-color="#646464"/>
<stop offset="0.541667" stop-color="#787878"/>
<stop offset="0.984375" stop-color="#605E5E"/>
</linearGradient>
<linearGradient id="paint8_linear_242_135" x1="204.114" y1="160.783" x2="187.215" y2="146.496" gradientUnits="userSpaceOnUse">
<stop stop-color="#646464"/>
<stop offset="0.541667" stop-color="#787878"/>
<stop offset="0.984375" stop-color="#605E5E"/>
</linearGradient>
<linearGradient id="paint9_linear_242_135" x1="188.811" y1="176.583" x2="174.225" y2="160.516" gradientUnits="userSpaceOnUse">
<stop stop-color="#646464"/>
<stop offset="0.541667" stop-color="#787878"/>
<stop offset="0.984375" stop-color="#605E5E"/>
</linearGradient>
<linearGradient id="paint10_linear_242_135" x1="29.2829" y1="200.304" x2="48.1412" y2="177.876" gradientUnits="userSpaceOnUse">
<stop stop-color="#3F3F3F"/>
<stop offset="0.541667" stop-color="#6C6C6C"/>
<stop offset="0.984375" stop-color="#303030"/>
</linearGradient>
<linearGradient id="paint11_linear_242_135" x1="17.5071" y1="187.42" x2="41.8029" y2="170.319" gradientUnits="userSpaceOnUse">
<stop stop-color="#3F3F3F"/>
<stop offset="0.541667" stop-color="#6C6C6C"/>
<stop offset="0.984375" stop-color="#303030"/>
</linearGradient>
<linearGradient id="paint12_linear_242_135" x1="9.68964" y1="172.652" x2="36.9939" y2="162.204" gradientUnits="userSpaceOnUse">
<stop stop-color="#3F3F3F"/>
<stop offset="0.541667" stop-color="#6C6C6C"/>
<stop offset="0.984375" stop-color="#303030"/>
</linearGradient>
<linearGradient id="paint13_linear_242_135" x1="5.56702" y1="156.441" x2="33.4127" y2="152.586" gradientUnits="userSpaceOnUse">
<stop stop-color="#3F3F3F"/>
<stop offset="0.541667" stop-color="#6C6C6C"/>
<stop offset="0.984375" stop-color="#303030"/>
</linearGradient>
<linearGradient id="paint14_linear_242_135" x1="5.18079" y1="137.035" x2="31.5678" y2="139.433" gradientUnits="userSpaceOnUse">
<stop stop-color="#3F3F3F"/>
<stop offset="0.541667" stop-color="#6C6C6C"/>
<stop offset="0.984375" stop-color="#303030"/>
</linearGradient>
<linearGradient id="paint15_linear_242_135" x1="171.468" y1="191.988" x2="157.627" y2="173.258" gradientUnits="userSpaceOnUse">
<stop stop-color="#646464"/>
<stop offset="0.541667" stop-color="#787878"/>
<stop offset="0.984375" stop-color="#605E5E"/>
</linearGradient>
<linearGradient id="paint16_linear_242_135" x1="103.622" y1="19.3934" x2="111.773" y2="40.0206" gradientUnits="userSpaceOnUse">
<stop stop-color="#575757"/>
<stop offset="0.541667" stop-color="#747474"/>
<stop offset="0.984375" stop-color="#525050"/>
</linearGradient>
<linearGradient id="paint17_linear_242_135" x1="125.528" y1="12.5589" x2="130.646" y2="35.0154" gradientUnits="userSpaceOnUse">
<stop stop-color="#575757"/>
<stop offset="0.541667" stop-color="#747474"/>
<stop offset="0.984375" stop-color="#525050"/>
</linearGradient>
<linearGradient id="paint18_linear_242_135" x1="145.931" y1="9.49127" x2="147.577" y2="33.5944" gradientUnits="userSpaceOnUse">
<stop stop-color="#575757"/>
<stop offset="0.541667" stop-color="#747474"/>
<stop offset="0.984375" stop-color="#525050"/>
</linearGradient>
<linearGradient id="paint19_linear_242_135" x1="165.579" y1="9.73323" x2="162.972" y2="35.1269" gradientUnits="userSpaceOnUse">
<stop stop-color="#575757"/>
<stop offset="0.541667" stop-color="#747474"/>
<stop offset="0.984375" stop-color="#525050"/>
</linearGradient>
<linearGradient id="paint20_linear_242_135" x1="185.773" y1="13.9213" x2="177.283" y2="39.7673" gradientUnits="userSpaceOnUse">
<stop stop-color="#575757"/>
<stop offset="0.541667" stop-color="#747474"/>
<stop offset="0.984375" stop-color="#525050"/>
</linearGradient>
<linearGradient id="paint21_linear_242_135" x1="229.833" y1="60.0661" x2="206.026" y2="66.7833" gradientUnits="userSpaceOnUse">
<stop offset="0.278176" stop-color="#646464"/>
<stop offset="0.541667" stop-color="#808080"/>
<stop offset="0.837608" stop-color="#606060"/>
</linearGradient>
<linearGradient id="paint22_linear_242_135" x1="101.373" y1="194.239" x2="104.052" y2="212.817" gradientUnits="userSpaceOnUse">
<stop offset="0.398897" stop-color="#5B5B5B"/>
<stop offset="0.523184" stop-color="#727272"/>
<stop offset="0.645109" stop-color="#5B5B5B"/>
</linearGradient>
<linearGradient id="paint23_linear_242_135" x1="38.0532" y1="70.8411" x2="51.8086" y2="83.6609" gradientUnits="userSpaceOnUse">
<stop stop-color="#646464"/>
<stop offset="0.541667" stop-color="#555555"/>
<stop offset="0.984375" stop-color="#606060"/>
</linearGradient>
<linearGradient id="paint24_linear_242_135" x1="88.902" y1="116.703" x2="85.5571" y2="-2.59808" gradientUnits="userSpaceOnUse">
<stop stop-color="white"/>
<stop offset="0.105858" stop-color="white"/>
<stop offset="0.21696" stop-color="white" stop-opacity="0.961194"/>
<stop offset="1" stop-color="white" stop-opacity="0"/>
</linearGradient>
</defs>
</svg>
