<svg width="247" height="247" viewBox="0 0 247 247" fill="none" xmlns="http://www.w3.org/2000/svg">
<circle cx="123.5" cy="123.5" r="105" fill="url(#paint0_linear_57_201)" stroke="url(#paint1_linear_57_201)" stroke-width="33"/>
<circle cx="123.5" cy="123.5" r="121.5" stroke="url(#paint2_linear_57_201)" stroke-width="4"/>
<circle cx="123.5" cy="123.5" r="87.5" stroke="url(#paint3_linear_57_201)" stroke-width="3"/>
<path d="M159.287 171.5H123.898C123.622 171.5 123.396 171.277 123.387 171.001C123.308 168.809 123.051 165.058 130.148 164.293C130.406 164.265 130.61 164.045 130.616 163.785C130.808 156.557 135.468 154.167 136.443 153.745C136.558 153.695 136.654 153.612 136.7 153.496C136.891 153.023 137.269 151.717 136.02 150.957C135.904 150.887 135.759 150.881 135.631 150.924C126.152 154.081 121.561 147.292 122.158 142.492C117.281 142.492 118.749 138.207 120.078 136.97C117.625 137.595 116.641 136.485 116.733 135.197C116.745 135.039 116.865 134.898 117.004 134.824C123.169 131.542 103.202 133.354 98.1553 134.336C88.8395 136.149 74.7155 137.055 63.5966 136.149C55.7834 135.242 57.0806 130.496 57.0806 130.496C57.0806 130.496 99.6578 128.595 108.673 125.876C113.472 124.428 116.186 123.157 113.181 116.811C110.617 111.398 111.32 106.597 112.988 103.552C113.098 103.351 113.065 103.1 112.91 102.932C108.681 98.3666 111.183 93.0962 113.472 91.6098C113.652 91.4928 113.76 91.2765 113.731 91.0637C111.549 74.7749 121.1 78.6634 127.084 81.6517C127.224 81.722 127.395 81.7176 127.536 81.6482C153.747 68.7596 161.071 89.1061 160.681 99.1964C160.672 99.4303 160.833 99.6381 161.057 99.7058C176.312 104.316 168.717 114.941 160.97 115.839C159.489 130.429 154.01 136.226 149.825 140.15C149.708 140.259 149.652 140.416 149.671 140.575L150.694 149.029C150.723 149.269 150.927 149.452 151.167 149.481C160.063 150.541 159.881 167.955 159.779 171.036C159.77 171.301 159.552 171.5 159.287 171.5Z" fill="#602E00"/>
<path d="M159.287 169.5H123.898C123.622 169.5 123.396 169.276 123.424 169.001C123.74 165.952 126.857 162.592 130.111 162.273C130.386 162.246 130.609 162.02 130.617 161.744C130.825 154.565 135.448 152.177 136.436 151.748C136.555 151.696 136.653 151.609 136.697 151.486C136.862 151.022 137.143 149.8 135.904 149.056C135.789 148.987 135.643 148.98 135.515 149.023C126.333 152.102 121.88 147.132 122.155 142.453C122.17 142.198 122.004 141.962 121.758 141.891C119.076 141.115 118.517 139.402 119.338 137.993C119.583 137.574 119.323 136.827 118.846 136.734C116.853 136.343 116.362 135.177 117.055 134.194C117.076 134.164 117.106 134.133 117.133 134.109C121.162 130.529 103.245 131.346 98.1551 132.336C88.8393 134.149 74.7153 135.055 63.5965 134.149C55.7832 133.242 56.3867 129.712 58.1873 129.617C81.026 128.408 99.6577 126.595 108.673 123.876C113.472 122.428 116.186 121.157 113.181 114.811C110.617 109.398 111.32 104.597 112.988 101.552C113.098 101.351 113.065 101.1 112.909 100.932C108.681 96.3666 111.183 91.0962 113.472 89.6098C113.652 89.4928 113.759 89.2765 113.731 89.0637C111.549 72.7749 121.099 76.6634 127.083 79.6517C127.224 79.722 127.395 79.7176 127.536 79.6482C153.824 66.7218 161.114 87.2256 160.677 97.2848C160.669 97.4752 160.775 97.6534 160.94 97.7486C176.234 106.574 169.279 112.788 161.661 113.854C161.428 113.887 161.245 114.077 161.22 114.31C159.673 128.595 153.886 134.024 149.728 137.903C149.611 138.013 149.555 138.171 149.575 138.331L150.692 147.032C150.722 147.271 150.925 147.452 151.164 147.48C160.063 148.537 159.881 165.955 159.779 169.036C159.77 169.301 159.552 169.5 159.287 169.5Z" fill="url(#paint4_linear_57_201)"/>
<path d="M226.527 132.709L226.92 128.285L229.243 128.492L228.85 132.915C228.781 133.686 228.85 134.32 229.057 134.816C229.264 135.313 229.575 135.69 229.992 135.947C230.415 136.212 230.911 136.37 231.479 136.42C232.016 136.468 232.528 136.4 233.015 136.215C233.509 136.04 233.921 135.727 234.251 135.278C234.581 134.829 234.781 134.219 234.849 133.449L235.163 129.924L220.502 128.62L220.762 125.69L237.758 127.202L237.184 133.657C237.067 134.972 236.734 136.068 236.186 136.944C235.644 137.83 234.943 138.477 234.083 138.887C233.231 139.297 232.284 139.456 231.241 139.364C230.144 139.266 229.223 138.941 228.48 138.389C227.737 137.836 227.197 137.078 226.859 136.115C226.521 135.159 226.41 134.024 226.527 132.709Z" fill="url(#paint5_linear_57_201)"/>
<path d="M234.278 151.05L217.651 147.216L218.312 144.35L234.938 148.184L234.278 151.05Z" fill="url(#paint6_linear_57_201)"/>
<path d="M227.476 170.933L211.593 164.7L212.668 161.962L226.841 159.303L215.463 154.838L216.538 152.1L232.421 158.333L231.346 161.071L217.143 163.743L228.542 168.216L227.476 170.933Z" fill="url(#paint7_linear_57_201)"/>
<path d="M208.72 186.991L207.93 186.485C206.845 185.789 205.963 185.023 205.283 184.188C204.603 183.352 204.129 182.478 203.861 181.563C203.59 180.656 203.527 179.734 203.673 178.797C203.825 177.865 204.186 176.955 204.756 176.067C205.321 175.186 205.995 174.481 206.779 173.954C207.565 173.437 208.432 173.107 209.379 172.962C210.325 172.817 211.324 172.874 212.375 173.13C213.422 173.393 214.489 173.873 215.574 174.569L216.363 175.075C217.448 175.771 218.325 176.538 218.994 177.376C219.67 178.218 220.142 179.096 220.409 180.01C220.679 180.935 220.74 181.86 220.592 182.786C220.446 183.722 220.09 184.631 219.525 185.512C218.955 186.4 218.275 187.106 217.485 187.629C216.701 188.156 215.835 188.487 214.886 188.621C213.943 188.759 212.951 188.693 211.908 188.423C210.867 188.164 209.805 187.687 208.72 186.991ZM209.519 184.009L210.327 184.528C211.13 185.042 211.887 185.417 212.6 185.651C213.315 185.896 213.977 186.001 214.585 185.964C215.196 185.938 215.746 185.775 216.234 185.476C216.73 185.182 217.153 184.761 217.503 184.215C217.853 183.67 218.056 183.113 218.114 182.547C218.177 181.984 218.096 181.417 217.869 180.844C217.644 180.283 217.274 179.725 216.757 179.171C216.247 178.62 215.59 178.088 214.788 177.573L213.979 177.055C213.177 176.54 212.416 176.163 211.697 175.925C210.977 175.686 210.307 175.581 209.685 175.609C209.066 175.648 208.511 175.812 208.02 176.1C207.535 176.393 207.118 176.812 206.768 177.358C206.414 177.91 206.205 178.467 206.141 179.03C206.084 179.596 206.171 180.163 206.402 180.729C206.639 181.299 207.019 181.858 207.54 182.405C208.057 182.96 208.716 183.494 209.519 184.009Z" fill="url(#paint8_linear_57_201)"/>
<path d="M195.76 196.313L193.749 198.444C193.001 197.609 192.491 196.698 192.219 195.711C191.953 194.73 191.967 193.718 192.263 192.676C192.559 191.634 193.179 190.613 194.122 189.612C194.846 188.845 195.634 188.284 196.486 187.927C197.343 187.576 198.231 187.421 199.15 187.46C200.074 187.505 201.007 187.752 201.948 188.199C202.884 188.653 203.799 189.301 204.691 190.142L205.722 191.116C206.614 191.957 207.311 192.835 207.813 193.749C208.31 194.669 208.604 195.591 208.698 196.517C208.797 197.448 208.69 198.352 208.379 199.229C208.062 200.111 207.536 200.942 206.801 201.72C205.869 202.709 204.899 203.373 203.892 203.711C202.884 204.05 201.883 204.104 200.887 203.873C199.886 203.648 198.93 203.187 198.02 202.489L200.03 200.358C200.618 200.806 201.194 201.112 201.757 201.278C202.314 201.45 202.867 201.445 203.414 201.263C203.967 201.087 204.525 200.7 205.088 200.104C205.549 199.615 205.86 199.103 206.022 198.568C206.183 198.033 206.203 197.477 206.081 196.9C205.959 196.323 205.699 195.728 205.3 195.115C204.901 194.513 204.372 193.902 203.713 193.28L202.664 192.29C202.039 191.701 201.42 191.219 200.807 190.844C200.194 190.48 199.598 190.241 199.02 190.125C198.436 190.015 197.876 190.045 197.34 190.215C196.803 190.386 196.299 190.721 195.827 191.221C195.253 191.829 194.886 192.412 194.726 192.969C194.56 193.532 194.57 194.084 194.757 194.626C194.945 195.179 195.279 195.741 195.76 196.313Z" fill="url(#paint9_linear_57_201)"/>
<path d="M181.478 208.114L179.121 209.855C178.533 208.901 178.192 207.914 178.1 206.894C178.012 205.881 178.206 204.888 178.682 203.915C179.158 202.942 179.949 202.047 181.055 201.23C181.903 200.603 182.778 200.19 183.679 199.99C184.585 199.797 185.487 199.801 186.384 200.003C187.286 200.211 188.16 200.619 189.007 201.227C189.848 201.839 190.633 202.639 191.362 203.625L192.204 204.766C192.933 205.753 193.463 206.74 193.795 207.728C194.121 208.721 194.247 209.682 194.175 210.609C194.107 211.543 193.842 212.414 193.38 213.222C192.911 214.034 192.247 214.758 191.386 215.394C190.292 216.201 189.22 216.683 188.169 216.838C187.118 216.992 186.123 216.868 185.183 216.464C184.238 216.065 183.379 215.442 182.607 214.594L184.964 212.853C185.463 213.397 185.975 213.801 186.499 214.064C187.018 214.332 187.562 214.425 188.133 214.343C188.709 214.268 189.326 213.987 189.986 213.499C190.527 213.1 190.924 212.651 191.177 212.153C191.431 211.655 191.549 211.111 191.532 210.522C191.514 209.933 191.363 209.301 191.079 208.627C190.793 207.964 190.381 207.268 189.843 206.539L188.986 205.38C188.476 204.689 187.952 204.104 187.415 203.627C186.876 203.161 186.332 202.819 185.784 202.603C185.229 202.391 184.672 202.321 184.114 202.393C183.556 202.466 183 202.706 182.447 203.115C181.775 203.612 181.31 204.12 181.053 204.64C180.79 205.165 180.702 205.71 180.79 206.276C180.877 206.854 181.106 207.466 181.478 208.114Z" fill="url(#paint10_linear_57_201)"/>
<path d="M165.788 221.748L164.785 219.643L172.962 215.745L173.965 217.85L165.788 221.748ZM176.375 224.594L169.033 209.192L171.688 207.926L179.03 223.328L176.375 224.594ZM166.812 229.153L159.47 213.751L162.115 212.49L169.457 227.892L166.812 229.153Z" fill="url(#paint11_linear_57_201)"/>
<path d="M154.838 233.118L149.879 216.792L152.693 215.937L157.653 232.263L154.838 233.118Z" fill="url(#paint12_linear_57_201)"/>
<path d="M132.155 229.328L132.011 228.402C131.813 227.128 131.802 225.96 131.977 224.897C132.152 223.834 132.493 222.899 133 222.093C133.5 221.288 134.149 220.63 134.947 220.119C135.746 219.615 136.667 219.283 137.709 219.121C138.744 218.96 139.718 218.999 140.633 219.236C141.541 219.483 142.362 219.912 143.098 220.526C143.834 221.139 144.454 221.924 144.958 222.881C145.455 223.84 145.802 224.956 146 226.23L146.143 227.156C146.341 228.43 146.348 229.595 146.164 230.652C145.982 231.716 145.637 232.651 145.129 233.457C144.615 234.272 143.963 234.931 143.171 235.433C142.373 235.944 141.456 236.28 140.422 236.441C139.38 236.603 138.401 236.561 137.485 236.316C136.571 236.078 135.749 235.648 135.02 235.026C134.292 234.412 133.684 233.625 133.195 232.665C132.699 231.714 132.353 230.602 132.155 229.328ZM134.918 227.95L135.065 228.9C135.211 229.842 135.433 230.657 135.729 231.347C136.02 232.045 136.38 232.609 136.811 233.041C137.235 233.481 137.721 233.785 138.269 233.953C138.818 234.128 139.413 234.166 140.053 234.067C140.694 233.968 141.246 233.751 141.708 233.419C142.171 233.094 142.542 232.657 142.821 232.108C143.093 231.567 143.265 230.92 143.337 230.165C143.411 229.419 143.375 228.574 143.229 227.633L143.081 226.683C142.935 225.741 142.713 224.922 142.415 224.225C142.117 223.528 141.752 222.956 141.319 222.509C140.879 222.072 140.389 221.764 139.847 221.588C139.307 221.418 138.717 221.384 138.076 221.483C137.428 221.584 136.872 221.797 136.408 222.122C135.946 222.454 135.579 222.895 135.309 223.443C135.039 223.998 134.872 224.653 134.807 225.406C134.734 226.16 134.771 227.009 134.918 227.95Z" fill="url(#paint13_linear_57_201)"/>
<path d="M106.538 224.583L103.633 224.2C103.872 223.105 104.312 222.158 104.953 221.36C105.593 220.57 106.422 219.99 107.44 219.619C108.458 219.249 109.649 219.154 111.012 219.333C112.058 219.471 112.974 219.781 113.762 220.263C114.548 220.753 115.194 221.382 115.7 222.15C116.204 222.925 116.551 223.826 116.739 224.851C116.919 225.876 116.929 226.996 116.769 228.212L116.583 229.618C116.423 230.834 116.119 231.913 115.672 232.855C115.217 233.796 114.642 234.575 113.946 235.192C113.249 235.818 112.454 236.261 111.561 236.521C110.66 236.781 109.678 236.841 108.617 236.701C107.27 236.523 106.164 236.125 105.3 235.507C104.435 234.889 103.805 234.109 103.409 233.166C103.006 232.222 102.82 231.177 102.853 230.031L105.758 230.414C105.739 231.152 105.828 231.798 106.023 232.352C106.21 232.904 106.537 233.35 107.005 233.687C107.472 234.032 108.112 234.258 108.925 234.365C109.591 234.453 110.188 234.406 110.717 234.223C111.245 234.041 111.707 233.731 112.104 233.295C112.5 232.859 112.83 232.299 113.093 231.617C113.348 230.941 113.534 230.154 113.653 229.256L113.841 227.827C113.953 226.975 113.982 226.19 113.926 225.474C113.862 224.764 113.708 224.141 113.463 223.604C113.211 223.067 112.859 222.63 112.407 222.295C111.954 221.96 111.387 221.747 110.706 221.657C109.877 221.548 109.19 221.591 108.644 221.787C108.09 221.982 107.648 222.314 107.319 222.783C106.98 223.258 106.72 223.858 106.538 224.583Z" fill="url(#paint14_linear_57_201)"/>
<path d="M83.1837 221.707L83.4765 220.816C83.879 219.592 84.3997 218.546 85.0384 217.678C85.6771 216.811 86.4056 216.133 87.2238 215.646C88.0346 215.156 88.9116 214.864 89.855 214.771C90.7959 214.686 91.7674 214.808 92.7693 215.137C93.7638 215.464 94.6145 215.941 95.3212 216.568C96.018 217.2 96.5548 217.956 96.9315 218.837C97.3082 219.717 97.5038 220.699 97.5182 221.781C97.5252 222.86 97.3274 224.012 96.9248 225.237L96.6321 226.127C96.2295 227.352 95.7064 228.393 95.0627 229.251C94.4165 230.116 93.6843 230.792 92.8662 231.279C92.0381 231.772 91.1573 232.062 90.2238 232.15C89.2805 232.243 88.3115 232.126 87.317 231.799C86.315 231.47 85.4619 230.988 84.7577 230.353C84.0509 229.726 83.5142 228.97 83.1473 228.085C82.778 227.207 82.5936 226.229 82.594 225.152C82.5846 224.08 82.7812 222.931 83.1837 221.707ZM86.2708 221.735L85.9707 222.648C85.6731 223.553 85.4999 224.38 85.4511 225.129C85.3925 225.883 85.457 226.55 85.6447 227.129C85.8226 227.714 86.1174 228.206 86.5292 228.604C86.9385 229.01 87.4512 229.314 88.0672 229.517C88.6832 229.719 89.2727 229.777 89.8356 229.691C90.3961 229.612 90.9251 229.391 91.4226 229.029C91.9103 228.671 92.3579 228.172 92.7653 227.533C93.1703 226.902 93.5217 226.133 93.8193 225.228L94.1194 224.315C94.417 223.409 94.5914 222.578 94.6426 221.822C94.6938 221.066 94.628 220.391 94.4452 219.796C94.2525 219.206 93.9552 218.71 93.5533 218.306C93.149 217.91 92.6388 217.611 92.0228 217.408C91.3993 217.203 90.8074 217.14 90.2469 217.219C89.684 217.306 89.1574 217.531 88.6673 217.897C88.1748 218.269 87.7285 218.776 87.3284 219.418C86.921 220.057 86.5685 220.829 86.2708 221.735Z" fill="url(#paint15_linear_57_201)"/>
<path d="M71.053 224.672L78.6231 209.381L81.2592 210.686L73.689 225.977L71.053 224.672Z" fill="url(#paint16_linear_57_201)"/>
<path d="M53.2505 213.416L62.9825 199.401L65.3985 201.078L64.7126 215.483L71.6841 205.443L74.1001 207.121L64.3681 221.136L61.9521 219.458L62.6321 205.021L55.6473 215.08L53.2505 213.416Z" fill="url(#paint17_linear_57_201)"/>
<path d="M20.4733 114.388L20.0799 118.812L17.757 118.606L18.1505 114.182C18.219 113.411 18.1498 112.778 17.943 112.281C17.7362 111.784 17.4246 111.407 17.0082 111.151C16.5847 110.885 16.089 110.728 15.5209 110.677C14.9839 110.629 14.472 110.698 13.985 110.882C13.4909 111.057 13.0788 111.37 12.7487 111.819C12.4186 112.268 12.2192 112.878 12.1507 113.648L11.8372 117.173L26.4981 118.477L26.2375 121.407L9.24211 119.895L9.81617 113.44C9.93313 112.125 10.2659 111.029 10.8145 110.153C11.3559 109.268 12.0567 108.62 12.9167 108.21C13.7689 107.8 14.7164 107.641 15.7591 107.734C16.8564 107.831 17.7765 108.156 18.5196 108.708C19.2626 109.261 19.8031 110.019 20.1409 110.982C20.4795 111.938 20.5903 113.073 20.4733 114.388Z" fill="url(#paint18_linear_57_201)"/>
<path d="M12.7224 96.047L29.3486 99.8808L28.6877 102.747L12.0615 98.9132L12.7224 96.047Z" fill="url(#paint19_linear_57_201)"/>
<path d="M19.5237 76.1645L35.4069 82.3975L34.3324 85.1356L20.159 87.7941L31.537 92.2591L30.4624 94.9972L14.5792 88.7642L15.6537 86.026L29.8575 83.3544L18.4577 78.8808L19.5237 76.1645Z" fill="url(#paint20_linear_57_201)"/>
<path d="M38.2804 60.1064L39.0696 60.6126C40.1546 61.3086 41.0372 62.0742 41.7172 62.9095C42.3973 63.7449 42.8711 64.6196 43.1387 65.5337C43.4104 66.4413 43.4733 67.3634 43.3273 68.3C43.1748 69.2324 42.8138 70.1425 42.2443 71.0302C41.6791 71.9114 41.0046 72.6157 40.2207 73.1432C39.4345 73.6599 38.5681 73.9905 37.6214 74.1351C36.6748 74.2797 35.6758 74.2237 34.6246 73.967C33.5775 73.7038 32.5115 73.2242 31.4265 72.5282L30.6373 72.0221C29.5523 71.3261 28.6752 70.5592 28.0059 69.7216C27.33 68.8796 26.8583 68.0016 26.5908 67.0875C26.3209 66.1626 26.2601 65.2372 26.4084 64.3114C26.5544 63.3747 26.91 62.4658 27.4752 61.5847C28.0447 60.6969 28.7246 59.9914 29.515 59.4682C30.2989 58.9407 31.1653 58.6101 32.1143 58.4763C33.0567 58.3383 34.0494 58.4041 35.0922 58.6739C36.1327 58.9329 37.1954 59.4104 38.2804 60.1064ZM37.4815 63.0884L36.6726 62.5696C35.8704 62.055 35.1128 61.6805 34.4 61.446C33.6849 61.2008 33.0231 61.0965 32.4148 61.1333C31.8041 61.1593 31.2544 61.3217 30.7656 61.6208C30.2702 61.9156 29.8474 62.3359 29.4973 62.8817C29.1472 63.4275 28.9436 63.9837 28.8864 64.5504C28.8227 65.1128 28.9042 65.6802 29.1311 66.2527C29.3555 66.8143 29.7262 67.3723 30.2431 67.9266C30.7535 68.4767 31.4098 69.0091 32.212 69.5237L33.0209 70.0425C33.8232 70.5571 34.584 70.9337 35.3033 71.1724C36.0227 71.4111 36.6931 71.5163 37.3146 71.4879C37.9337 71.4488 38.4889 71.2852 38.98 70.9969C39.4646 70.7045 39.882 70.2853 40.2321 69.7395C40.5864 69.1871 40.7954 68.6297 40.8592 68.0673C40.9163 67.5007 40.8294 66.9344 40.5984 66.3686C40.3607 65.7985 39.9814 65.2396 39.4602 64.6918C38.9433 64.1375 38.2837 63.603 37.4815 63.0884Z" fill="url(#paint21_linear_57_201)"/>
<path d="M51.2405 50.7843L53.251 48.6534C53.9992 49.4883 54.5093 50.3991 54.7812 51.386C55.0474 52.3675 55.0326 53.3793 54.7368 54.4214C54.441 55.4635 53.8213 56.4846 52.8777 57.4847C52.1539 58.2518 51.3662 58.8136 50.5144 59.17C49.6569 59.521 48.7689 59.6767 47.8503 59.637C46.9261 59.5921 45.9932 59.3456 45.0517 58.8977C44.1156 58.4441 43.2014 57.7964 42.3093 56.9547L41.2779 55.9816C40.3857 55.1399 39.6887 54.2621 39.1869 53.3482C38.6904 52.4286 38.3955 51.506 38.3023 50.5802C38.2034 49.6491 38.3097 48.7452 38.6213 47.8684C38.9383 46.986 39.4641 46.1555 40.1986 45.377C41.1315 44.3883 42.1014 43.7245 43.1085 43.3858C44.1155 43.047 45.117 42.993 46.113 43.2238C47.1143 43.4489 48.07 43.9102 48.9801 44.6077L46.9696 46.7387C46.3818 46.2915 45.8064 45.985 45.2434 45.8189C44.6858 45.6473 44.1333 45.6523 43.5859 45.834C43.0328 46.0103 42.4748 46.3968 41.9119 46.9935C41.4508 47.4822 41.1396 47.9942 40.9783 48.5294C40.817 49.0647 40.7973 49.6207 40.919 50.1974C41.0408 50.7742 41.3013 51.369 41.7004 51.9819C42.0993 52.5837 42.6283 53.1956 43.2874 53.8176L44.3359 54.8067C44.9609 55.3965 45.5801 55.8786 46.1934 56.2532C46.8064 56.6167 47.4019 56.8564 47.9801 56.9722C48.5636 57.0824 49.1236 57.0523 49.6603 56.8819C50.197 56.7116 50.7012 56.3764 51.173 55.8763C51.7466 55.2683 52.1138 54.6856 52.2745 54.1283C52.4405 53.5652 52.4299 53.0129 52.2429 52.4712C52.0555 51.9185 51.7213 51.3562 51.2405 50.7843Z" fill="url(#paint22_linear_57_201)"/>
<path d="M65.5223 38.983L67.8788 37.2423C68.4671 38.1966 68.8076 39.1835 68.9002 40.203C68.9881 41.2162 68.7941 42.2093 68.3182 43.1824C67.8423 44.1555 67.0514 45.0505 65.9454 45.8675C65.0971 46.4941 64.2221 46.9073 63.3207 47.1069C62.4145 47.3003 61.513 47.2961 60.616 47.0942C59.7144 46.8861 58.84 46.4781 57.9928 45.8703C57.152 45.2579 56.3672 44.4584 55.6384 43.4718L54.7959 42.3313C54.0672 41.3447 53.5369 40.3572 53.205 39.3688C52.8795 38.3757 52.7529 37.4154 52.8253 36.4878C52.8931 35.5539 53.158 34.6831 53.6202 33.8756C54.0886 33.0633 54.7533 32.3393 55.6142 31.7034C56.7077 30.8957 57.78 30.4145 58.8311 30.2596C59.8823 30.1048 60.8775 30.2293 61.8168 30.633C62.7623 31.0321 63.621 31.6556 64.393 32.5034L62.0365 34.2441C61.5373 33.6998 61.0254 33.2961 60.5007 33.0328C59.9824 32.765 59.4377 32.6719 58.8668 32.7537C58.2912 32.8292 57.6735 33.1106 57.0137 33.598C56.4733 33.9972 56.0762 34.4459 55.8226 34.944C55.5689 35.4422 55.4509 35.9859 55.4685 36.5751C55.4861 37.1643 55.6369 37.7959 55.9211 38.4698C56.2068 39.1329 56.619 39.8289 57.1574 40.5578L58.0138 41.7172C58.5244 42.4085 59.0483 42.9928 59.5854 43.4702C60.1242 43.9366 60.6678 44.2781 61.2162 44.4946C61.771 44.7065 62.3275 44.7762 62.8859 44.7037C63.4442 44.6312 63.9999 44.3907 64.5529 43.9823C65.2253 43.4856 65.69 42.9773 65.9469 42.4573C66.2101 41.9326 66.2977 41.3871 66.2096 40.8208C66.1232 40.2436 65.8941 39.631 65.5223 38.983Z" fill="url(#paint23_linear_57_201)"/>
<path d="M81.212 25.3495L82.2155 27.4545L74.0385 31.3526L73.035 29.2475L81.212 25.3495ZM70.6248 22.5033L77.9671 37.9052L75.312 39.171L67.9697 23.769L70.6248 22.5033ZM80.1876 17.9446L87.5298 33.3466L84.8853 34.6073L77.543 19.2053L80.1876 17.9446Z" fill="url(#paint24_linear_57_201)"/>
<path d="M92.1617 13.9794L97.1214 30.3052L94.307 31.1602L89.3473 14.8344L92.1617 13.9794Z" fill="url(#paint25_linear_57_201)"/>
<path d="M114.845 17.7691L114.989 18.6955C115.187 19.9693 115.198 21.1376 115.023 22.2005C114.848 23.2633 114.507 24.1978 114 25.0039C113.5 25.8089 112.851 26.467 112.053 26.9783C111.254 27.4819 110.333 27.8146 109.291 27.9764C108.256 28.137 107.282 28.0985 106.367 27.861C105.459 27.6146 104.638 27.1848 103.902 26.5716C103.166 25.9585 102.546 25.1732 102.042 24.2158C101.545 23.2572 101.198 22.141 101 20.8672L100.857 19.9408C100.659 18.667 100.652 17.5019 100.836 16.4456C101.018 15.3815 101.363 14.4465 101.871 13.6403C102.385 12.8253 103.037 12.1666 103.829 11.6642C104.627 11.1528 105.544 10.8169 106.578 10.6563C107.62 10.4945 108.599 10.5362 109.515 10.7814C110.429 11.019 111.251 11.4488 111.98 12.0708C112.708 12.6852 113.316 13.4723 113.805 14.4321C114.301 15.3829 114.647 16.4953 114.845 17.7691ZM112.082 19.1467L111.935 18.1972C111.789 17.2553 111.567 16.4398 111.271 15.7506C110.98 15.0525 110.62 14.4878 110.189 14.0566C109.765 13.6164 109.279 13.3124 108.731 13.1445C108.182 12.9688 107.587 12.9307 106.947 13.0302C106.306 13.1297 105.754 13.3457 105.292 13.6784C104.829 14.0033 104.458 14.4404 104.179 14.9896C103.907 15.5299 103.735 16.1773 103.663 16.9318C103.589 17.6785 103.625 18.5228 103.771 19.4646L103.919 20.4142C104.065 21.356 104.287 22.1754 104.585 22.8723C104.883 23.5692 105.248 24.141 105.681 24.5877C106.121 25.0254 106.611 25.3327 107.153 25.5096C107.693 25.6787 108.283 25.7136 108.924 25.6141C109.572 25.5134 110.128 25.3006 110.592 24.9756C111.054 24.643 111.421 24.2026 111.691 23.6546C111.961 23.0989 112.128 22.4444 112.193 21.6912C112.266 20.9367 112.229 20.0886 112.082 19.1467Z" fill="url(#paint26_linear_57_201)"/>
<path d="M140.462 22.5141L143.367 22.8968C143.128 23.9921 142.688 24.9389 142.047 25.737C141.407 26.5274 140.578 27.1076 139.56 27.4778C138.542 27.848 137.351 27.9433 135.988 27.7637C134.942 27.6259 134.026 27.316 133.238 26.834C132.452 26.3443 131.806 25.7155 131.3 24.9475C130.796 24.1718 130.449 23.2712 130.261 22.2457C130.081 21.2212 130.071 20.1009 130.231 18.8849L130.417 17.4791C130.577 16.263 130.881 15.1841 131.328 14.2422C131.783 13.3014 132.358 12.5222 133.054 11.9047C133.751 11.2795 134.546 10.8366 135.439 10.576C136.34 10.3165 137.322 10.2566 138.383 10.3964C139.73 10.574 140.836 10.9719 141.7 11.5901C142.565 12.2082 143.195 12.9886 143.591 13.9312C143.994 14.8748 144.18 15.9197 144.147 17.0659L141.242 16.6832C141.261 15.9449 141.172 15.2989 140.977 14.7453C140.79 14.1927 140.463 13.7476 139.995 13.4102C139.528 13.065 138.888 12.8389 138.075 12.7317C137.409 12.644 136.812 12.6914 136.283 12.8739C135.755 13.0564 135.293 13.3659 134.896 13.8022C134.5 14.2386 134.17 14.7979 133.907 15.4803C133.652 16.156 133.466 16.9431 133.347 17.8416L133.159 19.2706C133.047 20.1226 133.018 20.9069 133.074 21.6234C133.138 22.3331 133.292 22.9563 133.537 23.4928C133.789 24.0304 134.141 24.4669 134.593 24.8022C135.046 25.1376 135.613 25.3502 136.294 25.44C137.123 25.5492 137.81 25.5058 138.356 25.3098C138.91 25.1149 139.352 24.783 139.681 24.3142C140.02 23.8387 140.28 23.2387 140.462 22.5141Z" fill="url(#paint27_linear_57_201)"/>
<path d="M163.816 25.3903L163.523 26.281C163.121 27.5056 162.6 28.5515 161.962 29.4189C161.323 30.2862 160.594 30.9637 159.776 31.4514C158.965 31.9414 158.088 32.2329 157.145 32.3258C156.204 32.4112 155.233 32.2893 154.231 31.9599C153.236 31.633 152.386 31.156 151.679 30.529C150.982 29.8969 150.445 29.1407 150.068 28.2603C149.692 27.3799 149.496 26.3986 149.482 25.3166C149.475 24.237 149.673 23.0849 150.075 21.8603L150.368 20.9697C150.77 19.7451 151.294 18.704 151.937 17.8466C152.583 16.9816 153.316 16.3054 154.134 15.8177C154.962 15.3251 155.843 15.0349 156.776 14.947C157.72 14.8541 158.688 14.9711 159.683 15.2981C160.685 15.6274 161.538 16.1093 162.242 16.7438C162.949 17.3708 163.486 18.1271 163.853 19.0125C164.222 19.8904 164.406 20.868 164.406 21.9452C164.415 23.0174 164.219 24.1657 163.816 25.3903ZM160.729 25.3624L161.029 24.4496C161.327 23.5441 161.5 22.717 161.549 21.9682C161.607 21.2144 161.543 20.5476 161.355 19.9678C161.177 19.3831 160.883 18.8914 160.471 18.4929C160.061 18.087 159.549 17.7828 158.933 17.5803C158.317 17.3778 157.727 17.3197 157.164 17.406C156.604 17.485 156.075 17.7058 155.577 18.0686C155.09 18.4264 154.642 18.9248 154.235 19.5639C153.83 20.1956 153.478 20.9642 153.181 21.8696L152.881 22.7825C152.583 23.688 152.409 24.5188 152.357 25.275C152.306 26.0312 152.372 26.7066 152.555 27.3013C152.747 27.8909 153.045 28.3875 153.447 28.791C153.851 29.1871 154.361 29.4863 154.977 29.6888C155.601 29.8938 156.193 29.9568 156.753 29.8779C157.316 29.7915 157.843 29.5657 158.333 29.2005C158.825 28.8279 159.272 28.3208 159.672 27.6793C160.079 27.0402 160.432 26.2679 160.729 25.3624Z" fill="url(#paint28_linear_57_201)"/>
<path d="M175.947 22.4249L168.377 37.7161L165.741 36.4111L173.311 21.1199L175.947 22.4249Z" fill="url(#paint29_linear_57_201)"/>
<path d="M193.749 33.6816L184.017 47.6964L181.601 46.0187L182.287 31.6145L175.316 41.654L172.9 39.9763L182.632 25.9615L185.048 27.6392L184.368 42.076L191.353 32.0172L193.749 33.6816Z" fill="url(#paint30_linear_57_201)"/>
<path d="M227.212 73.7751L220.813 79.7166L224.52 87.6228L216.892 83.3725L210.519 89.342L212.204 80.7737L204.557 76.5568L213.226 75.5116L214.874 66.936L218.547 74.8583L227.212 73.7751Z" fill="url(#paint31_linear_57_201)"/>
<path d="M18.1533 171.832L24.5985 165.94L20.9519 158.006L28.5471 162.315L34.9664 156.395L33.2154 164.95L40.8293 169.225L32.1519 170.204L30.4383 178.766L26.8264 170.816L18.1533 171.832Z" fill="url(#paint32_linear_57_201)"/>
<defs>
<linearGradient id="paint0_linear_57_201" x1="200.009" y1="29.0012" x2="58.5024" y2="229.51" gradientUnits="userSpaceOnUse">
<stop offset="0.104799" stop-color="#2D1E10"/>
<stop offset="0.494792" stop-color="#FF8205"/>
<stop offset="0.897641" stop-color="#2D1E10"/>
</linearGradient>
<linearGradient id="paint1_linear_57_201" x1="210.622" y1="33.7677" x2="49.8778" y2="219.136" gradientUnits="userSpaceOnUse">
<stop stop-color="#582A00"/>
<stop offset="0.166667" stop-color="#FF8914"/>
<stop offset="0.246877" stop-color="#FFE7D0" stop-opacity="0.8"/>
<stop offset="0.333333" stop-color="#FF9431"/>
<stop offset="0.5" stop-color="#AA5500"/>
<stop offset="0.833333" stop-color="#FF8D1C"/>
<stop offset="1" stop-color="#582A00"/>
</linearGradient>
<linearGradient id="paint2_linear_57_201" x1="99.5919" y1="2" x2="129.138" y2="245" gradientUnits="userSpaceOnUse">
<stop offset="0.187701" stop-color="#FFB66E"/>
<stop offset="0.267974" stop-color="#C86400"/>
<stop offset="0.911996" stop-color="#2D1E10"/>
</linearGradient>
<linearGradient id="paint3_linear_57_201" x1="101.287" y1="34.5" x2="181.643" y2="193.094" gradientUnits="userSpaceOnUse">
<stop offset="0.110985" stop-color="#502A06"/>
<stop offset="0.748658" stop-color="#FFB66E"/>
</linearGradient>
<linearGradient id="paint4_linear_57_201" x1="170.045" y1="75.5" x2="89.0449" y2="169.5" gradientUnits="userSpaceOnUse">
<stop offset="0.137908" stop-color="#783900"/>
<stop offset="0.494792" stop-color="#C86400"/>
<stop offset="0.758841" stop-color="#783900"/>
</linearGradient>
<linearGradient id="paint5_linear_57_201" x1="242.151" y1="133.545" x2="214.261" y2="131.065" gradientUnits="userSpaceOnUse">
<stop stop-color="#241200"/>
<stop offset="0.494792" stop-color="#AB5600"/>
<stop offset="1" stop-color="#211100"/>
</linearGradient>
<linearGradient id="paint6_linear_57_201" x1="239.421" y1="150.721" x2="212.137" y2="144.429" gradientUnits="userSpaceOnUse">
<stop stop-color="#241200"/>
<stop offset="0.494792" stop-color="#AB5600"/>
<stop offset="1" stop-color="#211100"/>
</linearGradient>
<linearGradient id="paint7_linear_57_201" x1="234.538" y1="166.453" x2="208.474" y2="156.224" gradientUnits="userSpaceOnUse">
<stop stop-color="#241200"/>
<stop offset="0.494792" stop-color="#AB5600"/>
<stop offset="1" stop-color="#211100"/>
</linearGradient>
<linearGradient id="paint8_linear_57_201" x1="223.477" y1="188.062" x2="199.909" y2="172.944" gradientUnits="userSpaceOnUse">
<stop stop-color="#241200"/>
<stop offset="0.494792" stop-color="#AB5600"/>
<stop offset="1" stop-color="#211100"/>
</linearGradient>
<linearGradient id="paint9_linear_57_201" x1="210.447" y1="204.709" x2="190.081" y2="185.494" gradientUnits="userSpaceOnUse">
<stop stop-color="#241200"/>
<stop offset="0.494792" stop-color="#AB5600"/>
<stop offset="1" stop-color="#211100"/>
</linearGradient>
<linearGradient id="paint10_linear_57_201" x1="194.444" y1="218.982" x2="177.808" y2="196.46" gradientUnits="userSpaceOnUse">
<stop stop-color="#241200"/>
<stop offset="0.494792" stop-color="#AB5600"/>
<stop offset="1" stop-color="#211100"/>
</linearGradient>
<linearGradient id="paint11_linear_57_201" x1="175.03" y1="230.705" x2="162.981" y2="205.43" gradientUnits="userSpaceOnUse">
<stop stop-color="#241200"/>
<stop offset="0.494792" stop-color="#AB5600"/>
<stop offset="1" stop-color="#211100"/>
</linearGradient>
<linearGradient id="paint12_linear_57_201" x1="157.686" y1="237.413" x2="149.547" y2="210.622" gradientUnits="userSpaceOnUse">
<stop stop-color="#241200"/>
<stop offset="0.494792" stop-color="#AB5600"/>
<stop offset="1" stop-color="#211100"/>
</linearGradient>
<linearGradient id="paint13_linear_57_201" x1="141.132" y1="241.09" x2="136.836" y2="213.422" gradientUnits="userSpaceOnUse">
<stop stop-color="#241200"/>
<stop offset="0.494792" stop-color="#AB5600"/>
<stop offset="1" stop-color="#211100"/>
</linearGradient>
<linearGradient id="paint14_linear_57_201" x1="108.328" y1="241.406" x2="111.986" y2="213.646" gradientUnits="userSpaceOnUse">
<stop stop-color="#241200"/>
<stop offset="0.494792" stop-color="#8C4600"/>
<stop offset="1" stop-color="#211100"/>
</linearGradient>
<linearGradient id="paint15_linear_57_201" x1="85.8372" y1="236.263" x2="94.5809" y2="209.664" gradientUnits="userSpaceOnUse">
<stop stop-color="#241200"/>
<stop offset="0.494792" stop-color="#8C4600"/>
<stop offset="1" stop-color="#211100"/>
</linearGradient>
<linearGradient id="paint16_linear_57_201" x1="70.1856" y1="229.752" x2="82.6084" y2="204.659" gradientUnits="userSpaceOnUse">
<stop stop-color="#241200"/>
<stop offset="0.494792" stop-color="#8C4600"/>
<stop offset="1" stop-color="#211100"/>
</linearGradient>
<linearGradient id="paint17_linear_57_201" x1="55.9786" y1="221.321" x2="71.9491" y2="198.322" gradientUnits="userSpaceOnUse">
<stop stop-color="#241200"/>
<stop offset="0.494792" stop-color="#8C4600"/>
<stop offset="1" stop-color="#211100"/>
</linearGradient>
<linearGradient id="paint18_linear_57_201" x1="4.84929" y1="113.552" x2="32.7392" y2="116.032" gradientUnits="userSpaceOnUse">
<stop stop-color="#241200"/>
<stop offset="0.494792" stop-color="#AB5600"/>
<stop offset="1" stop-color="#211100"/>
</linearGradient>
<linearGradient id="paint19_linear_57_201" x1="7.5794" y1="96.3764" x2="34.8634" y2="102.668" gradientUnits="userSpaceOnUse">
<stop stop-color="#241200"/>
<stop offset="0.494792" stop-color="#AB5600"/>
<stop offset="1" stop-color="#211100"/>
</linearGradient>
<linearGradient id="paint20_linear_57_201" x1="12.4616" y1="80.6442" x2="38.5264" y2="90.8729" gradientUnits="userSpaceOnUse">
<stop stop-color="#241200"/>
<stop offset="0.494792" stop-color="#AB5600"/>
<stop offset="1" stop-color="#211100"/>
</linearGradient>
<linearGradient id="paint21_linear_57_201" x1="23.5228" y1="59.0355" x2="47.0911" y2="74.153" gradientUnits="userSpaceOnUse">
<stop stop-color="#241200"/>
<stop offset="0.494792" stop-color="#AB5600"/>
<stop offset="1" stop-color="#211100"/>
</linearGradient>
<linearGradient id="paint22_linear_57_201" x1="36.5526" y1="42.3882" x2="56.9186" y2="61.6034" gradientUnits="userSpaceOnUse">
<stop stop-color="#241200"/>
<stop offset="0.494792" stop-color="#AB5600"/>
<stop offset="1" stop-color="#211100"/>
</linearGradient>
<linearGradient id="paint23_linear_57_201" x1="52.556" y1="28.1153" x2="69.1919" y2="50.6374" gradientUnits="userSpaceOnUse">
<stop stop-color="#241200"/>
<stop offset="0.494792" stop-color="#AB5600"/>
<stop offset="1" stop-color="#211100"/>
</linearGradient>
<linearGradient id="paint24_linear_57_201" x1="71.9698" y1="16.3923" x2="84.0187" y2="41.6673" gradientUnits="userSpaceOnUse">
<stop stop-color="#241200"/>
<stop offset="0.494792" stop-color="#AB5600"/>
<stop offset="1" stop-color="#211100"/>
</linearGradient>
<linearGradient id="paint25_linear_57_201" x1="89.3137" y1="9.68429" x2="97.4527" y2="36.4753" gradientUnits="userSpaceOnUse">
<stop stop-color="#241200"/>
<stop offset="0.494792" stop-color="#AB5600"/>
<stop offset="1" stop-color="#211100"/>
</linearGradient>
<linearGradient id="paint26_linear_57_201" x1="105.868" y1="6.00703" x2="110.164" y2="33.6756" gradientUnits="userSpaceOnUse">
<stop stop-color="#241200"/>
<stop offset="0.494792" stop-color="#AB5600"/>
<stop offset="1" stop-color="#211100"/>
</linearGradient>
<linearGradient id="paint27_linear_57_201" x1="138.672" y1="5.69075" x2="135.014" y2="33.4508" gradientUnits="userSpaceOnUse">
<stop stop-color="#241200"/>
<stop offset="0.494792" stop-color="#AB5600"/>
<stop offset="1" stop-color="#211100"/>
</linearGradient>
<linearGradient id="paint28_linear_57_201" x1="161.163" y1="10.8338" x2="152.419" y2="37.4335" gradientUnits="userSpaceOnUse">
<stop stop-color="#241200"/>
<stop offset="0.494792" stop-color="#AB5600"/>
<stop offset="1" stop-color="#211100"/>
</linearGradient>
<linearGradient id="paint29_linear_57_201" x1="176.814" y1="17.3448" x2="164.392" y2="42.4381" gradientUnits="userSpaceOnUse">
<stop stop-color="#241200"/>
<stop offset="0.494792" stop-color="#AB5600"/>
<stop offset="1" stop-color="#211100"/>
</linearGradient>
<linearGradient id="paint30_linear_57_201" x1="191.021" y1="25.7759" x2="175.051" y2="48.7747" gradientUnits="userSpaceOnUse">
<stop stop-color="#241200"/>
<stop offset="0.494792" stop-color="#AB5600"/>
<stop offset="1" stop-color="#211100"/>
</linearGradient>
<linearGradient id="paint31_linear_57_201" x1="227.212" y1="73.7751" x2="205.461" y2="83.9179" gradientUnits="userSpaceOnUse">
<stop offset="0.35223" stop-color="#623100"/>
<stop offset="0.494792" stop-color="#B55A00"/>
<stop offset="0.71678" stop-color="#572C00"/>
</linearGradient>
<linearGradient id="paint32_linear_57_201" x1="18.1533" y1="171.832" x2="39.9824" y2="161.857" gradientUnits="userSpaceOnUse">
<stop offset="0.239" stop-color="#412000"/>
<stop offset="0.494792" stop-color="#A25100"/>
<stop offset="0.844" stop-color="#462300"/>
</linearGradient>
</defs>
</svg>
