<svg width="67" height="71" viewBox="0 0 67 71" fill="none" xmlns="http://www.w3.org/2000/svg">
<g filter="url(#filter0_d_46_2192)">
<path d="M6.0332 61.1496L10.6754 56.5074M44.5332 21.6495L17.5332 49.6496M44.5332 21.6495C49.3691 21.6495 52.0331 17.4737 52.0331 14.1495M44.5332 21.6495C39.6973 21.6495 37.0331 17.6495 37.0331 14.1495C37.0331 10.6495 39.8115 6.6495 44.5331 6.6495C49.2547 6.6495 52.0331 10.8253 52.0331 14.1495M44.5332 21.6495C44.5332 18.1495 47.3115 14.1495 52.0331 14.1495M44.5332 21.6495C44.5332 25.1495 47.1972 29.1495 52.0331 29.1495C56.869 29.1495 59.5331 24.9737 59.5331 21.6495C59.5331 18.3253 56.7547 14.1495 52.0331 14.1495M10.6754 56.5074L15.5332 61.3652M10.6754 56.5074L17.5332 49.6496M17.5332 49.6496L22.533 54.6494M53.967 4.14941C49.2455 4.14941 46.467 8.14941 46.467 11.6494C46.467 15.1494 49.1312 19.1494 53.967 19.1494C58.8029 19.1494 61.467 14.9736 61.467 11.6494C61.467 8.32525 58.6886 4.14941 53.967 4.14941Z" stroke="url(#paint0_linear_46_2192)" stroke-width="3" stroke-linecap="round" stroke-linejoin="round"/>
<path d="M6.0332 59.1496L10.6754 54.5074M44.5332 19.6495L17.5332 47.6496M44.5332 19.6495C49.3691 19.6495 52.0331 15.4737 52.0331 12.1495M44.5332 19.6495C39.6973 19.6495 37.0331 15.6495 37.0331 12.1495C37.0331 8.6495 39.8115 4.6495 44.5331 4.6495C49.2547 4.6495 52.0331 8.82534 52.0331 12.1495M44.5332 19.6495C44.5332 16.1495 47.3115 12.1495 52.0331 12.1495M44.5332 19.6495C44.5332 23.1495 47.1972 27.1495 52.0331 27.1495C56.869 27.1495 59.5331 22.9737 59.5331 19.6495C59.5331 16.3253 56.7547 12.1495 52.0331 12.1495M10.6754 54.5074L15.5332 59.3652M10.6754 54.5074L17.5332 47.6496M17.5332 47.6496L22.533 52.6494M53.967 2.14941C49.2455 2.14941 46.467 6.14941 46.467 9.64941C46.467 13.1494 49.1312 17.1494 53.967 17.1494C58.8029 17.1494 61.467 12.9736 61.467 9.64941C61.467 6.32525 58.6886 2.14941 53.967 2.14941Z" stroke="url(#paint1_linear_46_2192)" stroke-width="3" stroke-linecap="round" stroke-linejoin="round"/>
<path d="M23.6269 53.9696C23.6806 53.9267 23.733 53.8802 23.7832 53.8302V54.7481C23.7832 54.9381 23.72 55.2315 23.5352 55.4713C23.3893 55.6605 23.1577 55.8303 22.7832 55.8828V54.3726C23.0546 54.3178 23.3633 54.1805 23.6269 53.9696Z" fill="url(#paint2_linear_46_2192)" stroke="url(#paint3_linear_46_2192)" stroke-width="0.5"/>
<path d="M5.7832 62.3814C5.41453 62.3255 5.18383 62.146 5.03609 61.9408C4.84826 61.68 4.7832 61.3594 4.7832 61.1494V60.3302C4.83346 60.3802 4.88584 60.4267 4.93953 60.4696C5.20306 60.6805 5.51183 60.8178 5.7832 60.8726V62.3814Z" fill="url(#paint4_linear_46_2192)" stroke="url(#paint5_linear_46_2192)" stroke-width="0.5"/>
<path d="M16.401 60.8307C16.5398 60.7566 16.6689 60.663 16.7832 60.5479V61.2623C16.7832 61.6441 16.6229 62.0406 16.3369 62.3C16.0919 62.5223 15.7419 62.6562 15.2832 62.5784V61.0584C15.6221 61.076 16.0347 61.0265 16.401 60.8307Z" fill="url(#paint6_linear_46_2192)" stroke="url(#paint7_linear_46_2192)" stroke-width="0.5"/>
</g>
<defs>
<filter id="filter0_d_46_2192" x="0.533203" y="0.649414" width="66.4336" height="70.2158" filterUnits="userSpaceOnUse" color-interpolation-filters="sRGB">
<feFlood flood-opacity="0" result="BackgroundImageFix"/>
<feColorMatrix in="SourceAlpha" type="matrix" values="0 0 0 0 0 0 0 0 0 0 0 0 0 0 0 0 0 0 127 0" result="hardAlpha"/>
<feOffset dy="4"/>
<feGaussianBlur stdDeviation="2"/>
<feComposite in2="hardAlpha" operator="out"/>
<feColorMatrix type="matrix" values="0 0 0 0 0 0 0 0 0 0 0 0 0 0 0 0 0 0 0.25 0"/>
<feBlend mode="normal" in2="BackgroundImageFix" result="effect1_dropShadow_46_2192"/>
<feBlend mode="normal" in="SourceGraphic" in2="effect1_dropShadow_46_2192" result="shape"/>
</filter>
<linearGradient id="paint0_linear_46_2192" x1="33.7501" y1="4.14941" x2="33.7501" y2="61.3652" gradientUnits="userSpaceOnUse">
<stop stop-color="#C1780A"/>
<stop offset="0.494792" stop-color="#FF9900"/>
<stop offset="1" stop-color="#AD6800"/>
</linearGradient>
<linearGradient id="paint1_linear_46_2192" x1="59.5332" y1="5.14941" x2="3.89614" y2="57.4065" gradientUnits="userSpaceOnUse">
<stop stop-color="#FEC424"/>
<stop offset="0.123016" stop-color="#FEED44"/>
<stop offset="0.248796" stop-color="#FCFF67"/>
<stop offset="0.482583" stop-color="#FCFF67"/>
<stop offset="0.64957" stop-color="#FEC424"/>
<stop offset="0.82597" stop-color="#FEC424"/>
<stop offset="1" stop-color="#FCFF67"/>
</linearGradient>
<linearGradient id="paint2_linear_46_2192" x1="23.2832" y1="52.6494" x2="23.2832" y2="56.1494" gradientUnits="userSpaceOnUse">
<stop stop-color="#C98B2E"/>
<stop offset="0.494792" stop-color="#DC9731"/>
<stop offset="1" stop-color="#BD7C1B"/>
</linearGradient>
<linearGradient id="paint3_linear_46_2192" x1="23.2832" y1="52.6494" x2="23.2832" y2="56.1494" gradientUnits="userSpaceOnUse">
<stop stop-color="#C98B2E"/>
<stop offset="0.494792" stop-color="#DC9731"/>
<stop offset="1" stop-color="#BD7C1B"/>
</linearGradient>
<linearGradient id="paint4_linear_46_2192" x1="5.2832" y1="59.1494" x2="5.2832" y2="62.6494" gradientUnits="userSpaceOnUse">
<stop stop-color="#C98B2E"/>
<stop offset="0.494792" stop-color="#DC9731"/>
<stop offset="1" stop-color="#BD7C1B"/>
</linearGradient>
<linearGradient id="paint5_linear_46_2192" x1="5.2832" y1="59.1494" x2="5.2832" y2="62.6494" gradientUnits="userSpaceOnUse">
<stop stop-color="#C98B2E"/>
<stop offset="0.494792" stop-color="#DC9731"/>
<stop offset="1" stop-color="#BD7C1B"/>
</linearGradient>
<linearGradient id="paint6_linear_46_2192" x1="16.0332" y1="59.1494" x2="16.0332" y2="62.8506" gradientUnits="userSpaceOnUse">
<stop stop-color="#C98B2E"/>
<stop offset="0.494792" stop-color="#DC9731"/>
<stop offset="1" stop-color="#BD7C1B"/>
</linearGradient>
<linearGradient id="paint7_linear_46_2192" x1="16.0332" y1="59.1494" x2="16.0332" y2="62.8506" gradientUnits="userSpaceOnUse">
<stop stop-color="#C98B2E"/>
<stop offset="0.494792" stop-color="#DC9731"/>
<stop offset="1" stop-color="#BD7C1B"/>
</linearGradient>
</defs>
</svg>
