<svg width="51" height="55" viewBox="0 0 51 55" fill="none" xmlns="http://www.w3.org/2000/svg">
<g filter="url(#filter0_d_93_152)">
<path d="M31.908 2.00001C32.1609 1.99915 32.4112 2.05173 32.6421 2.15425C32.873 2.25677 33.0792 2.40689 33.2471 2.59464C33.415 2.78239 33.5407 3.00345 33.6158 3.2431C33.6909 3.48275 33.7138 3.73553 33.6828 3.98464C33.6791 4.01406 33.6746 4.04336 33.6692 4.07252L30.9444 18.8667H41.4545C42.0501 18.8667 42.5927 19.2063 42.8493 19.7396C43.1058 20.2729 43.0306 20.905 42.656 21.3644L21.4849 47.3275C21.324 47.5306 21.1198 47.6963 20.8868 47.8126C20.6402 47.9355 20.3681 47.9997 20.0922 48C19.8336 48.0003 19.5781 47.9445 19.3435 47.8365C19.1082 47.7282 18.8998 47.57 18.7329 47.3731C18.5659 47.1762 18.4446 46.9454 18.3773 46.6968C18.31 46.4483 18.2985 46.1882 18.3436 45.9348L18.345 45.9268L21.0572 31.1333H10.5455C9.94984 31.1333 9.40723 30.7937 9.1507 30.2604C8.89417 29.7271 8.96938 29.0949 9.34403 28.6355L30.5098 2.68155C30.669 2.47845 30.8711 2.31213 31.1023 2.1945C31.3515 2.06775 31.628 2.00111 31.908 2.00001Z" fill="url(#paint0_linear_93_152)"/>
<path d="M20.0922 48C20.3681 47.9997 20.6402 47.9355 20.8868 47.8126C21.1198 47.6963 21.324 47.5306 21.4849 47.3275L42.656 21.3644C43.0306 20.905 43.1058 20.2729 42.8493 19.7396C42.5927 19.2063 42.0501 18.8667 41.4545 18.8667H30.9444L33.6692 4.07252C33.6746 4.04336 33.6791 4.01406 33.6828 3.98464C33.7138 3.73553 33.6909 3.48275 33.6158 3.2431C33.5407 3.00345 33.415 2.78239 33.2471 2.59464C33.0792 2.40689 32.873 2.25677 32.6421 2.15425C32.4112 2.05173 32.1609 1.99915 31.908 2.00001C31.628 2.00111 31.3515 2.06775 31.1023 2.1945C30.8711 2.31213 30.669 2.47845 30.5098 2.68155M20.0922 48L20.0944 48M20.0922 48C19.8336 48.0003 19.5781 47.9445 19.3435 47.8365C19.1082 47.7282 18.8998 47.57 18.7329 47.3731C18.5659 47.1762 18.4446 46.9454 18.3773 46.6968C18.31 46.4483 18.2985 46.1882 18.3436 45.9348L18.345 45.9268L21.0572 31.1333H10.5455C9.94984 31.1333 9.40723 30.7937 9.1507 30.2604C8.89417 29.7271 8.96938 29.0949 9.34403 28.6355L30.5098 2.68155M30.5098 2.68155C30.4974 2.6973 30.4853 2.71327 30.4735 2.72946M30.5098 2.68155L30.5235 2.66469" stroke="#EC8E00" stroke-width="1.5" stroke-linecap="round" stroke-linejoin="round"/>
</g>
<defs>
<filter id="filter0_d_93_152" x="0.25" y="1.25" width="43.5" height="55.5" filterUnits="userSpaceOnUse" color-interpolation-filters="sRGB">
<feFlood flood-opacity="0" result="BackgroundImageFix"/>
<feColorMatrix in="SourceAlpha" type="matrix" values="0 0 0 0 0 0 0 0 0 0 0 0 0 0 0 0 0 0 127 0" result="hardAlpha"/>
<feOffset dx="-4" dy="4"/>
<feGaussianBlur stdDeviation="2"/>
<feComposite in2="hardAlpha" operator="out"/>
<feColorMatrix type="matrix" values="0 0 0 0 0 0 0 0 0 0 0 0 0 0 0 0 0 0 0.25 0"/>
<feBlend mode="normal" in2="BackgroundImageFix" result="effect1_dropShadow_93_152"/>
<feBlend mode="normal" in="SourceGraphic" in2="effect1_dropShadow_93_152" result="shape"/>
</filter>
<linearGradient id="paint0_linear_93_152" x1="9" y1="2" x2="42.2823" y2="48.3715" gradientUnits="userSpaceOnUse">
<stop stop-color="#FF8A00"/>
<stop offset="0.5" stop-color="#FFD600"/>
<stop offset="1" stop-color="#FF9900"/>
</linearGradient>
</defs>
</svg>
