<svg width="46" height="45" viewBox="0 0 46 45" fill="none" xmlns="http://www.w3.org/2000/svg">
<g filter="url(#filter0_d_89_131)">
<path d="M25.5 36C34.3365 36 41.5 28.8365 41.5 20C41.5 11.1634 34.3365 4 25.5 4C16.6634 4 9.5 11.1634 9.5 20C9.5 28.8365 16.6634 36 25.5 36Z" fill="url(#paint0_linear_89_131)"/>
<path d="M25.5 36C34.3365 36 41.5 28.8365 41.5 20C41.5 11.1634 34.3365 4 25.5 4C16.6634 4 9.5 11.1634 9.5 20C9.5 28.8365 16.6634 36 25.5 36Z" stroke="url(#paint1_linear_89_131)" stroke-width="1.5" stroke-linecap="round"/>
</g>
<g filter="url(#filter1_d_89_131)">
<path d="M25.0245 11.4635C25.1741 11.0029 25.8259 11.0029 25.9755 11.4635L27.6329 16.5643C27.6998 16.7703 27.8918 16.9098 28.1084 16.9098H33.4717C33.9561 16.9098 34.1575 17.5296 33.7656 17.8143L29.4266 20.9668C29.2514 21.0941 29.178 21.3198 29.245 21.5258L30.9023 26.6266C31.052 27.0873 30.5248 27.4704 30.1329 27.1857L25.7939 24.0332C25.6186 23.9059 25.3814 23.9059 25.2061 24.0332L20.8671 27.1857C20.4752 27.4704 19.948 27.0873 20.0977 26.6266L21.755 21.5258C21.822 21.3198 21.7486 21.0941 21.5734 20.9668L17.2344 17.8143C16.8425 17.5296 17.0439 16.9098 17.5283 16.9098H22.8916C23.1082 16.9098 23.3002 16.7703 23.3671 16.5643L25.0245 11.4635Z" fill="url(#paint2_linear_89_131)"/>
<path d="M25.5 11.618L27.1574 16.7188C27.2912 17.1309 27.6752 17.4098 28.1084 17.4098H33.4717L29.1327 20.5623C28.7822 20.8169 28.6356 21.2683 28.7694 21.6803L30.4268 26.7812L26.0878 23.6287C25.7373 23.374 25.2627 23.374 24.9122 23.6287L20.5732 26.7812L22.2306 21.6803C22.3644 21.2683 22.2178 20.8169 21.8673 20.5623L21.5734 20.9668L21.8673 20.5623L17.5283 17.4098H22.8916C23.3248 17.4098 23.7088 17.1309 23.8426 16.7188L25.5 11.618Z" stroke="url(#paint3_linear_89_131)"/>
</g>
<defs>
<filter id="filter0_d_89_131" x="0.75" y="3.25" width="41.5" height="41.5" filterUnits="userSpaceOnUse" color-interpolation-filters="sRGB">
<feFlood flood-opacity="0" result="BackgroundImageFix"/>
<feColorMatrix in="SourceAlpha" type="matrix" values="0 0 0 0 0 0 0 0 0 0 0 0 0 0 0 0 0 0 127 0" result="hardAlpha"/>
<feOffset dx="-4" dy="4"/>
<feGaussianBlur stdDeviation="2"/>
<feComposite in2="hardAlpha" operator="out"/>
<feColorMatrix type="matrix" values="0 0 0 0 0 0 0 0 0 0 0 0 0 0 0 0 0 0 0.25 0"/>
<feBlend mode="normal" in2="BackgroundImageFix" result="effect1_dropShadow_89_131"/>
<feBlend mode="normal" in="SourceGraphic" in2="effect1_dropShadow_89_131" result="shape"/>
</filter>
<filter id="filter1_d_89_131" x="13.5273" y="11.1179" width="20.4453" height="19.6655" filterUnits="userSpaceOnUse" color-interpolation-filters="sRGB">
<feFlood flood-opacity="0" result="BackgroundImageFix"/>
<feColorMatrix in="SourceAlpha" type="matrix" values="0 0 0 0 0 0 0 0 0 0 0 0 0 0 0 0 0 0 127 0" result="hardAlpha"/>
<feOffset dx="-2" dy="2"/>
<feGaussianBlur stdDeviation="0.75"/>
<feComposite in2="hardAlpha" operator="out"/>
<feColorMatrix type="matrix" values="0 0 0 0 0.454902 0 0 0 0 0.105882 0 0 0 0 0.0666667 0 0 0 1 0"/>
<feBlend mode="normal" in2="BackgroundImageFix" result="effect1_dropShadow_89_131"/>
<feBlend mode="normal" in="SourceGraphic" in2="effect1_dropShadow_89_131" result="shape"/>
</filter>
<linearGradient id="paint0_linear_89_131" x1="36.9728" y1="8.1834" x2="15.8049" y2="32.5941" gradientUnits="userSpaceOnUse">
<stop stop-color="#F69002"/>
<stop offset="0.245724" stop-color="#FF9900"/>
<stop offset="0.502278" stop-color="#F69002"/>
<stop offset="0.803579" stop-color="#B75800"/>
<stop offset="1" stop-color="#973701"/>
</linearGradient>
<linearGradient id="paint1_linear_89_131" x1="25.5" y1="4" x2="25.5" y2="36" gradientUnits="userSpaceOnUse">
<stop stop-color="#FF9900"/>
<stop offset="0.494792" stop-color="#DD6F20"/>
<stop offset="1" stop-color="#A23F15"/>
</linearGradient>
<linearGradient id="paint2_linear_89_131" x1="15.5" y1="10" x2="35.5" y2="30" gradientUnits="userSpaceOnUse">
<stop stop-color="#F69002"/>
<stop offset="0.494792" stop-color="#FFEA60"/>
<stop offset="1" stop-color="#F69002"/>
</linearGradient>
<linearGradient id="paint3_linear_89_131" x1="15.5" y1="10" x2="35.5" y2="30" gradientUnits="userSpaceOnUse">
<stop stop-color="#FFB800"/>
<stop offset="0.500334" stop-color="#FFD600"/>
<stop offset="1" stop-color="#FF8A00"/>
</linearGradient>
</defs>
</svg>
